<?xml version="1.0" encoding="UTF-8"?>
<svg width="288px" height="416px" viewBox="0 0 288 416" version="1.1" xmlns="http://www.w3.org/2000/svg" xmlns:xlink="http://www.w3.org/1999/xlink">
    <!-- Generator: Sketch 59 (86127) - https://sketch.com -->
    <title>编组 12</title>
    <desc>Created with Sketch.</desc>
    <defs>
        <rect id="path-1" x="0" y="0" width="280" height="408"></rect>
        <filter x="-2.3%" y="-1.3%" width="104.6%" height="103.2%" filterUnits="objectBoundingBox" id="filter-3">
            <feOffset dx="0" dy="1" in="SourceAlpha" result="shadowOffsetOuter1"></feOffset>
            <feGaussianBlur stdDeviation="2" in="shadowOffsetOuter1" result="shadowBlurOuter1"></feGaussianBlur>
            <feColorMatrix values="0 0 0 0 0.129411765   0 0 0 0 0.137254902   0 0 0 0 0.149019608  0 0 0 0.25 0" type="matrix" in="shadowBlurOuter1"></feColorMatrix>
        </filter>
        <path d="M5.6448,0 L421.9488,0 L421.9488,0 L421.9488,409.248 L5.6448,409.248 C2.52726304,409.248 -2.44872076e-14,406.720737 0,403.6032 L0,5.6448 C-1.26996659e-15,2.52726304 2.52726304,2.34903909e-15 5.6448,0 Z" id="path-4"></path>
        <filter x="-2.5%" y="-2.6%" width="105.0%" height="105.1%" filterUnits="objectBoundingBox" id="filter-6">
            <feOffset dx="0" dy="0" in="SourceAlpha" result="shadowOffsetOuter1"></feOffset>
            <feGaussianBlur stdDeviation="3.5" in="shadowOffsetOuter1" result="shadowBlurOuter1"></feGaussianBlur>
            <feColorMatrix values="0 0 0 0 0.153866466   0 0 0 0 0.159883835   0 0 0 0 0.169016078  0 0 0 0.2 0" type="matrix" in="shadowBlurOuter1"></feColorMatrix>
        </filter>
        <polygon id="path-7" points="0 0.3456288 8.72476618 0.3456288 8.72476618 9.8999208 0 9.8999208"></polygon>
        <polygon id="path-9" points="0.3027816 0.269676 11.3202936 0.269676 11.3202936 5.8456332 0.3027816 5.8456332"></polygon>
        <path d="M11.9961449,21.9075453 C10.3169513,26.6062519 9.15541765,30.5299637 8.51154398,33.6786807 C7.8676703,36.8273977 7.56419443,40.06798 7.60111637,43.4004276 C3.31702023,45.3034077 1.17497217,48.5080631 1.17497217,53.0143937 C1.17497217,57.5207244 2.02755979,60.8514015 3.73273504,63.006425 C2.70650771,63.1670219 1.85392008,63.4945083 1.17497217,63.9888842 C-0.0971776964,64.9152 0.183744006,66.6318123 1.87454013,66.6473466 C4.18588968,66.6685822 9.109995,66.6685822 16.6468561,66.6473466 C17.7823435,57.9591561 22.8263386,54.1298972 31.7788413,55.1595699 C40.7313441,56.1892427 48.5227105,60.0185016 55.1529407,66.6473466 C65.7769355,66.9182982 71.6399739,66.9182982 72.7420561,66.6473466 C73.8441383,66.3763949 72.9175215,65.1627544 69.9622058,63.006425 C66.4252753,56.8125298 63.3466224,52.2502968 60.726247,49.3197259 C58.1058716,46.389155 54.7440838,44.0356279 50.6408836,42.2591447 C50.6910486,39.8335544 50.3527902,37.5950352 49.6261083,35.5435871 C48.8994265,33.4921391 47.4265889,30.6178712 45.2075954,26.9207836 C50.4890683,26.5256946 54.3432453,25.9873106 56.7701266,25.3056317 C59.1970078,24.6239527 62.5217843,23.1458634 66.7444561,20.8713636 C71.6750599,20.5987212 74.763507,18.9808689 76.0097974,16.0178066 C77.2560877,13.0547443 77.2560877,9.87293149 76.0097974,6.4723682 C77.3593032,3.05055294 77.3593032,0.962438544 76.0097974,0.208025011 C74.6602916,-0.546388523 71.9325871,0.751137914 67.826684,4.10060432 C61.9442437,8.62799388 57.4048552,11.6513896 54.2085185,13.1707916 C51.0121818,14.6901935 46.7145161,16.1031476 41.3155215,17.4096539 L15.1129639,17.4096539 L11.9961449,21.9075453 Z" id="path-11"></path>
        <path d="M19.6138033,77.616 C16.9304926,49.1026835 27.7986885,31.6219671 52.218391,25.1738509 C85.3938462,19.086884 104.914198,31.9716877 110.779447,63.828262 C115.012882,65.02567 117.1296,66.9051324 117.1296,69.4666494 C117.1296,72.0281663 115.012882,74.7446165 110.779447,77.616 C101.83869,97.1376 86.5506074,107.016 64.9152,107.2512 C43.7567037,107.016 29.8276878,100.7832 23.1281523,88.5528 C18.552476,85.6640742 16.039371,83.5186714 15.5888372,82.1165917 C15.1383034,80.7145119 16.4799588,79.2143147 19.6138033,77.616 Z" id="path-13"></path>
        <path d="M0,3.93077717 C2.35359882,4.64235311 4.50138204,4.64235311 6.44334967,3.93077717 C8.38531729,3.21920122 9.64793407,1.90894216 10.2312,-8.8817842e-15 C11.802554,1.71960945 13.6358424,2.57941417 15.7310651,2.57941417 C17.8262879,2.57941417 19.8737995,2.07820353 21.8736,1.07578224 C21.2979247,8.01520698 18.0316191,11.6836985 12.0746832,12.0812568 C6.11774723,12.4788151 2.09285284,9.76198857 0,3.93077717 Z" id="path-15"></path>
    </defs>
    <g id="15二级菜单/新作品" stroke="none" stroke-width="1" fill="none" fill-rule="evenodd">
        <g id="15.3.4版本" transform="translate(-657.000000, -333.000000)">
            <g id="编组-12" transform="translate(661.000000, 336.000000)">
                <mask id="mask-2" fill="white">
                    <use xlink:href="#path-1"></use>
                </mask>
                <g id="蒙版">
                    <use fill="black" fill-opacity="1" filter="url(#filter-3)" xlink:href="#path-1"></use>
                    <use fill="#FFFFFF" fill-rule="evenodd" xlink:href="#path-1"></use>
                </g>
                <g mask="url(#mask-2)">
                    <g transform="translate(-35.000000, 0.000000)">
                        <g id="新建作品备份" transform="translate(7.056000, 0.000000)">
                            <mask id="mask-5" fill="white">
                                <use xlink:href="#path-4"></use>
                            </mask>
                            <g id="bg">
                                <use fill="black" fill-opacity="1" filter="url(#filter-6)" xlink:href="#path-4"></use>
                                <use fill="#ACE3FE" fill-rule="evenodd" xlink:href="#path-4"></use>
                            </g>
                            <g id="新建的bar" mask="url(#mask-5)">
                                <g transform="translate(-880.588800, -2444.904000)">
                                    <g id="bar" stroke-width="1" fill="none" transform="translate(1153.656000, 2444.904000)">
                                        <g id="切换/未选中">
                                            <g></g>
                                        </g>
                                    </g>
                                    <path d="M853.776,2876.7312 L936.551583,2807.18469 C949.264387,2796.50363 965.336733,2790.648 981.940963,2790.648 L1334.2896,2790.648 L1334.2896,2790.648 L1334.2896,2421.6192 L1094.82796,2421.6192 L1036.53805,2495.18617 C1028.5078,2505.32106 1016.28615,2511.2304 1003.35553,2511.2304 L980.680145,2511.2304 C969.45194,2511.2304 958.683613,2515.69079 950.744073,2523.63033 L920.513804,2553.8606 C912.99028,2561.38412 902.90972,2565.79893 892.278439,2566.22635 L873.711915,2566.9728 L873.711915,2566.9728 L853.776,2876.7312 Z" id="路径-4" fill="#167EE6"></path>
                                    <path d="M880.5888,2742.6672 L1174.27421,2742.6672 C1206.08209,2742.6672 1236.41419,2729.24919 1257.81048,2705.71327 L1315.944,2641.7664 L1315.944,2641.7664 L1315.944,2443.42311 L1210.54358,2430.792 L1107.3387,2539.03386 C1099.34909,2547.41341 1088.27623,2552.1552 1076.6982,2552.1552 L1058.86049,2552.1552 C1046.47857,2552.1552 1034.71723,2557.57573 1026.67381,2566.98931 L985.527633,2615.14451 C977.586538,2624.43832 966.015789,2629.84595 953.792081,2629.97621 L873.711915,2630.8296 L873.711915,2630.8296 L880.5888,2742.6672 Z" id="路径-3" fill="#1B56D3"></path>
                                    <path d="M1144.15232,2854.152 C1196.48213,2797.54885 1231.55187,2764.62085 1249.36156,2755.368 C1267.17124,2746.11515 1295.48059,2743.76315 1334.2896,2748.312 L1334.2896,2853.4464" id="路径-2" fill="#09C4A0"></path>
                                </g>
                            </g>
                        </g>
                        <g id="编组-11" transform="translate(0.000000, 24.696000)">
                            <g id="编组-7" transform="translate(0.000000, 47.275200)">
                                <line x1="0.3528" y1="0.3528" x2="182.3976" y2="0.7056" id="路径-12" stroke="#ACE3FE" stroke-width="0.7056" stroke-linecap="round"></line>
                                <circle id="椭圆形" fill="#ACE3FE" cx="197.568" cy="0.7056" r="1"></circle>
                                <g id="编组-19" transform="translate(71.971200, 47.275200)">
                                    <circle id="椭圆形备份" fill="#ACE3FE" cx="102.4002" cy="2.7342" r="1"></circle>
                                    <line x1="0" y1="2.4696" x2="24.5196" y2="2.2932" id="路径-12备份-2" stroke="#ACE3FE" stroke-width="0.7056" stroke-linecap="round"></line>
                                    <line x1="204.9768" y1="1.0584" x2="272.8026" y2="0.9702" id="路径-12备份-4" stroke="#ACE3FE" stroke-width="0.7056" stroke-linecap="round"></line>
                                    <line x1="33.1632" y1="2.4696" x2="66.6792" y2="2.4696" id="路径-12备份-3" stroke="#ACE3FE" stroke-width="0.7056" stroke-linecap="round"></line>
                                </g>
                                <line x1="213.0912" y1="1.0584" x2="237.6108" y2="0.882" id="路径-12备份" stroke="#ACE3FE" stroke-width="0.7056" stroke-linecap="round"></line>
                            </g>
                            <g id="编组-7" transform="translate(280.123200, 47.275200)" stroke="#ACE3FE" stroke-linecap="round" stroke-width="0.7056">
                                <line x1="0.3528" y1="0.3528" x2="182.3976" y2="0.7056" id="路径-12"></line>
                            </g>
                            <g id="编组-7" transform="translate(168.638400, 12.700800)" stroke="#ACE3FE" stroke-linecap="round" stroke-width="0.7056">
                                <line x1="0.3528" y1="0.3528" x2="182.3976" y2="0.7056" id="路径-12"></line>
                                <path d="M80.8794,107.9568 L115.801605,107.9568 C129.732141,107.9568 142.771152,101.103757 150.671304,89.6299858 L167.70136,64.8964142 C175.601511,53.4226431 188.640523,46.5696 202.571058,46.5696 L242.4618,46.5696 L242.4618,46.5696" id="路径-18"></path>
                            </g>
                            <line x1="101.2536" y1="122.614536" x2="23.0934449" y2="122.614536" id="路径-23" stroke="#ACE3FE" stroke-width="0.7056" stroke-linecap="round"></line>
                            <g id="编组-10" transform="translate(7.056000, 127.008000)">
                                <line x1="0.363740089" y1="59.2704" x2="128.837637" y2="59.2704" id="路径-19" stroke="#ACE3FE" stroke-width="0.7056" stroke-linecap="round"></line>
                                <line x1="134.887941" y1="59.2704" x2="147.012763" y2="59.2704" id="路径-20" stroke="#ACE3FE" stroke-width="0.7056" stroke-linecap="round"></line>
                                <path d="M64.9152,123.48 L295.73534,123.48 C315.465912,123.48 334.295195,115.21885 347.655941,100.700381 L389.437715,55.2981716 C397.454163,46.5870902 408.751733,41.6304 420.590076,41.6304 L464.2848,41.6304 L464.2848,41.6304" id="路径-21" stroke="#ACE3FE" stroke-width="0.7056" stroke-linecap="round"></path>
                                <line x1="52.2348179" y1="123.48" x2="40.8952169" y2="123.48" id="路径-22" stroke="#ACE3FE" stroke-width="0.7056" stroke-linecap="round"></line>
                                <circle id="椭圆形备份-2" fill="#ACE3FE" cx="310.1112" cy="19.404" r="1.764"></circle>
                                <circle id="椭圆形备份-6" fill="#ACE3FE" cx="80.7912" cy="15.876" r="1.764"></circle>
                            </g>
                            <line x1="284.3568" y1="205.6824" x2="337.6296" y2="206.0352" id="路径-24" stroke="#ACE3FE" stroke-width="0.7056" stroke-linecap="round"></line>
                            <line x1="276.948" y1="205.6824" x2="261.072" y2="205.6824" id="路径-25" stroke="#ACE3FE" stroke-width="0.7056" stroke-linecap="round"></line>
                            <circle id="椭圆形备份-4" fill="#ACE3FE" cx="278.0064" cy="164.4048" r="1"></circle>
                            <circle id="椭圆形备份-7" fill="#ACE3FE" cx="296.7048" cy="178.164" r="1.0584"></circle>
                            <circle id="椭圆形备份-4" fill="#ACE3FE" cx="64.5624" cy="214.1496" r="1.0584"></circle>
                            <circle id="椭圆形备份-5" fill="#ACE3FE" cx="260.7192" cy="1.0584" r="1.0584"></circle>
                        </g>
                        <g id="编组" transform="translate(55.000000, 19.000000)">
                            <path d="M15.1985592,22.8700692 C13.5603072,22.8700692 12.2273712,24.2030052 12.2273712,25.8412572 C12.2273712,27.4795092 13.5603072,28.8124452 15.1985592,28.8124452 C16.8368112,28.8124452 18.1697472,27.4795092 18.1697472,25.8412572 C18.1697472,24.2030052 16.8368112,22.8700692 15.1985592,22.8700692 M15.1985592,30.6182052 C12.5643672,30.6182052 10.4216112,28.4754492 10.4216112,25.8412572 C10.4216112,23.2070652 12.5643672,21.0639132 15.1985592,21.0639132 C17.8327512,21.0639132 19.9755072,23.2070652 19.9755072,25.8412572 C19.9755072,28.4754492 17.8327512,30.6182052 15.1985592,30.6182052" id="Fill-1" fill="#1B56D3"></path>
                            <path d="M67.9885668,22.8700692 C66.3503148,22.8700692 65.0173788,24.2030052 65.0173788,25.8412572 C65.0173788,27.4795092 66.3503148,28.8124452 67.9885668,28.8124452 C69.6268188,28.8124452 70.9597548,27.4795092 70.9597548,25.8412572 C70.9597548,24.2030052 69.6268188,22.8700692 67.9885668,22.8700692 M67.9885668,30.6182052 C65.3543748,30.6182052 63.2116188,28.4754492 63.2116188,25.8412572 C63.2116188,23.2070652 65.3543748,21.0639132 67.9885668,21.0639132 C70.6227588,21.0639132 72.7655148,23.2070652 72.7655148,25.8412572 C72.7655148,28.4754492 70.6227588,30.6182052 67.9885668,30.6182052" id="Fill-3" fill="#1B56D3"></path>
                            <g transform="translate(0.000000, 20.718324)">
                                <mask id="mask-8" fill="white">
                                    <use xlink:href="#path-7"></use>
                                </mask>
                                <g id="Clip-6"></g>
                                <path d="M8.700318,7.3061208 C8.585082,6.8198328 8.098002,6.5192688 7.611714,6.6345048 C7.403022,6.6840048 7.229178,6.8028048 7.10721,6.9600168 L7.105626,6.9592248 C7.029594,7.0546608 6.948414,7.1465328 6.860502,7.2324648 L6.861294,7.2328608 C6.32511,7.7627088 5.588946,8.0902008 4.777146,8.0902008 C3.140874,8.0902008 1.809522,6.7592448 1.809522,5.1229728 C1.809522,3.4867008 3.140874,2.1553488 4.777146,2.1553488 C5.722002,2.1553488 6.564294,2.5996608 7.108398,3.2898888 L7.10919,3.2890968 C7.274718,3.4950168 7.52895,3.6268848 7.813674,3.6268848 C8.31303,3.6268848 8.717742,3.2221728 8.717742,2.7228168 C8.717742,2.4919488 8.631018,2.2820688 8.488854,2.1224808 C7.61211,1.0402128 6.274818,0.3456288 4.777146,0.3456288 C2.142954,0.3456288 -0.000198,2.4887808 -0.000198,5.1229728 C-0.000198,7.7571648 2.142954,9.8999208 4.777146,9.8999208 C6.16869,9.8999208 7.422426,9.3015648 8.296398,8.3491848 L8.247294,8.3107728 L8.296398,8.3491848 C8.297586,8.3479968 8.298378,8.3472048 8.299566,8.3460168 C8.32887,8.3143368 8.35659,8.2814688 8.384706,8.2489968 C8.397774,8.2335528 8.411238,8.2189008 8.424306,8.2034568 C8.455986,8.1654408 8.486874,8.1270288 8.517762,8.0882208 C8.69121,7.8779448 8.768034,7.5920328 8.700318,7.3061208" id="Fill-5" fill="#1B56D3" mask="url(#mask-8)"></path>
                            </g>
                            <path d="M26.1873612,28.6376112 C25.4226852,28.6376112 26.1544932,28.6391952 26.1544932,28.6391952 L23.8691772,28.6391952 C23.6046492,28.6391952 23.3904132,28.4249592 23.3904132,28.1604312 L23.3904132,26.3439792 L23.3904132,26.1329112 L23.3904132,23.5236672 C23.3904132,23.2591392 23.6046492,23.0449032 23.8691772,23.0449032 L26.1762732,23.0449032 C26.1762732,23.0449032 25.2971532,23.0468832 26.1873612,23.0468832 C27.7285932,23.0468832 28.9827252,24.3010152 28.9827252,25.8422472 C28.9827252,27.3834792 27.7285932,28.6376112 26.1873612,28.6376112 M26.1873612,21.3424992 C26.1837972,21.3424992 26.1798372,21.3424992 26.1762732,21.3424992 L26.1762732,21.3424992 L22.5766332,21.3424992 C22.5639612,21.3417072 22.5516852,21.3405192 22.5390132,21.3405192 C22.0685652,21.3405192 21.6876132,21.7214712 21.6876132,22.1919192 L21.6876132,22.1935032 L21.6876132,22.1938992 L21.6876132,26.1329112 L21.6876132,26.3439792 L21.6876132,29.4775272 C21.6876132,29.4799032 21.6880092,29.4818832 21.6880092,29.4842592 C21.6880092,29.4866352 21.6876132,29.4886152 21.6876132,29.4905952 C21.6876132,29.7186912 21.7790892,29.9250072 21.9271932,30.0782592 C21.9311532,30.0822192 21.9347172,30.0865752 21.9386772,30.0905352 C21.9430332,30.0948912 21.9469932,30.0980592 21.9513492,30.1020192 C22.1038092,30.2505192 22.3105212,30.3419952 22.5390132,30.3419952 C22.5409932,30.3419952 22.5429732,30.3415992 22.5453492,30.3415992 C22.5477252,30.3415992 22.5497052,30.3419952 22.5520812,30.3419952 L26.1544932,30.3419952 L26.1544932,30.3412032 C26.1651852,30.3412032 26.1762732,30.3419952 26.1873612,30.3419952 C28.6686972,30.3419952 30.6871092,28.3235832 30.6871092,25.8422472 C30.6871092,23.3609112 28.6686972,21.3424992 26.1873612,21.3424992" id="Fill-7" fill="#1B56D3"></path>
                            <path d="M39.6946836,28.6393536 L34.5716316,28.6393536 C34.3071036,28.6393536 34.0928676,28.4251176 34.0928676,28.1605896 L34.0928676,26.3441376 L34.0928676,26.1326736 L34.0928676,23.5214496 C34.0928676,23.2608816 34.3007676,23.0494176 34.5597516,23.0430816 L39.6946836,23.0430816 C40.1647356,23.0430816 40.5460836,22.6617336 40.5460836,22.1916816 C40.5460836,21.7216296 40.1647356,21.3402816 39.6946836,21.3402816 L33.2478036,21.3402816 L33.2478036,21.3406776 C33.2454276,21.3406776 33.2434476,21.3402816 33.2414676,21.3402816 C32.7710196,21.3402816 32.3900676,21.7216296 32.3900676,22.1916816 L32.3900676,26.1326736 L32.3900676,26.3441376 L32.3900676,29.4776856 C32.3900676,29.9548656 32.7710196,30.3421536 33.2414676,30.3421536 L39.6946836,30.3421536 C40.1647356,30.3421536 40.5460836,29.9608056 40.5460836,29.4907536 C40.5460836,29.0207016 40.1647356,28.6393536 39.6946836,28.6393536" id="Fill-9" fill="#1B56D3"></path>
                            <path d="M39.09312,24.9906492 L36.700092,24.9906492 C36.503676,24.6972132 36.169452,24.5039652 35.790084,24.5039652 C35.185392,24.5039652 34.69554,24.9942132 34.69554,25.5989052 C34.69554,26.2032012 35.185392,26.6934492 35.790084,26.6934492 L39.09312,26.6934492 C39.563172,26.6934492 39.94452,26.3121012 39.94452,25.8420492 C39.94452,25.3716012 39.563172,24.9906492 39.09312,24.9906492" id="Fill-11" fill="#1B56D3"></path>
                            <path d="M51.649686,22.2267672 C51.650478,22.0323312 51.585534,21.8367072 51.450894,21.6763272 C51.34437,21.5496072 51.208542,21.4620912 51.061626,21.4149672 C51.056874,21.4133832 51.052518,21.4117992 51.047766,21.4102152 C51.029154,21.4046712 51.010146,21.3999192 50.991138,21.3955632 C50.98203,21.3931872 50.972922,21.3908112 50.963418,21.3888312 C50.947182,21.3856632 50.93055,21.3836832 50.914314,21.3813072 C50.902434,21.3797232 50.89095,21.3777432 50.879466,21.3765552 C50.862042,21.3749712 50.844222,21.3745752 50.826402,21.3737832 C50.817294,21.3737832 50.808186,21.3725952 50.799078,21.3725952 C50.797494,21.3725952 50.796306,21.3725952 50.795118,21.3725952 C50.769774,21.3725952 50.744034,21.3741792 50.718294,21.3765552 C50.716314,21.3769512 50.713938,21.3769512 50.711562,21.3769512 C50.547618,21.3935832 50.387238,21.4577352 50.25141,21.5713872 L47.488122,23.8883832 L47.488914,23.8875912 L47.488914,23.8879872 L47.488914,23.8875912 C47.302002,24.0748992 46.998666,24.0748992 46.811754,23.8875912 L46.812546,23.8883832 L44.048862,21.5713872 C43.91343,21.4577352 43.752654,21.3935832 43.589106,21.3769512 C43.58673,21.3769512 43.584354,21.3769512 43.581978,21.3765552 C43.556634,21.3741792 43.530894,21.3725952 43.50555,21.3725952 C43.503966,21.3725952 43.502778,21.3725952 43.50159,21.3725952 C43.492086,21.3725952 43.482978,21.3737832 43.47387,21.3737832 C43.456446,21.3745752 43.438626,21.3749712 43.421202,21.3765552 C43.409322,21.3777432 43.397838,21.3797232 43.386354,21.3813072 C43.369722,21.3836832 43.353486,21.3856632 43.336854,21.3888312 C43.327746,21.3908112 43.318638,21.3931872 43.309134,21.3955632 C43.290126,21.3999192 43.271118,21.4046712 43.252506,21.4102152 L43.239042,21.4149672 C43.092126,21.4620912 42.955902,21.5496072 42.849378,21.6763272 C42.714738,21.8371032 42.649794,22.0323312 42.650586,22.2267672 C42.650586,22.2299352 42.65019,22.2331032 42.65019,22.2362712 L42.65019,23.9244192 L42.65019,25.5785112 L42.65019,29.5147512 C42.65019,29.9844072 43.031538,30.3653592 43.50159,30.3653592 C43.971642,30.3653592 44.35299,29.9844072 44.35299,29.5147512 L44.35299,25.5785112 L44.35299,24.0475752 L45.825714,25.2823032 L46.59237,25.9250112 L46.621278,25.9491672 C46.766214,26.0647992 46.949958,26.1340992 47.150334,26.1340992 C47.350314,26.1340992 47.534058,26.0647992 47.67939,25.9491672 L47.707902,25.9254072 L48.474558,25.2823032 L49.947678,24.0475752 L49.947678,25.5785112 L49.947678,29.5147512 C49.947678,29.9844072 50.32863,30.3653592 50.799078,30.3653592 C51.26913,30.3653592 51.650082,29.9844072 51.650082,29.5147512 L51.650082,25.5785112 L51.650082,23.9244192 L51.650082,22.2362712 C51.650082,22.2331032 51.649686,22.2299352 51.649686,22.2267672" id="Fill-13" fill="#1B56D3"></path>
                            <path d="M62.2792368,29.1819132 L60.9720408,26.1030132 L59.4997128,22.6336572 L59.3725968,22.3342812 L59.3741808,22.3414092 C59.1524208,21.8662092 58.7156328,21.5117892 58.1885568,21.4036812 C58.0788648,21.3811092 57.9648168,21.3692292 57.8483928,21.3692292 C57.7319688,21.3692292 57.6183168,21.3807132 57.5086248,21.4032852 C56.9696688,21.5137692 56.5257528,21.8824452 56.3091408,22.3738812 L56.2897368,22.4190252 L54.5219928,26.5841532 L53.4191328,29.1819132 C53.2326168,29.6214732 53.4322008,30.1267692 53.8650288,30.3105132 C54.2978568,30.4938612 54.7999848,30.2867532 54.9865008,29.8471932 L56.2933008,26.7682932 L57.2104368,24.6081132 L57.8491848,23.1029172 L58.4879328,24.6077172 L59.2415208,26.3829852 L58.5750528,26.3829852 C58.3786368,26.0895492 58.0444128,25.8963012 57.6650448,25.8963012 C57.0603528,25.8963012 56.5701048,26.3865492 56.5701048,26.9908452 C56.5701048,27.5955372 57.0603528,28.0853892 57.6650448,28.0853892 L59.9642208,28.0853892 L60.7118688,29.8471932 C60.8983848,30.2867532 61.4005128,30.4938612 61.8333408,30.3105132 C62.2661688,30.1267692 62.4657528,29.6214732 62.2792368,29.1819132" id="Fill-15" fill="#1B56D3"></path>
                            <path d="M5.3807292,11.6014932 L2.7255492,11.6014932 L5.7094092,6.4332972 C5.9822532,5.9604732 5.8202892,5.3557812 5.3474652,5.0825412 C4.8742452,4.8096972 4.2695532,4.9716612 3.9963132,5.4444852 L0.1563012,12.0960972 C-0.0203148,12.4018092 -0.0203148,12.7788012 0.1563012,13.0849092 C0.3329172,13.3906212 0.6596172,13.5791172 1.0128492,13.5791172 L5.3807292,13.5791172 C5.9268132,13.5791172 6.3695412,13.1363892 6.3695412,12.5903052 C6.3695412,12.0442212 5.9268132,11.6014932 5.3807292,11.6014932" id="Fill-17" fill="#1B56D3"></path>
                            <path d="M0.500346,7.5432456 C0.65637,7.6331376 0.826254,7.6759056 0.994158,7.6759056 C1.33551,7.6759056 1.66815,7.4984976 1.851498,7.1813016 L4.74705,2.1659616 C5.019894,1.6927416 4.85793,1.0880496 4.385106,0.8148096 C3.911886,0.5423616 3.307194,0.7039296 3.033954,1.1767536 L0.138402,6.1924896 C-0.134838,6.6653136 0.027522,7.2704016 0.500346,7.5432456" id="Fill-19" fill="#1B56D3"></path>
                            <path d="M5.3807292,14.9881644 L0.9946332,14.9881644 C0.4485492,14.9881644 0.0058212,15.4308924 0.0058212,15.9769764 C0.0058212,16.5230604 0.4485492,16.9657884 0.9946332,16.9657884 L5.3807292,16.9657884 C5.9268132,16.9657884 6.3695412,16.5230604 6.3695412,15.9769764 C6.3695412,15.4308924 5.9268132,14.9881644 5.3807292,14.9881644" id="Fill-21" fill="#1B56D3"></path>
                            <path d="M18.3841416,11.9777724 L17.2876176,11.9777724 L17.2876176,10.7418564 C17.2876176,10.2920004 16.9232976,9.9272844 16.4734416,9.9272844 C16.0235856,9.9272844 15.6592656,10.2920004 15.6592656,10.7418564 L15.6592656,11.9777724 L14.4748296,11.9777724 L14.4748296,10.7418564 C14.4748296,10.2920004 14.1105096,9.9272844 13.6606536,9.9272844 C13.2107976,9.9272844 12.8464776,10.2920004 12.8464776,10.7418564 L12.8464776,11.9777724 L11.7483696,11.9777724 L11.7483696,9.9035244 C11.7483696,9.6465204 11.9566656,9.4382244 12.2136696,9.4382244 L17.9188416,9.4382244 C18.1758456,9.4382244 18.3841416,9.6465204 18.3841416,9.9035244 L18.3841416,11.9777724 Z M18.5583816,7.4712924 L11.5737336,7.4712924 C10.5781896,7.4712924 9.7707456,8.2787364 9.7707456,9.2746764 L9.7707456,16.1856684 C9.7707456,16.7539284 10.2495096,17.2097244 10.8252936,17.1725004 C11.3507856,17.1384444 11.7483696,16.6786884 11.7483696,16.1520084 L11.7483696,13.9553964 L12.8464776,13.9553964 L12.8464776,16.1856684 C12.8464776,16.6355244 13.2107976,17.0002404 13.6606536,17.0002404 C14.1105096,17.0002404 14.4748296,16.6355244 14.4748296,16.1856684 L14.4748296,13.9553964 L15.6592656,13.9553964 L15.6592656,16.1856684 C15.6592656,16.6355244 16.0235856,17.0002404 16.4734416,17.0002404 C16.9232976,17.0002404 17.2876176,16.6355244 17.2876176,16.1856684 L17.2876176,13.9553964 L18.3841416,13.9553964 L18.3841416,16.1520084 C18.3841416,16.6786884 18.7813296,17.1384444 19.3072176,17.1725004 C19.8830016,17.2097244 20.3617656,16.7539284 20.3617656,16.1856684 L20.3617656,9.2746764 C20.3617656,8.2787364 19.5547176,7.4712924 18.5583816,7.4712924 L18.5583816,7.4712924 Z" id="Fill-23" fill="#1B56D3"></path>
                            <path d="M18.37737,3.939804 C18.324702,4.34808 17.957214,4.6431 17.54577,4.6431 L10.129482,4.64508 C9.564786,4.64508 9.106614,4.187304 9.106614,3.622608 C9.106614,3.057516 9.564786,2.59974 10.129482,2.59974 C10.470834,2.59974 10.77219,2.767644 10.95831,3.024648 L17.573886,3.023064 C18.055818,3.023064 18.44073,3.445596 18.37737,3.939804 M17.573886,1.045044 L14.88465,1.045044 C14.88465,1.045044 14.705658,0.396 13.955238,0.396 C13.18977,0.396 13.029786,1.045044 13.029786,1.045044 L9.91683,1.045044 C8.377182,1.045044 7.12899,2.293236 7.12899,3.832884 L7.12899,7.177896 L7.12899,16.151652 C7.12899,16.678332 7.526574,17.138484 8.052066,17.17254 C8.62785,17.209764 9.106614,16.753572 9.106614,16.185708 L9.106614,7.08642 C9.106614,6.829416 9.315306,6.62112 9.57231,6.62112 L17.573886,6.62112 C19.113534,6.62112 20.361726,5.372928 20.361726,3.832884 C20.361726,2.293236 19.113534,1.045044 17.573886,1.045044" id="Fill-25" fill="#1B56D3"></path>
                            <path d="M57.3025464,1.7424792 L56.5905384,2.4544872 L55.7058744,0.9223632 C55.4425344,0.4661712 54.8683344,0.2665872 54.3963024,0.4998312 C53.8787304,0.7556472 53.6922144,1.3900392 53.9761464,1.8818712 L55.1427624,3.9022632 L52.7081544,6.3368712 C52.3220544,6.7229712 52.3220544,7.3490472 52.7081544,7.7351472 C52.9014024,7.9283952 53.1544464,8.0250192 53.4074904,8.0250192 C53.6605344,8.0250192 53.9135784,7.9283952 54.1068264,7.7351472 L56.1664224,5.6755512 L56.4669864,6.1962912 C56.4824304,6.2228232 56.4903504,6.2529192 56.4903504,6.2834112 L56.4903504,7.8658272 L52.7081544,11.6480232 C52.3220544,12.0341232 52.3220544,12.6601992 52.7081544,13.0462992 C52.9014024,13.2395472 53.1544464,13.3361712 53.4074904,13.3361712 C53.6605344,13.3361712 53.9135784,13.2395472 54.1068264,13.0462992 L56.4903504,10.6627752 L56.4903504,14.5459512 C56.4903504,14.8029552 56.2820544,15.0112512 56.0250504,15.0112512 L53.4074904,15.0112512 C52.8396264,15.0112512 52.3834344,15.4900152 52.4206584,16.0657992 C52.4547144,16.5916872 52.9144704,16.9888752 53.4415464,16.9888752 L56.3161104,16.9888752 C57.5045064,16.9888752 58.4683704,16.0254072 58.4683704,14.8366152 L58.4683704,8.6471352 L58.4683704,9.0173952 L58.4683704,6.2834112 C58.4683704,5.9064192 58.3685784,5.5341792 58.1796864,5.2074792 L57.6141984,4.2277752 L58.7012184,3.1411512 C59.0873184,2.7546552 59.0873184,2.1285792 58.7012184,1.7424792 C58.3147224,1.3563792 57.6890424,1.3563792 57.3025464,1.7424792" id="Fill-27" fill="#1B56D3"></path>
                            <path d="M71.77104,2.46312 L70.162884,2.46312 L70.162884,1.384812 C70.162884,0.838728 69.720156,0.396 69.173676,0.396 C68.627988,0.396 68.184864,0.838728 68.184864,1.384812 L68.184864,2.46312 L64.070424,2.46312 L64.070424,1.384812 C64.070424,0.838728 63.627696,0.396 63.081612,0.396 C62.535528,0.396 62.0928,0.838728 62.0928,1.384812 L62.0928,2.46312 L61.385544,2.46312 C61.184772,2.282148 60.919452,2.171268 60.627996,2.171268 C60.001128,2.171268 59.493456,2.679336 59.493456,3.306204 C59.493456,3.932676 60.001128,4.440744 60.627996,4.440744 L71.77104,4.440744 C72.317124,4.440744 72.759852,3.998016 72.759852,3.451932 C72.759852,2.905848 72.317124,2.46312 71.77104,2.46312" id="Fill-29" fill="#1B56D3"></path>
                            <path d="M70.4204424,14.2007976 C70.4204424,14.6819376 70.0291944,15.0731856 69.5480544,15.0731856 L62.7257664,15.0731856 C62.2446264,15.0731856 61.8533784,14.6819376 61.8533784,14.2007976 L61.8533784,8.7847056 C61.8533784,8.3035656 62.2446264,7.9119216 62.7257664,7.9119216 L69.5480544,7.9119216 C70.0291944,7.9119216 70.4204424,8.3035656 70.4204424,8.7847056 L70.4204424,14.2007976 Z M69.5480544,5.9342976 L62.7257664,5.9342976 C61.1540424,5.9342976 59.8757544,7.2129816 59.8757544,8.7847056 L59.8757544,14.1386256 C59.8757544,15.7103496 61.1540424,16.9890336 62.7257664,16.9890336 L69.5480544,16.9890336 C71.1197784,16.9890336 72.3984624,15.7103496 72.3984624,14.1386256 L72.3984624,8.7847056 C72.3984624,7.2129816 71.1197784,5.9342976 69.5480544,5.9342976 L69.5480544,5.9342976 Z" id="Fill-31" fill="#1B56D3"></path>
                            <path d="M68.6983968,10.5474996 L67.1258808,10.5474996 L67.1258808,9.3167316 C67.1258808,8.7706476 66.6831528,8.3279196 66.1366728,8.3279196 C65.5905888,8.3279196 65.1478608,8.7706476 65.1478608,9.3167316 L65.1478608,10.5474996 L63.5753448,10.5474996 C63.0292608,10.5474996 62.5865328,10.9902276 62.5865328,11.5363116 C62.5865328,12.0823956 63.0292608,12.5251236 63.5753448,12.5251236 L65.1478608,12.5251236 L65.1478608,13.7547036 C65.1478608,14.3011836 65.5905888,14.7439116 66.1366728,14.7439116 C66.6831528,14.7439116 67.1258808,14.3011836 67.1258808,13.7547036 L67.1258808,12.5251236 L68.6983968,12.5251236 C69.2444808,12.5251236 69.6876048,12.0823956 69.6876048,11.5363116 C69.6876048,10.9902276 69.2444808,10.5474996 68.6983968,10.5474996" id="Fill-33" fill="#1B56D3"></path>
                            <path d="M45.5753232,15.0223788 L42.0441912,15.0223788 L42.0441912,13.2245388 L45.0185472,13.2245388 C45.5646312,13.2245388 46.0073592,12.7818108 46.0073592,12.2357268 C46.0073592,11.6896428 45.5646312,11.2469148 45.0185472,11.2469148 L42.0441912,11.2469148 L42.0441912,9.4490748 L45.0185472,9.4490748 C45.5646312,9.4490748 46.0073592,9.0063468 46.0073592,8.4602628 C46.0073592,7.9141788 45.5646312,7.4714508 45.0185472,7.4714508 L37.9958832,7.4714508 C37.7951112,7.2904788 37.5297912,7.1795988 37.2383352,7.1795988 C36.6114672,7.1795988 36.1037952,7.6876668 36.1037952,8.3145348 C36.1037952,8.9410068 36.6114672,9.4490748 37.2383352,9.4490748 L40.0665672,9.4490748 L40.0665672,11.2469148 L37.9958832,11.2469148 C37.7951112,11.0659428 37.5297912,10.9550628 37.2383352,10.9550628 C36.6114672,10.9550628 36.1037952,11.4631308 36.1037952,12.0899988 C36.1037952,12.7164708 36.6114672,13.2245388 37.2383352,13.2245388 L40.0665672,13.2245388 L40.0665672,15.0223788 L37.4391072,15.0223788 C37.2379392,14.8414068 36.9730152,14.7305268 36.6815592,14.7305268 C36.0546912,14.7305268 35.5466232,15.2385948 35.5466232,15.8654628 C35.5466232,16.4919348 36.0546912,17.0000028 36.6815592,17.0000028 L45.5753232,17.0000028 C46.1214072,17.0000028 46.5641352,16.5572748 46.5641352,16.0111908 C46.5641352,15.4651068 46.1214072,15.0223788 45.5753232,15.0223788" id="Fill-35" fill="#1B56D3"></path>
                            <g transform="translate(35.244000, 0.126324)">
                                <mask id="mask-10" fill="white">
                                    <use xlink:href="#path-9"></use>
                                </mask>
                                <g id="Clip-38"></g>
                                <path d="M3.3032736,1.8222732 C3.6446256,1.8222732 3.9463776,1.9901772 4.1321016,2.2475772 L8.5320576,2.2475772 C8.9791416,2.2475772 9.3422736,2.6111052 9.3422736,3.0577932 C9.3422736,3.5044812 8.9791416,3.8680092 8.5320576,3.8680092 L3.3032736,3.8680092 C2.7385776,3.8680092 2.2804056,3.4098372 2.2804056,2.8451412 C2.2804056,2.2800492 2.7385776,1.8222732 3.3032736,1.8222732 M3.0906216,5.8456332 L8.5320576,5.8456332 C10.0721016,5.8456332 11.3202936,4.5974412 11.3202936,3.0577932 C11.3202936,1.5177492 10.0721016,0.2695572 8.5320576,0.2695572 L3.0906216,0.2695572 C1.5509736,0.2695572 0.3027816,1.5177492 0.3027816,3.0577932 C0.3027816,4.5974412 1.5509736,5.8456332 3.0906216,5.8456332" id="Fill-37" fill="#1B56D3" mask="url(#mask-10)"></path>
                            </g>
                            <path d="M27.0445032,8.320752 C26.5946472,8.320752 26.2299312,8.685468 26.2299312,9.135324 L26.2299312,16.187292 C26.2299312,16.636752 26.5946472,17.001468 27.0445032,17.001468 C27.4943592,17.001468 27.8586792,16.636752 27.8586792,16.187292 L27.8586792,9.135324 C27.8586792,8.685468 27.4943592,8.320752 27.0445032,8.320752" id="Fill-39" fill="#1B56D3"></path>
                            <path d="M33.7813344,8.320752 C33.3314784,8.320752 32.9671584,8.685468 32.9671584,9.135324 L32.9671584,16.187292 C32.9671584,16.636752 33.3314784,17.001468 33.7813344,17.001468 C34.2311904,17.001468 34.5959064,16.636752 34.5959064,16.187292 L34.5959064,9.135324 C34.5959064,8.685468 34.2311904,8.320752 33.7813344,8.320752" id="Fill-41" fill="#1B56D3"></path>
                            <path d="M33.6226176,2.6653572 L33.6226176,2.6649612 C33.6242016,2.6649612 33.6253896,2.6653572 33.6269736,2.6653572 C34.1746416,2.6653572 34.6185576,2.2214412 34.6185576,1.6737732 C34.6185576,1.1265012 34.1746416,0.6825852 33.6269736,0.6825852 C33.6253896,0.6825852 33.6242016,0.6829812 33.6226176,0.6829812 L33.6226176,0.6825852 L27.2236536,0.6825852 L27.2236536,0.6837732 C26.6759856,0.6837732 26.2324656,1.1272932 26.2324656,1.6749612 C26.2324656,2.2222332 26.6759856,2.6661492 27.2236536,2.6661492 C27.2268216,2.6661492 27.2295936,2.6653572 27.2327616,2.6653572 L29.4238296,2.6653572 L29.4238296,4.6453572 L27.2212776,4.6453572 L27.2212776,4.6461492 C26.6740056,4.6461492 26.2300896,5.0900652 26.2300896,5.6377332 C26.2300896,6.1850052 26.6740056,6.6289212 27.2212776,6.6289212 C27.2244456,6.6289212 27.2276136,6.6281292 27.2303856,6.6281292 L29.4238296,6.6281292 L29.4238296,16.1859852 C29.4238296,16.7316732 29.8669536,17.1747972 30.4130376,17.1747972 C30.9591216,17.1747972 31.4018496,16.7316732 31.4018496,16.1859852 L31.4018496,6.6281292 L33.6202416,6.6281292 L33.6202416,6.6277332 C33.6218256,6.6277332 33.6230136,6.6281292 33.6245976,6.6281292 C34.1722656,6.6281292 34.6161816,6.1842132 34.6161816,5.6365452 C34.6161816,5.0892732 34.1722656,4.6453572 33.6245976,4.6453572 C33.6230136,4.6453572 33.6218256,4.6453572 33.6202416,4.6453572 L33.6202416,4.6453572 L31.4018496,4.6453572 L31.4018496,2.6653572 L33.6226176,2.6653572 Z" id="Fill-43" fill="#1B56D3"></path>
                        </g>
                        <g id="编程猫" transform="translate(70.000000, 239.000000)">
                            <g id="blocks">
                                <path d="M29.6680186,1.42108547e-14 C39.5943464,1.42108547e-14 48.3820836,4.86949348 53.7677419,12.3474961 L178.53885,12.348 C191.581358,12.348 202.1544,22.9210419 202.1544,35.96355 C202.1544,49.0060581 191.581358,59.5791 178.53885,59.5791 L29.6352,59.5791 L29.6349855,59.270382 C13.2649757,59.2525636 0,45.9912687 0,29.6352 C0,13.268131 13.2828244,1.42108547e-14 29.6680186,1.42108547e-14 Z" id="Combined-Shape" fill="#FCC003"></path>
                                <circle id="Oval-2" fill="#FFFFFF" cx="28.5768" cy="29.6352" r="20.1096"></circle>
                                <path d="M25.893073,19.4561432 L38.1459835,27.738674 C39.2112203,28.4587361 39.4810781,29.8915173 38.7487279,30.9388804 C38.5863995,31.1710326 38.3820975,31.3719066 38.1459835,31.5315112 L25.893073,39.8140421 C24.8278363,40.5341042 23.370604,40.2687743 22.6382537,39.2214113 C22.3700049,38.837778 22.2264,38.3831741 22.2264,37.9176235 L22.2264,21.3525618 C22.2264,20.0815548 23.2743382,19.0512 24.5670355,19.0512 C25.040531,19.0512 25.5028929,19.1923953 25.893073,19.4561432 Z" id="Rectangle-4" fill="#FCC003"></path>
                                <text id="KITTEN" font-family="NotoSansCJKsc-Bold, Noto Sans CJK SC" font-size="25.4016" font-weight="bold" letter-spacing="2.60112379" fill="#FFFFFF">
                                    <tspan x="69.6384865" y="44.876">KITTE</tspan>
                                    <tspan x="155.826115" y="44.876">N  </tspan>
                                </text>
                            </g>
                        </g>
                        <g id="编组-18" transform="translate(108.000000, 99.000000)">
                            <g id="编组-17">
                                <g id="路径-15" transform="translate(38.905178, 86.788800)">
                                    <mask id="mask-12" fill="white">
                                        <use xlink:href="#path-11"></use>
                                    </mask>
                                    <use id="蒙版" fill="#FFFFFF" xlink:href="#path-11"></use>
                                    <path d="M27.7547687,20.8867286 C27.7151993,27.3426633 21.2272781,31.6038017 8.29100488,33.6701441 C-4.64526829,35.7364864 -4.64526829,33.6859051 8.29100488,27.5184 L27.7547687,20.8867286 Z" fill="#F8E8E8" mask="url(#mask-12)"></path>
                                    <path d="M7.66123212,32.7564774 C14.9661479,35.1033484 21.8681653,36.2767839 28.3672843,36.2767839 C34.8664032,36.2767839 41.8399769,34.7685226 49.2880053,31.752 L52.5201425,40.9203713 C43.901929,44.845485 35.8163681,46.8080418 28.2634597,46.8080418 C20.7105513,46.8080418 13.0699196,45.6841175 5.34156446,43.4362688 L7.66123212,32.7564774 Z" id="路径-16" fill="#F61249" mask="url(#mask-12)"></path>
                                </g>
                                <path d="M41.4020289,22.5792 C41.4020289,22.4921514 43.2216499,13.0313833 49.4413551,9.22257174 C55.6610603,5.4137602 63.0376822,8.41276469 67.2947804,6.72304477 C70.132846,5.59656482 71.9268525,3.3555499 72.6768,0 C75.7001275,2.39258633 77.7634156,5.46677691 78.8666646,9.22257174 C79.9699135,12.9783666 79.9699135,16.9282364 78.8666646,21.0721811 L66.6598933,27.9141687 L44.797696,26.9681399 C42.5339179,24.1002124 41.4020289,22.6372324 41.4020289,22.5792 Z" id="路径-11" fill="#FCC003"></path>
                                <path d="M54.3312,105.264468 C56.9655155,110.96499 60.9305949,113.815251 66.2264381,113.815251 C71.5222813,113.815251 77.4593667,109.510434 84.037694,100.9008 L54.3312,105.264468 Z" id="路径-14" fill="#F61249"></path>
                                <path d="M69.115035,25.935343 C83.3812783,12.7408074 93.5938554,6.77578859 99.7527664,8.0402866 C105.911677,9.30478461 107.794985,22.6182891 105.40269,47.9808 L69.115035,25.935343 Z" id="路径-6" fill="#FFFFFF"></path>
                                <path d="M75.1464,27.9141687 C88.1657096,17.5725104 95.7616879,13.3288919 97.9343348,15.1833133 C100.106982,17.0377347 100.834828,26.7942303 100.117873,44.4528 L75.1464,27.9141687 Z" id="路径-7" fill="#FF7597"></path>
                                <path d="M6.12292602,40.266073 C24.0450751,23.556022 35.9832909,16.7554945 41.9375734,19.8644905 C47.891856,22.9734866 49.7751639,36.286991 47.5874973,59.8050039 L6.12292602,40.266073 Z" id="路径-6备份" fill="#FFFFFF" transform="translate(27.296066, 39.468968) rotate(-67.000000) translate(-27.296066, -39.468968) "></path>
                                <path d="M17.5198917,36.0998082 C30.5392013,25.7581499 38.1351796,21.5145314 40.3078265,23.3689528 C42.4804734,25.2233742 43.2083196,34.9798698 42.4913651,52.6384395 L17.5198917,36.0998082 Z" id="路径-7备份" fill="#FF7597" transform="translate(30.139044, 37.792222) rotate(-67.000000) translate(-30.139044, -37.792222) "></path>
                                <mask id="mask-14" fill="white">
                                    <use xlink:href="#path-13"></use>
                                </mask>
                                <use id="蒙版" fill="#F61249" xlink:href="#path-13"></use>
                                <path d="M15.5888372,88.5528 L23.1281523,88.5528 C28.7467386,88.8236741 35.8173116,87.6542684 44.3398714,85.0445826 C52.8624313,82.4348969 60.1880563,79.1960553 66.3167467,75.3280577 C75.2602243,78.058889 82.4098261,79.552882 87.7655523,79.8100366 C93.1212784,80.0671913 102.158921,79.3358457 114.878479,77.616 L100.384705,102.237182 L61.5809889,114.3072 L29.1640097,104.454991 L15.5888372,88.5528 Z" id="路径-9" fill="#FFFFFF" mask="url(#mask-14)"></path>
                                <polygon id="路径-17" fill="#FCC003" mask="url(#mask-14)" points="43.7472 40.9534178 61.4359244 50.6433359 77.4758273 37.8208395 58.6646748 29.6352"></polygon>
                                <circle id="椭圆形" fill="#FDD313" mask="url(#mask-14)" cx="67.7376" cy="127.7136" r="7.056"></circle>
                                <polyline id="路径-8" stroke="#741108" stroke-width="2.8224" stroke-linecap="round" stroke-linejoin="round" mask="url(#mask-14)" points="93.9337853 53.439989 77.6203941 67.4333886 97.6331571 67.4333886"></polyline>
                                <polyline id="路径-8备份" stroke="#741108" stroke-width="2.8224" stroke-linecap="round" stroke-linejoin="round" mask="url(#mask-14)" transform="translate(41.402029, 72.061844) rotate(200.000000) translate(-41.402029, -72.061844) " points="47.7090385 65.0651444 31.3956474 79.0585439 51.4084104 79.0585439"></polyline>
                                <path d="M40.4942609,113.880998 C43.9858853,124.276354 64.3301345,114.926724 67.1646118,111.413772 C69.0542633,109.071803 69.0542633,106.261394 67.1646118,102.982545 C70.4756858,101.89199 71.4205115,100.442451 69.9990891,98.6339276 C67.8669554,95.9211421 37.0026365,103.485641 40.4942609,113.880998 Z" id="路径-13" fill="#F8E8E8" mask="url(#mask-14)"></path>
                            </g>
                            <g id="路径-9" transform="translate(38.788693, 97.091529)" fill="#FFFFFF">
                                <path d="M0.294367572,16.0891665 C3.78599199,26.4845228 24.1302412,17.1348932 26.9647185,13.6219403 C28.85437,11.2799718 28.85437,8.46956293 26.9647185,5.19071386 C30.2757925,4.10015922 31.2206182,2.65062006 29.7991958,0.842096374 C27.6670621,-1.87068915 -3.19725684,5.69381024 0.294367572,16.0891665 Z" id="路径-13"></path>
                            </g>
                            <g id="椭圆形" transform="translate(57.153600, 85.997143)">
                                <mask id="mask-16" fill="white">
                                    <use xlink:href="#path-15"></use>
                                </mask>
                                <use id="蒙版" fill="#BD0D37" xlink:href="#path-15"></use>
                                <ellipse fill="#FF7597" mask="url(#mask-16)" cx="11.6424" cy="11.3756568" rx="10.2312" ry="4.2336"></ellipse>
                            </g>
                            <g id="编组-8" transform="translate(60.681600, 73.382400)">
                                <path d="M5.77694454,7.38054237 C8.4113924,7.06822337 11.5837262,1.98424283 10.2355847,0.649624737 C8.88744321,-0.684993353 1.2707831,0.19755081 0.181797583,1.84152108 C-0.907187938,3.48549135 3.14249668,7.69286137 5.77694454,7.38054237 Z" id="路径-10" fill="#FCC003"></path>
                                <circle id="椭圆形" fill="#FCC003" cx="7.056" cy="55.0368" r="6.3504"></circle>
                                <polygon id="路径-5" fill="#FF8600" transform="translate(7.056000, 56.448000) rotate(-1.000000) translate(-7.056000, -56.448000) " points="1.4112 52.2144 7.03787898 60.6816 12.7008 52.2144 7.056 54.4096"></polygon>
                            </g>
                        </g>
                    </g>
                </g>
                <rect id="矩形" mask="url(#mask-2)" transform="translate(279.500000, 204.000000) scale(-1, 1) translate(-279.500000, -204.000000) " x="279" y="0" width="1" height="408"></rect>
            </g>
        </g>
    </g>
</svg>