<?xml version="1.0" encoding="UTF-8"?>
<svg width="44px" height="44px" viewBox="0 0 44 44" version="1.1" xmlns="http://www.w3.org/2000/svg" xmlns:xlink="http://www.w3.org/1999/xlink">
    <!-- Generator: Sketch 59 (86127) - https://sketch.com -->
    <title>弹窗/对话框标题</title>
    <desc>Created with Sketch.</desc>
    <defs>
        <path d="M0,0 L308,0 C314.627417,-1.21743675e-15 320,5.372583 320,12 L320,628 C320,634.627417 314.627417,640 308,640 L0,640 L0,640 L0,0 Z" id="path-1"></path>
        <filter x="-1.7%" y="-1.0%" width="104.1%" height="102.0%" filterUnits="objectBoundingBox" id="filter-2">
            <feOffset dx="1" dy="0" in="SourceAlpha" result="shadowOffsetOuter1"></feOffset>
            <feGaussianBlur stdDeviation="2" in="shadowOffsetOuter1" result="shadowBlurOuter1"></feGaussianBlur>
            <feComposite in="shadowBlurOuter1" in2="SourceAlpha" operator="out" result="shadowBlurOuter1"></feComposite>
            <feColorMatrix values="0 0 0 0 0.129411765   0 0 0 0 0.137254902   0 0 0 0 0.149019608  0 0 0 0.25 0" type="matrix" in="shadowBlurOuter1"></feColorMatrix>
        </filter>
        <path d="M0,8.00319663 C0,3.58315318 3.57892786,0 8.00255469,0 L371.997445,0 C376.417134,0 380,3.58178617 380,8.00631951 L380,100.575557 C380,104.997325 380,112.162187 380,116.591275 L380,271.990602 C380,276.41407 376.421072,280 371.997445,280 L8.00255469,280 C3.58286577,280 0,276.408735 0,271.996803 L0,8.00319663 Z" id="path-3"></path>
        <filter x="-4.5%" y="-4.6%" width="108.9%" height="112.1%" filterUnits="objectBoundingBox" id="filter-5">
            <feOffset dx="0" dy="4" in="SourceAlpha" result="shadowOffsetOuter1"></feOffset>
            <feGaussianBlur stdDeviation="5" in="shadowOffsetOuter1" result="shadowBlurOuter1"></feGaussianBlur>
            <feColorMatrix values="0 0 0 0 0.0431372549   0 0 0 0 0.0941176471   0 0 0 0 0.149019608  0 0 0 0.25 0" type="matrix" in="shadowBlurOuter1"></feColorMatrix>
        </filter>
    </defs>
    <g id="积木/声音" stroke="none" stroke-width="1" fill="none" fill-rule="evenodd">
        <g id="声音积木-录音" transform="translate(-697.000000, -328.000000)">
            <rect id="地板" fill="#F5F9FF" x="0" y="0" width="1440" height="701"></rect>
            <g id="网格" transform="translate(-1.000000, 0.000000)" stroke="#979797" stroke-linecap="square" stroke-opacity="0.345170455">
                <line x1="720.5" y1="0.5" x2="720.5" y2="709.5" id="直线-11" opacity="0.3"></line>
                <line x1="700" y1="0.5" x2="700" y2="709.5" id="直线-11备份" opacity="0.1"></line>
                <line x1="740.5" y1="0.5" x2="740.5" y2="709.5" id="直线-11备份-34" opacity="0.1"></line>
                <line x1="1440.5" y1="340" x2="0.5" y2="340" id="直线-12备份-15" opacity="0.1"></line>
                <line x1="1440.5" y1="360" x2="0.5" y2="360" id="直线-12备份-17" opacity="0.3"></line>
            </g>
            <g id="声音积木展开" transform="translate(509.000000, 60.000000)">
                <g id="矩形">
                    <use fill="black" fill-opacity="1" filter="url(#filter-2)" xlink:href="#path-1"></use>
                    <use fill-opacity="0.9" fill="#DBEAFF" fill-rule="evenodd" xlink:href="#path-1"></use>
                </g>
                <g id="声音积木" transform="translate(16.500000, 52.000000)">
                    <g id="编组-21" transform="translate(0.000000, 167.000000)">
                        <g id="声音最长" transform="translate(0.000000, 88.000000)" fill="#A073FF" stroke="#7E5BC9" stroke-width="0.8">
                            <path d="M0,6.44258266e-13 L246.405252,-3.87756809e-13 C255.238907,-4.24754664e-13 262.4,7.16150109 262.4,16 L262.4,16 C262.4,24.836556 255.245347,32 246.405252,32 L0,32 L0,6.44258266e-13 Z" id="Rectangle-779"></path>
                        </g>
                        <g id="block_6备份" transform="translate(0.000000, 40.000000)">
                            <path d="M0,6.01625702e-13 L168.803885,-2.98404808e-13 C177.638296,-3.45508218e-13 184.8,7.16150109 184.8,16 L184.8,16 C184.8,24.836556 177.640622,32 168.803885,32 L0,32 L0,6.01625702e-13 Z" id="Rectangle-779" stroke="#7E5BC9" stroke-width="0.8" fill="#A073FF"></path>
                            <text id="直到结束" font-family="PingFangSC-Regular, PingFang SC" font-size="12.8" font-weight="normal" line-spacing="12.8" letter-spacing="-0.480000019" fill="#FFFFFF">
                                <tspan x="122.4" y="22.8">直到结束</tspan>
                            </text>
                        </g>
                    </g>
                </g>
            </g>
            <rect id="矩形" fill-opacity="0.6" fill="#212326" x="0" y="0" width="1441" height="701"></rect>
            <g id="弹窗/对话框标题" transform="translate(530.000000, 210.000000)">
                <mask id="mask-4" fill="white">
                    <use xlink:href="#path-3"></use>
                </mask>
                <g id="bg">
                    <use fill="black" fill-opacity="1" filter="url(#filter-5)" xlink:href="#path-3"></use>
                    <use fill="#FFFFFF" fill-rule="evenodd" xlink:href="#path-3"></use>
                </g>
                <circle id="椭圆形" fill="#FFCDC7" mask="url(#mask-4)" cx="189" cy="140" r="48"></circle>
                <circle id="椭圆形" fill="#FF472E" mask="url(#mask-4)" cx="189" cy="140" r="40"></circle>
                <g id="luyinliebiao" mask="url(#mask-4)" fill="#FFFFFF" fill-rule="nonzero">
                    <g transform="translate(167.000000, 118.000000)" id="形状">
                        <path d="M36.3740731,18.3285278 L36.3740731,21.4063282 C36.3740731,24.9504154 35.1292392,28.0297547 32.6477365,30.6505018 C30.1646172,33.2727877 27.0946669,34.7778321 23.4411189,35.1594793 L23.4411189,38.3342305 L29.9075755,38.3342305 C30.3364739,38.3305396 30.7478528,38.4959822 31.0440553,38.7912838 C31.3542696,39.0732473 31.5280669,39.4648504 31.5241897,39.8731307 C31.5280669,40.281411 31.3542696,40.6730141 31.0440553,40.9549775 C30.7478528,41.2502792 30.3364739,41.4157217 29.9075755,41.4120913 L13.7414341,41.4120913 C13.3125357,41.4157217 12.9011568,41.2502792 12.6049543,40.9549775 C12.2947401,40.6730141 12.1209427,40.281411 12.1248199,39.8731307 C12.1204943,39.4643172 12.2943278,39.0720753 12.6049543,38.7897449 C12.901435,38.4950099 13.3127778,38.3301389 13.7414341,38.3342305 L20.2078907,38.3342305 L20.2078907,35.1625572 C16.5543427,34.7778321 13.4843924,33.2743266 11.0012731,30.6535796 C8.51977039,28.0282158 7.27489862,24.9488765 7.27489862,21.4063282 L7.27489862,18.3285278 C7.2706518,17.9197143 7.44448536,17.5274725 7.75511187,17.2451421 C8.05131437,16.9498404 8.46269327,16.7843979 8.89159162,16.7880137 C9.32105007,16.783971 9.7331,16.949448 10.029688,17.2451421 C10.3399023,17.5271055 10.5136996,17.9187086 10.5098224,18.3269889 L10.5098224,21.4063282 C10.5098224,24.3717889 11.6172031,26.9078964 13.8287312,29.0177286 C16.041876,31.1275608 18.710906,32.1786297 21.8245048,32.1786297 C24.9397203,32.1786297 27.6039004,31.124483 29.8202784,29.0177286 C32.0318065,26.9125132 33.1391872,24.3717889 33.1391872,21.4063282 L33.1391872,18.3285278 C33.1348616,17.9197144 33.3086951,17.5274725 33.6193216,17.2451421 C33.9159096,16.949448 34.3279595,16.783971 34.757418,16.7880137 C35.1863163,16.7843979 35.5976952,16.9498404 35.8938977,17.2451421 C36.2034643,17.5275307 36.3771376,17.9188543 36.3740731,18.3269889 M29.9059589,9.39555118 L29.9059589,21.5224448 C29.9059589,23.6080098 29.113818,25.3904404 27.5327693,26.8757992 C25.9484875,28.361158 24.0489658,29.0992904 21.8245048,29.0992904 C19.6000438,29.0992904 17.7005221,28.356611 16.1162403,26.8757992 C14.5319584,25.3904404 13.7414341,23.6080098 13.7414341,21.5224448 L13.7414341,9.39706687 C13.7414341,7.30998618 14.533575,5.52907129 16.1146236,4.04371248 C17.7005221,2.56138505 19.6000437,1.81870565 21.8245048,1.81870565 C24.0489659,1.81870565 25.9484875,2.56138505 27.5327693,4.04371248 C29.1154346,5.52907129 29.9075755,7.31453321 29.9075755,9.39555118"></path>
                    </g>
                </g>
            </g>
        </g>
    </g>
</svg>