<?xml version="1.0" encoding="UTF-8"?>
<svg width="348px" height="174px" viewBox="0 0 348 174" version="1.1" xmlns="http://www.w3.org/2000/svg" xmlns:xlink="http://www.w3.org/1999/xlink">
    <!-- Generator: Sketch 52.5 (67469) - http://www.bohemiancoding.com/sketch -->
    <title>ide-hardware@3x</title>
    <desc>Created with Sketch.</desc>
    <g id="ide-hardware" stroke="none" stroke-width="1" fill="none" fill-rule="evenodd">
        <g id="Group-6" transform="translate(38.000000, 20.000000)" fill="#FFFFFF" fill-rule="nonzero">
            <path d="M3.66371684,2.94620242 C4.57075997,2.19884328 5.7329635,1.75 7,1.75 C9.89949494,1.75 12.25,4.10050506 12.25,7 L10.75,7 C10.75,4.92893219 9.07106781,3.25 7,3.25 C6.14739882,3.25 5.36125446,3.53453544 4.73134383,4.01382941 L3.66371684,2.94620242 Z" id="Combined-Shape"></path>
            <path d="M9.25485302,7.25740099 C8.89472512,6.83909997 9.04883672,6.5 9.59294762,6.5 L13.2971167,6.5 C13.843969,6.5 13.9938152,6.84087009 13.6352113,7.25740099 L12.0971013,9.0439691 C11.7369734,9.4622701 11.1515669,9.4605 10.7929629,9.0439691 L9.25485302,7.25740099 Z" id="Rectangle-9"></path>
            <path d="M10.3362832,11.0537976 C9.42924003,11.8011567 8.2670365,12.25 7,12.25 C4.10050506,12.25 1.75,9.89949494 1.75,7 L3.25,7 C3.25,9.07106781 4.92893219,10.75 7,10.75 C7.85260118,10.75 8.63874554,10.4654646 9.26865617,9.98617059 L10.3362832,11.0537976 Z" id="Combined-Shape"></path>
            <path d="M0.364838374,5.40036958 C0.00471047357,4.98206856 0.158822074,4.64296859 0.702932974,4.64296859 L4.40710207,4.64296859 C4.95395437,4.64296859 5.10380057,4.98383868 4.74519667,5.40036958 L3.20708667,7.18693769 C2.84695877,7.60523869 2.26155227,7.60346859 1.90294827,7.18693769 L0.364838374,5.40036958 Z" id="Rectangle-9" transform="translate(2.555032, 6.071484) scale(-1, -1) translate(-2.555032, -6.071484) "></path>
        </g>
        <g id="icn_error" transform="translate(1.000000, 1.000000)">
            <path d="M8,16 C3.58191304,16 0,12.4182427 0,8.00034781 C0,3.58245294 3.58191304,-5.32907052e-15 8,-5.32907052e-15 C12.418087,-5.32907052e-15 16,3.58245294 16,8.00034781 C16,12.4182427 12.418087,16 8,16 L8,16 Z" id="Close-Circle-Icon" fill="#4A90E2"></path>
            <path d="M8.90571826,8.610462 L8.90524654,10.5157085 L8.90524654,11.5207204 C8.90571826,12.0466797 8.4788185,12.4735795 7.95238742,12.4735795 C7.42642805,12.4740512 7,12.0476232 7,11.5211921 L7,10.5161803 L7,8.610462 L7.00047171,6.66747846 C7,6.14151909 7.42642805,5.71509104 7.95285913,5.71509104 C8.4788185,5.71556276 8.90524654,6.1419908 8.90571826,6.66795017 L8.90571826,8.610462 Z M7.95247588,3 C8.47024283,3 8.88997588,3.41973305 8.88997588,3.9375 C8.88997588,4.45526695 8.47024283,4.875 7.95247588,4.875 C7.43470893,4.875 7.01497588,4.45526695 7.01497588,3.9375 C7.01497588,3.41973305 7.43470893,3 7.95247588,3 Z" id="Combined-Shape" fill="#FFFFFF"></path>
        </g>
        <g id="icn_error" transform="translate(0.000000, 1.000000)">
            <path d="M27,16 C22.581913,16 19,12.4182427 19,8.00034781 C19,3.58245294 22.581913,-5.32907052e-15 27,-5.32907052e-15 C31.418087,-5.32907052e-15 35,3.58245294 35,8.00034781 C35,12.4182427 31.418087,16 27,16 L27,16 Z" id="Close-Circle-Icon" fill="#F7596C"></path>
            <path d="M41.0710678,13.0710678 L50.0710678,13.0710678 C50.6233526,13.0710678 51.0710678,13.5187831 51.0710678,14.0710678 C51.0710678,14.6233526 50.6233526,15.0710678 50.0710678,15.0710678 L40.0710678,15.0710678 C39.5187831,15.0710678 39.0710678,14.6233526 39.0710678,14.0710678 L39.0710678,8.07106781 C39.0710678,7.51878306 39.5187831,7.07106781 40.0710678,7.07106781 C40.6233526,7.07106781 41.0710678,7.51878306 41.0710678,8.07106781 L41.0710678,13.0710678 Z" id="Combined-Shape" fill="#F5A623" transform="translate(45.071068, 11.071068) rotate(-45.000000) translate(-45.071068, -11.071068) "></path>
            <path d="M10.6092534,24.5110959 L15.5569491,29.4587916 C16.1493737,30.0512161 16.1451446,30.9965135 15.5594944,31.5821637 C14.9697612,32.1718969 14.0231782,32.1666742 13.4361223,31.5796184 L8.48842661,26.6319226 L3.54073088,31.5796184 C2.953675,32.1666742 2.00709199,32.1718969 1.4173588,31.5821637 C0.831708659,30.9965135 0.827479574,30.0512161 1.41990411,29.4587916 L6.36759984,24.5110959 L1.41990411,19.5634001 C0.827479574,18.9709756 0.831708659,18.0256782 1.4173588,17.4400281 C2.00709199,16.8502949 2.953675,16.8555175 3.54073088,17.4425734 L8.48842661,22.3902691 L13.4361223,17.4425734 C14.0231782,16.8555175 14.9697612,16.8502949 15.5594944,17.4400281 C16.1451446,18.0256782 16.1493737,18.9709756 15.5569491,19.5634001 L10.6092534,24.5110959 Z" id="Combined-Shape" fill="#968771"></path>
            <g id="icn_drop" transform="translate(38.000000, 0.000000)" fill="#965E21" opacity="0.600000024">
                <path d="M1.11595029,0.694752157 C0.724728588,0.311051136 0.859947315,0 1.40028077,0 L10.601074,0 C11.1493271,0 11.2770395,0.310645712 10.8854045,0.694752157 L6.70904694,4.79082515 C6.31782523,5.17452617 5.6839429,5.1749316 5.29230783,4.79082515 L1.11595029,0.694752157 Z" id="Rectangle-9"></path>
            </g>
            <g id="icn_drop-copy" transform="translate(52.000000, 0.000000)" fill="#965E21" opacity="0.600000024">
                <path d="M1.11595029,1.69475216 C0.724728588,1.31105114 0.859947315,1 1.40028077,1 L10.601074,1 C11.1493271,1 11.2770395,1.31064571 10.8854045,1.69475216 L6.70904694,5.79082515 C6.31782523,6.17452617 5.6839429,6.1749316 5.29230783,5.79082515 L1.11595029,1.69475216 Z" id="Rectangle-9" transform="translate(6.000000, 3.493002) rotate(180.000000) translate(-6.000000, -3.493002) "></path>
            </g>
            <path d="M29.9028282,5.09806071 C29.505769,4.7017131 28.8625046,4.7017131 28.4654455,5.09806071 L27.0003113,6.56319488 L25.5351771,5.09806071 C25.1381179,4.7017131 24.4948536,4.7017131 24.0977944,5.09806071 C23.7007352,5.4951199 23.7007352,6.13838424 24.0977944,6.53473186 L25.5629286,8.0005776 L24.0977944,9.46571177 C23.7007352,9.86205939 23.7007352,10.5060353 24.0977944,10.9030945 C24.4948536,11.3001537 25.1381179,11.3001537 25.5351771,10.9030945 L27.0003113,9.43796033 L28.4654455,10.9030945 C28.8625046,11.3001537 29.505769,11.3001537 29.9021166,10.9030945 C30.2991758,10.5060353 30.2991758,9.86205939 29.9021166,9.46571177 L28.4369824,8.0005776 L29.9021166,6.53473186 C30.2991758,6.13838424 30.2991758,5.4951199 29.9028282,5.09806071 L29.9028282,5.09806071 Z" id="path-1-path" fill="#FFFFFF"></path>
        </g>
        <polyline id="Rectangle-14" stroke="#FFFFFF" stroke-width="2.5" stroke-linecap="round" stroke-linejoin="round" transform="translate(26.885863, 21.989219) rotate(-45.000000) translate(-26.885863, -21.989219) " points="32.384292 24.3237082 21.387434 24.9608248 21.4714534 19.0176133"></polyline>
        <g id="Group-3" transform="translate(55.000000, 9.000000)">
            <rect id="Rectangle-11" fill="#3B99FC" x="0" y="0" width="14" height="14" rx="2"></rect>
            <polygon id="Combined-Shape" fill="#FFFFFF" fill-rule="nonzero" points="5.92820323 8.46666183 10.4696699 3.92519515 11.5303301 4.98585532 5.92820323 10.5879822 2.46966991 7.12944886 3.53033009 6.06878869"></polygon>
        </g>
        <path d="M16.7140142,56.8853288 L7.6038642,66.9038786 L6.9076737,67.6711636 C6.50985055,68.1096121 5.89322468,68.1096121 5.49540153,67.6711636 L1.29836736,63.0455312 C0.900544214,62.6070826 0.900544214,61.9274874 1.29836736,61.4890388 C1.6961905,61.0505902 2.31281638,61.0505902 2.71063952,61.4890388 L5.49540153,64.5801012 C5.89322468,65.0185497 6.50985055,65.0185497 6.9076737,64.5801012 L15.3216332,55.3288364 C15.7194563,54.8903879 16.3360822,54.8903879 16.7339054,55.3288364 C17.0919462,55.767285 17.0919462,56.4468803 16.7140142,56.8853288 Z" id="Shape" fill="#5CD624" fill-rule="nonzero"></path>
        <g id="alerts" transform="translate(1.000000, 35.000000)">
            <circle id="Oval-4" fill="#FF7875" cx="9" cy="9" r="8.25"></circle>
            <path d="M9,3.75 C9.41421356,3.75 9.75,4.08578644 9.75,4.5 L9.75,10.5 C9.75,10.9142136 9.41421356,11.25 9,11.25 C8.58578644,11.25 8.25,10.9142136 8.25,10.5 L8.25,4.5 C8.25,4.08578644 8.58578644,3.75 9,3.75 Z M9,12.75 C9.41421356,12.75 9.75,13.0857864 9.75,13.5 C9.75,13.9142136 9.41421356,14.25 9,14.25 C8.58578644,14.25 8.25,13.9142136 8.25,13.5 C8.25,13.0857864 8.58578644,12.75 9,12.75 Z" id="Combined-Shape" fill="#FFFFFF"></path>
        </g>
        <g id="icn_selsct" transform="translate(55.000000, 26.000000)">
            <path d="M0,3.99005301 C0,1.78640758 1.78429328,0 3.99005301,0 L24,0 L24,24 L0,24 L0,3.99005301 Z" id="Rectangle-7" fill="#60A1F0"></path>
            <polyline id="Rectangle-14" stroke="#FFFFFF" stroke-width="3" stroke-linecap="round" stroke-linejoin="round" transform="translate(12.683013, 11.183013) rotate(-60.000000) translate(-12.683013, -11.183013) " points="18.5669873 14.3839746 6.79903811 14.25 8.0669873 7.98205081"></polyline>
        </g>
        <g id="状态灯" transform="translate(71.000000, 15.000000)">
            <circle id="Oval" fill="#ABE56B" cx="4" cy="4" r="4"></circle>
            <circle id="Oval" fill="#01C210" cx="4" cy="4" r="2"></circle>
        </g>
        <g id="状态灯" transform="translate(71.000000, 3.000000)">
            <circle id="Oval" fill="#FFAB98" cx="4" cy="4" r="4"></circle>
            <circle id="Oval" fill="#FF2E00" cx="4" cy="4" r="2"></circle>
        </g>
        <g id="btn_remove" opacity="0.497056159" transform="translate(38.000000, 37.000000)" stroke="#968771">
            <path d="M10.3731261,10.2643556 L6.67701622,6.56824569 L10.3731261,2.87213579 C10.3914285,2.85383342 10.3914111,2.82587815 10.3732562,2.80772327 C10.3587369,2.79320397 10.3236816,2.79301542 10.3088437,2.80785335 L6.61273379,6.50396326 L2.91662388,2.80785335 C2.89832151,2.78955098 2.87036625,2.78956838 2.85221136,2.80772327 C2.83769207,2.82224256 2.83750351,2.85729785 2.85234145,2.87213579 L6.54845135,6.56824569 L2.85234145,10.2643556 C2.83403908,10.282658 2.83405648,10.3106132 2.85221136,10.3287681 C2.86673065,10.3432874 2.90178594,10.343476 2.91662388,10.328638 L6.61273379,6.63252813 L10.3088437,10.328638 C10.3271461,10.3469404 10.3551013,10.346923 10.3732562,10.3287681 C10.3877755,10.3142488 10.3879641,10.2791935 10.3731261,10.2643556 Z" id="Combined-Shape"></path>
        </g>
        <g id="状态灯" transform="translate(82.000000, 3.000000)">
            <circle id="Oval" fill="#F8E71C" cx="4" cy="4" r="4"></circle>
            <circle id="Oval" fill="#F5A623" cx="4" cy="4" r="2"></circle>
        </g>
        <path d="M24.5134725,38 L31.6850453,38 C32.2373301,38 32.6850453,38.4477153 32.6850453,39 C32.6850453,39.2652165 32.5796885,39.5195704 32.3921521,39.7071068 L28.8063657,43.2928932 C28.4158414,43.6834175 27.7826764,43.6834175 27.3921521,43.2928932 L23.8063657,39.7071068 C23.4158414,39.3165825 23.4158414,38.6834175 23.8063657,38.2928932 C23.9939021,38.1053568 24.248256,38 24.5134725,38 Z" id="Rectangle" fill-opacity="0.2" fill="#8B5C2B"></path>
        <path d="M24.4632711,68 L31.6348439,68 C32.1871287,68 32.6348439,68.4477153 32.6348439,69 C32.6348439,69.2652165 32.5294871,69.5195704 32.3419507,69.7071068 L28.7561643,73.2928932 C28.36564,73.6834175 27.732475,73.6834175 27.3419507,73.2928932 L23.7561643,69.7071068 C23.36564,69.3165825 23.36564,68.6834175 23.7561643,68.2928932 C23.9437007,68.1053568 24.1980546,68 24.4632711,68 Z" id="Rectangle-Copy-3" fill-opacity="0.2" fill="#8B5C2B" opacity="0.503976004"></path>
        <path d="M24.3768427,53.0710436 L31.5484156,53.0710436 C32.1007004,53.0710436 32.5484156,53.5187589 32.5484156,54.0710436 C32.5484156,54.3362601 32.4430588,54.590614 32.2555224,54.7781504 L28.669736,58.3639369 C28.2792117,58.7544611 27.6460467,58.7544611 27.2555224,58.3639369 L23.669736,54.7781504 C23.2792117,54.3876261 23.2792117,53.7544611 23.669736,53.3639369 C23.8572723,53.1764005 24.1116262,53.0710436 24.3768427,53.0710436 Z" id="Rectangle-Copy" fill-opacity="0.2" fill="#8B5C2B" transform="translate(27.962629, 55.863937) rotate(-180.000000) translate(-27.962629, -55.863937) "></path>
        <path d="M63.0710678,67.0710678 L72.0710678,67.0710678 C72.6233526,67.0710678 73.0710678,67.5187831 73.0710678,68.0710678 C73.0710678,68.6233526 72.6233526,69.0710678 72.0710678,69.0710678 L62.0710678,69.0710678 C61.5187831,69.0710678 61.0710678,68.6233526 61.0710678,68.0710678 L61.0710678,62.0710678 C61.0710678,61.5187831 61.5187831,61.0710678 62.0710678,61.0710678 C62.6233526,61.0710678 63.0710678,61.5187831 63.0710678,62.0710678 L63.0710678,67.0710678 Z" id="Combined-Shape" fill="#7ED321" transform="translate(67.071068, 65.071068) rotate(-45.000000) translate(-67.071068, -65.071068) "></path>
        <g id="icn_close" transform="translate(55.000000, 82.000000)" fill="#F9E2BA">
            <g id="Combined-Shape">
                <path d="M13.4142136,12 L19.0710678,6.34314575 C19.4615921,5.95262146 19.4615921,5.31945648 19.0710678,4.92893219 C18.6805435,4.5384079 18.0473785,4.5384079 17.6568542,4.92893219 L12,10.5857864 L6.34314575,4.92893219 C5.95262146,4.5384079 5.31945648,4.5384079 4.92893219,4.92893219 C4.5384079,5.31945648 4.5384079,5.95262146 4.92893219,6.34314575 L10.5857864,12 L4.92893219,17.6568542 C4.5384079,18.0473785 4.5384079,18.6805435 4.92893219,19.0710678 C5.31945648,19.4615921 5.95262146,19.4615921 6.34314575,19.0710678 L12,13.4142136 L17.6568542,19.0710678 C18.0473785,19.4615921 18.6805435,19.4615921 19.0710678,19.0710678 C19.4615921,18.6805435 19.4615921,18.0473785 19.0710678,17.6568542 L13.4142136,12 Z"></path>
            </g>
        </g>
        <g id="icn_close" opacity="0.49718657" transform="translate(55.000000, 110.000000)" fill="#F9E2BA">
            <g id="Combined-Shape">
                <path d="M13.4142136,12 L19.0710678,6.34314575 C19.4615921,5.95262146 19.4615921,5.31945648 19.0710678,4.92893219 C18.6805435,4.5384079 18.0473785,4.5384079 17.6568542,4.92893219 L12,10.5857864 L6.34314575,4.92893219 C5.95262146,4.5384079 5.31945648,4.5384079 4.92893219,4.92893219 C4.5384079,5.31945648 4.5384079,5.95262146 4.92893219,6.34314575 L10.5857864,12 L4.92893219,17.6568542 C4.5384079,18.0473785 4.5384079,18.6805435 4.92893219,19.0710678 C5.31945648,19.4615921 5.95262146,19.4615921 6.34314575,19.0710678 L12,13.4142136 L17.6568542,19.0710678 C18.0473785,19.4615921 18.6805435,19.4615921 19.0710678,19.0710678 C19.4615921,18.6805435 19.4615921,18.0473785 19.0710678,17.6568542 L13.4142136,12 Z"></path>
            </g>
        </g>
        <path d="M71.8939529,153.179667 C71.9645891,153.109031 72,153.025332 72,152.92851 C72,152.831872 71.9645891,152.748112 71.8939529,152.677476 C71.8232548,152.606778 71.7395562,152.571429 71.6428571,152.571429 C71.5460342,152.571429 71.4623356,152.606778 71.3917614,152.677476 C71.3210014,152.748112 71.2857143,152.831872 71.2857143,152.92851 C71.2857143,153.025332 71.3210014,153.109031 71.3917614,153.179667 C71.4623356,153.250427 71.5460342,153.285714 71.6428571,153.285714 C71.7395562,153.285714 71.8232548,153.250427 71.8939529,153.179667 Z M69.7510958,153.179667 C69.8217319,153.109031 69.8571429,153.025332 69.8571429,152.92851 C69.8571429,152.831872 69.8217319,152.748112 69.7510958,152.677476 C69.6803977,152.606778 69.5966991,152.571429 69.5,152.571429 C69.4031771,152.571429 69.3194785,152.606778 69.2488423,152.677476 C69.1781443,152.748112 69.1428571,152.831872 69.1428571,152.92851 C69.1428571,153.025332 69.1781443,153.109031 69.2488423,153.179667 C69.3194785,153.250427 69.4031771,153.285714 69.5,153.285714 C69.5966991,153.285714 69.6803977,153.250427 69.7510958,153.179667 Z M70.5337401,147.617385 C70.6047062,147.796914 70.575444,147.950079 70.446023,148.076951 L67.6391449,151.018097 C67.563939,151.101343 67.4699663,151.142857 67.3571573,151.142857 C67.2444179,151.142857 67.1504452,151.101343 67.0752393,151.018097 L64.2682917,148.076951 C64.1388012,147.950079 64.109539,147.796914 64.1806441,147.617385 C64.2516101,147.446741 64.374845,147.361383 64.5502792,147.361383 L66.1542096,147.361383 L66.1542096,144.420164 C66.1542096,144.306474 66.1938282,144.207933 66.2732741,144.12476 C66.3525114,144.04166 66.4465536,144 66.5551922,144 L68.159192,144 C68.2676916,144 68.3617338,144.04166 68.4411101,144.12476 C68.5204169,144.207933 68.5601051,144.306401 68.5601051,144.420164 L68.5601051,147.361383 L70.164105,147.361383 C70.3395392,147.361383 70.4626351,147.446741 70.5337401,147.617385 Z M72.7142857,151.098176 L72.7142857,153.330396 C72.7142857,153.51635 72.6541409,153.674523 72.533994,153.804683 C72.4137757,153.93492 72.2677708,154 72.0961223,154 L62.618092,154 C62.446372,154 62.3003672,153.93492 62.1802917,153.804683 C62.0600734,153.674523 62,153.51635 62,153.330396 L62,151.098176 C62,150.912299 62.0600734,150.754126 62.1802917,150.623811 C62.3003672,150.493651 62.446372,150.428571 62.618092,150.428571 L65.6121918,150.428571 L66.4814351,151.377145 C66.730372,151.637697 67.0223103,151.76778 67.3571071,151.76778 C67.691904,151.76778 67.9837709,151.637697 68.2327792,151.377145 L69.1085227,150.428571 L72.0961223,150.428571 C72.2677708,150.428571 72.4137043,150.493651 72.533994,150.623811 C72.6540694,150.754126 72.7142143,150.912299 72.7142143,151.098176 L72.7142857,151.098176 Z" id="Fill-1" fill="#FFFFFF"></path>
        <g id="硬件连接流程-GIF" transform="translate(82.000000, 15.000000)" fill-rule="nonzero">
            <g id="分组-4">
                <circle id="椭圆形" fill="#40A9FF" cx="13" cy="13" r="13"></circle>
                <path d="M9,10 C8.44771525,10 8,10.4477153 8,11 L8,19 C8,19.5522847 8.44771525,20 9,20 L17,20 C17.5522847,20 18,19.5522847 18,19 L18,11 C18,10.4477153 17.5522847,10 17,10 L9,10 Z" id="矩形" stroke="#FFFFFF" stroke-width="2"></path>
                <path d="M10,10 L16,10 L16,6 L10,6 L10,10 Z" id="矩形" stroke="#FFFFFF" stroke-width="2"></path>
                <rect id="矩形" stroke="#FFFFFF" x="12.5" y="19.5" width="1" height="6"></rect>
            </g>
        </g>
        <g id="分组-6" transform="translate(82.000000, 45.000000)" fill-rule="nonzero">
            <circle id="椭圆形" fill="#82D729" cx="13" cy="13" r="13"></circle>
            <polyline id="路径-2" stroke="#FFFFFF" stroke-width="2" stroke-linecap="round" stroke-linejoin="round" points="8 13.6003104 11.0941426 17 18.8 11"></polyline>
        </g>
        <circle id="椭圆形" fill="#FF7875" cx="95" cy="88" r="13"></circle>
        <path d="M95,81 C95.5522847,81 96,81.4477153 96,82 L96,90 C96,90.5522847 95.5522847,91 95,91 C94.4477153,91 94,90.5522847 94,90 L94,82 C94,81.4477153 94.4477153,81 95,81 Z M95,93 C95.5522847,93 96,93.4477153 96,94 C96,94.5522847 95.5522847,95 95,95 C94.4477153,95 94,94.5522847 94,94 C94,93.4477153 94.4477153,93 95,93 Z" id="Combined-Shape" fill="#FFFFFF"></path>
        <g id="分组-4" transform="translate(82.000000, 105.000000)" fill-rule="nonzero">
            <circle id="椭圆形" fill="#40A9FF" cx="13" cy="13" r="13"></circle>
            <g transform="translate(8.000000, 7.000000)">
                <path d="M5,0 L5,0 C5.55228475,-1.01453063e-16 6,0.44771525 6,1 L6,10 C6,10.5522847 5.55228475,11 5,11 L5,11 C4.44771525,11 4,10.5522847 4,10 L4,1 C4,0.44771525 4.44771525,1.01453063e-16 5,0 Z" id="矩形" fill="#FFFFFF"></path>
                <path d="M8,10 L2.75,10 C2.33578644,10 2,9.66421356 2,9.25 L2,4" id="路径" stroke="#FFFFFF" stroke-width="2" stroke-linecap="round" stroke-linejoin="round" transform="translate(5.000000, 7.000000) rotate(-45.000000) translate(-5.000000, -7.000000) "></path>
            </g>
        </g>
        <g id="分组" transform="translate(22.000000, 80.000000)" fill="#FFFFFF">
            <path d="M3.46308404,6.41318695 L9.25992882,6.47237963 C9.67438245,6.4766117 10.0069327,6.81602351 10.0027007,7.23047714 C10.0025724,7.24303775 10.0021288,7.25559315 10.0013703,7.26813149 C9.97467476,7.70941559 9.60669324,8.05228223 9.16462545,8.04776819 L2.7428118,7.98219384 C2.32835817,7.97796177 1.99580788,7.63854996 2.00003995,7.22409633 C2.00016821,7.21153572 2.0006118,7.19898032 2.00137031,7.18644198 C2.00390383,7.1445622 2.00951126,7.10356886 2.0179642,7.06367475 C2.01494415,7.03472651 2.01358486,7.00530375 2.01398086,6.97550689 L2.05767312,3.68784149 C2.06278922,3.30287573 2.37901305,2.99494674 2.76397881,3.00006284 C2.77186238,3.00016761 2.7797436,3.00040612 2.78761907,3.00077826 C3.18935718,3.01976173 3.50374294,3.35376972 3.49839846,3.7559206 L3.46308404,6.41318695 Z" id="Combined-Shape" transform="translate(6.001370, 5.523906) rotate(-45.000000) translate(-6.001370, -5.523906) "></path>
        </g>
        <g id="分组-copy" transform="translate(22.000000, 95.000000)" fill="#CCCCCC" opacity="0.602469308">
            <path d="M3.46308404,6.41318695 L9.25992882,6.47237963 C9.67438245,6.4766117 10.0069327,6.81602351 10.0027007,7.23047714 C10.0025724,7.24303775 10.0021288,7.25559315 10.0013703,7.26813149 C9.97467476,7.70941559 9.60669324,8.05228223 9.16462545,8.04776819 L2.7428118,7.98219384 C2.32835817,7.97796177 1.99580788,7.63854996 2.00003995,7.22409633 C2.00016821,7.21153572 2.0006118,7.19898032 2.00137031,7.18644198 C2.00390383,7.1445622 2.00951126,7.10356886 2.0179642,7.06367475 C2.01494415,7.03472651 2.01358486,7.00530375 2.01398086,6.97550689 L2.05767312,3.68784149 C2.06278922,3.30287573 2.37901305,2.99494674 2.76397881,3.00006284 C2.77186238,3.00016761 2.7797436,3.00040612 2.78761907,3.00077826 C3.18935718,3.01976173 3.50374294,3.35376972 3.49839846,3.7559206 L3.46308404,6.41318695 Z" id="Combined-Shape" transform="translate(6.001370, 5.523906) rotate(-45.000000) translate(-6.001370, -5.523906) "></path>
        </g>
        <g id="question_icon" transform="translate(22.000000, 110.000000)">
            <g>
                <circle id="Oval-4" fill-opacity="0.3" fill="#977966" cx="6" cy="6" r="6"></circle>
                <path d="M5.97802198,3 C6.51373626,3 6.95054945,3.14010989 7.28021978,3.43681319 C7.60989011,3.72527473 7.77472527,4.12087912 7.77472527,4.62362637 C7.77472527,5.03571429 7.66758242,5.37362637 7.46978022,5.63736264 C7.3956044,5.71978022 7.15659341,5.94230769 6.76098901,6.28846154 C6.61263736,6.41208791 6.50549451,6.5521978 6.43131868,6.70054945 C6.3489011,6.86538462 6.30769231,7.03846154 6.30769231,7.23626374 L6.30769231,7.35164835 L5.35989011,7.35164835 L5.35989011,7.23626374 C5.35989011,6.92307692 5.40934066,6.6510989 5.52472527,6.42857143 C5.63186813,6.20604396 5.9532967,5.85989011 6.48901099,5.38186813 L6.58791209,5.26648352 C6.73626374,5.08516484 6.81043956,4.88736264 6.81043956,4.68131868 C6.81043956,4.40934066 6.72802198,4.19505495 6.57967033,4.03846154 C6.42307692,3.88186813 6.20054945,3.80769231 5.92032967,3.80769231 C5.55769231,3.80769231 5.3021978,3.91483516 5.1456044,4.1456044 C5.00549451,4.33516484 4.93956044,4.60714286 4.93956044,4.9532967 L4,4.9532967 C4,4.34340659 4.17307692,3.86538462 4.53571429,3.51923077 C4.89010989,3.17307692 5.36813187,3 5.97802198,3 Z M5.82967033,7.75549451 C6.01098901,7.75549451 6.16758242,7.81318681 6.29120879,7.92857143 C6.40659341,8.04395604 6.47252747,8.19230769 6.47252747,8.37362637 C6.47252747,8.55494505 6.40659341,8.71153846 6.28296703,8.82692308 C6.15934066,8.94230769 6.01098901,9 5.82967033,9 C5.64835165,9 5.5,8.93406593 5.37637363,8.81868132 C5.25274725,8.7032967 5.19505495,8.55494505 5.19505495,8.37362637 C5.19505495,8.19230769 5.25274725,8.04395604 5.37637363,7.92857143 C5.5,7.81318681 5.64835165,7.75549451 5.82967033,7.75549451 Z" id="？" fill="#FFFFFF"></path>
            </g>
        </g>
    </g>
</svg>