<?xml version="1.0" encoding="UTF-8"?>
<svg width="100px" height="21px" viewBox="0 0 100 21" version="1.1" xmlns="http://www.w3.org/2000/svg" xmlns:xlink="http://www.w3.org/1999/xlink">
    <!-- Generator: Sketch 55.2 (78181) - https://sketchapp.com -->
    <title>空间站/棕色logo</title>
    <desc>Created with Sketch.</desc>
    <defs>
        <polygon id="path-1" points="0 20.6818182 99.79375 20.6818182 99.79375 0.268863636 0 0.268863636"></polygon>
    </defs>
    <g id="空间站/棕色logo" stroke="none" stroke-width="1" fill="none" fill-rule="evenodd">
        <g id="编组">
            <polygon id="Fill-1" fill="#AD6F2A" points="83.7396563 0.353277273 83.1143438 2.17232273 85.7709063 2.17232273 86.3959063 0.353277273"></polygon>
            <polygon id="Fill-2" fill="#AD6F2A" points="91.468125 11.1879727 94.124375 11.1879727 94.124375 0.353245455 91.468125 0.353245455"></polygon>
            <polygon id="Fill-3" fill="#AD6F2A" points="92.8490625 3.44113636 92.8490625 6.14568182 98.545625 6.14568182 99.79375 3.44113636"></polygon>
            <polygon id="Fill-4" fill="#AD6F2A" points="89.2079688 4.47096364 79.2467187 4.47096364 79.8717187 1.76641818 89.8329688 1.76641818"></polygon>
            <g transform="translate(0.000000, 0.049382)">
                <path d="M87.79225,17.4971682 L79.435375,17.4971682 C79.039125,18.6174864 78.425375,19.5103045 77.64975,20.2017136 L89.3300625,20.2017136 C88.5385,19.5252591 87.981625,18.5767591 87.79225,17.4971682" id="Fill-5" fill="#AD6F2A"></path>
                <path d="M94.083,17.9539182 C92.6851875,17.9539182 91.552375,16.8005091 91.552375,15.3772818 C91.552375,13.9543727 92.6851875,12.8006455 94.083,12.8006455 C95.4805,12.8006455 96.613625,13.9543727 96.613625,15.3772818 C96.613625,16.8005091 95.4805,17.9539182 94.083,17.9539182 M94.083,10.0728727 C91.2055,10.0728727 88.8733125,12.4477818 88.8733125,15.3772818 C88.8733125,18.3067818 91.2055,20.6816909 94.083,20.6816909 C96.9601875,20.6816909 99.2926875,18.3067818 99.2926875,15.3772818 C99.2926875,12.4477818 96.9601875,10.0728727 94.083,10.0728727" id="Fill-7" fill="#AD6F2A"></path>
                <polygon id="Fill-9" fill="#AD6F2A" points="5.1073125 0.447713636 0.8329375 0.447713636 0.1041875 3.20666818 5.1073125 3.20666818"></polygon>
                <polygon id="Fill-11" fill="#AD6F2A" points="5.1073125 5.59392273 0.728875 5.59392273 0.000125 8.35287727 5.1073125 8.35287727"></polygon>
                <path d="M2.45153125,6.75232727 L2.45153125,16.8574636 C2.45153125,17.2717364 2.12059375,17.6083727 1.71371875,17.6083727 L0.97903125,17.6083727 L0.06371875,20.3129182 L1.71371875,20.3129182 C3.58528125,20.3129182 5.10778125,18.7627364 5.10778125,16.8574636 L5.10778125,6.75232727 L2.45153125,6.75232727 Z" id="Fill-13" fill="#AD6F2A"></path>
                <path d="M12.36625,20.3138727 L11.5371875,20.3138727 L11.5371875,17.6093273 L12.36625,17.6093273 C13.0125,17.6093273 13.538125,17.0738273 13.538125,16.4161455 L13.538125,12.6826 L16.194375,12.6826 L16.194375,16.4161455 C16.194375,18.5654636 14.4771875,20.3138727 12.36625,20.3138727" id="Fill-15" fill="#AD6F2A"></path>
                <path d="M44.2062813,9.81759545 L40.6281563,9.81759545 L40.6281563,7.11305 L44.2062813,7.11305 C44.7272187,7.11305 45.1506562,6.68191364 45.1506562,6.15150455 L45.1506562,4.95736818 L47.8069062,4.95736818 L47.8069062,6.15150455 C47.8069062,8.17291364 46.1915938,9.81759545 44.2062813,9.81759545" id="Fill-17" fill="#AD6F2A"></path>
                <path d="M57.3459375,9.81759545 L53.7678125,9.81759545 C51.7825,9.81759545 50.1671875,8.17291364 50.1671875,6.15150455 L50.1671875,4.95736818 L52.8234375,4.95736818 L52.8234375,6.15150455 C52.8234375,6.68191364 53.2471875,7.11305 53.7678125,7.11305 L57.3459375,7.11305 L57.3459375,9.81759545 Z" id="Fill-19" fill="#AD6F2A"></path>
                <path d="M60.4495938,5.18470909 L60.4495938,15.8609818 C60.4495938,16.6793455 59.8792813,17.3637545 59.1220938,17.5266636 L58.1942813,20.2684364 L58.7767813,20.2684364 C61.1639688,20.2684364 63.1058438,18.2912545 63.1058438,15.8609818 L63.1058438,5.18470909 L60.4495938,5.18470909 Z" id="Fill-21" fill="#AD6F2A"></path>
                <path d="M51.0158438,17.5316591 C50.8205313,18.6589773 50.1736563,19.6284773 49.2692812,20.2362045 L57.1455313,20.2362045 L58.0608438,17.5316591 L51.0158438,17.5316591 Z" id="Fill-23" fill="#AD6F2A"></path>
                <path d="M47.062125,17.7681318 C47.295875,17.7681318 47.507125,17.6771318 47.6705625,17.5317227 L46.59525,17.5317227 L46.59525,17.7681318 L47.062125,17.7681318 Z" id="Fill-25" fill="#AD6F2A"></path>
                <mask id="mask-2" fill="white">
                    <use xlink:href="#path-1"></use>
                </mask>
                <g id="Clip-28"></g>
                <path d="M67.1434375,13.1059091 L71.2128125,13.1059091 L71.2128125,7.81104545 L67.1434375,7.81104545 L67.1434375,13.1059091 Z M71.380625,15.8104545 L64.4871875,15.8104545 L64.4871875,5.10681818 L73.8690625,5.10681818 L73.8690625,13.2767727 C73.8690625,14.6739091 72.7528125,15.8104545 71.380625,15.8104545 L71.380625,15.8104545 Z" id="Fill-27" fill="#AD6F2A" mask="url(#mask-2)"></path>
                <polygon id="Fill-29" fill="#AD6F2A" mask="url(#mask-2)" points="65.973125 11.6021818 71.2878125 11.6021818 71.2878125 9.05672727 65.973125 9.05672727"></polygon>
                <path d="M47.7731875,11.6599 L47.7731875,16.7209 C47.7731875,17.4902636 47.682875,17.5357636 46.972875,17.5357636 L40.2856875,17.5357636 C40.016,18.5813091 39.4694375,19.5123091 38.726,20.2403091 L46.972875,20.2403091 C49.16975,20.2403091 50.4294375,18.9577182 50.4294375,16.7209 L50.4294375,11.6599 L47.7731875,11.6599 Z" id="Fill-30" fill="#AD6F2A" mask="url(#mask-2)"></path>
                <polygon id="Fill-31" fill="#AD6F2A" mask="url(#mask-2)" points="54.6474375 5.11945 54.6480625 5.11976818 57.514 5.11976818 59.099625 1.14185909 41.1343125 1.14185909 39.562125 5.11976818 42.4255625 5.11976818 42.9286875 3.84640455 55.1549375 3.84640455"></polygon>
                <polygon id="Fill-32" fill="#AD6F2A" mask="url(#mask-2)" points="48.0979063 0.268736364 47.1566563 2.1511 49.5235313 3.37832727 51.0788438 0.268736364"></polygon>
                <path d="M35.3380313,14.4797227 L35.3380313,13.2636318 L29.3183438,13.2636318 L29.3183438,15.9681773 L33.9620938,15.9681773 C34.7283438,15.91695 35.3380313,15.2726318 35.3380313,14.4797227" id="Fill-33" fill="#AD6F2A" mask="url(#mask-2)"></path>
                <path d="M25.2211563,7.18826818 L25.2183438,7.50581364 C25.2095937,8.40372273 24.9017812,9.22972273 24.3964688,9.89281364 L25.6277188,9.89281364 L25.6277188,16.5580864 C25.6277188,17.12095 25.1783438,17.5784955 24.6255313,17.5784955 L24.1577188,17.5784955 L24.1577188,10.1779045 C23.4839688,10.9097227 22.5452188,11.3819045 21.5014688,11.4331318 L21.5014688,20.2830409 L24.6255313,20.2830409 C26.6427188,20.2830409 28.2839688,18.61195 28.2839688,16.5580864 L28.2839688,7.18826818 L25.2211563,7.18826818 Z" id="Fill-34" fill="#AD6F2A" mask="url(#mask-2)"></path>
                <path d="M21.3767188,10.8600864 L20.3935938,10.8600864 L20.3935938,8.15554091 L21.3767188,8.15554091 C21.7535938,8.15554091 22.0629687,7.84372273 22.0664062,7.45999545 L22.1085938,3.02326818 L24.7648438,3.04935909 L24.7226563,7.48608636 C24.7048438,9.34649545 23.2039062,10.8600864 21.3767188,10.8600864" id="Fill-35" fill="#AD6F2A" mask="url(#mask-2)"></path>
                <polygon id="Fill-36" fill="#AD6F2A" mask="url(#mask-2)" points="27.9758125 0.560190909 27.9758125 0.465690909 21.263 0.465690909 20.377375 3.08305455 20.377375 3.17023636 27.0926875 3.17023636"></polygon>
                <path d="M34.1621875,20.3452773 L31.22625,20.3452773 L31.22625,17.6407318 L34.1621875,17.6407318 C35.4475,17.6407318 36.493125,16.5760955 36.493125,15.2674136 L36.493125,11.4692773 L29.1365625,11.4692773 L29.1365625,4.08777727 L31.7928125,4.08777727 L31.7928125,8.76473182 L39.149375,8.76473182 L39.149375,15.2674136 C39.149375,18.0674136 36.9121875,20.3452773 34.1621875,20.3452773" id="Fill-37" fill="#AD6F2A" mask="url(#mask-2)"></path>
                <polygon id="Fill-38" fill="#AD6F2A" mask="url(#mask-2)" points="38.7886563 9.06503182 36.1324063 9.06503182 36.1324063 3.14907727 29.1505313 3.14907727 29.1505313 0.444531818 38.7886563 0.444531818"></polygon>
                <polygon id="Fill-39" fill="#AD6F2A" mask="url(#mask-2)" points="6.10890625 3.17930455 6.10734375 0.474759091 19.2298438 0.466486364 19.2314062 3.17103182"></polygon>
                <polygon id="Fill-40" fill="#AD6F2A" mask="url(#mask-2)" points="15.1308125 6.86108182 15.1120625 4.31562727 19.2045625 4.28444545 19.2233125 6.8299"></polygon>
                <path d="M15.460125,13.4440727 L9.7054375,13.4440727 L9.7054375,9.78116364 L12.2054375,9.78116364 L12.2054375,10.8986182 L15.460125,10.8986182 C16.1495,10.8986182 16.710125,10.3278 16.710125,9.62589091 L16.710125,5.21270909 L19.210125,5.21270909 L19.210125,9.62589091 C19.210125,11.7313 17.5279375,13.4440727 15.460125,13.4440727" id="Fill-41" fill="#AD6F2A" mask="url(#mask-2)"></path>
                <polygon id="Fill-42" fill="#AD6F2A" mask="url(#mask-2)" points="12.4584063 20.3210318 9.59371875 20.3210318 9.61121875 15.3682136 12.4755938 15.3682136"></polygon>
                <polygon id="Fill-43" fill="#AD6F2A" mask="url(#mask-2)" points="16.6022188 20.2650955 19.4669063 20.2650955 19.4765938 15.2868227 16.6119063 15.2868227"></polygon>
                <polygon id="Fill-44" fill="#AD6F2A" mask="url(#mask-2)" points="8.68153125 20.2955455 6.02528125 20.2818636 6.11153125 2.82163636 8.76778125 2.83531818"></polygon>
                <polygon id="Fill-45" fill="#AD6F2A" mask="url(#mask-2)" points="56.6065 13.5954 40.435875 13.5954 41.3636875 10.8908545 57.5343125 10.8908545"></polygon>
                <polygon id="Fill-46" fill="#AD6F2A" mask="url(#mask-2)" points="63.134375 0.535022727 60.035625 0.535022727 59.120625 3.23956818 63.134375 3.23956818"></polygon>
                <path d="M64.479125,0.535022727 L64.479125,3.23956818 L75.4750625,3.23956818 L75.4750625,14.6342955 C75.4750625,16.2582955 74.17725,17.5793864 72.5819375,17.5793864 L70.9213125,17.5793864 L70.9213125,20.2839318 L72.5819375,20.2839318 C75.641625,20.2839318 78.1313125,17.7496136 78.1313125,14.6342955 L78.1313125,0.535022727 L64.479125,0.535022727 Z" id="Fill-47" fill="#AD6F2A" mask="url(#mask-2)"></path>
                <path d="M10.3400313,8.20279091 L10.7047188,7.36406364 C10.8878438,6.94310909 10.8669063,6.45947273 10.6478438,6.05633636 L10.0806563,5.01365455 C9.92315625,4.72315455 10.2422188,4.40624545 10.5228438,4.57456364 L11.4184688,5.10910909 C11.8087813,5.34265455 12.2844063,5.37574545 12.7025313,5.19947273 L13.6812813,4.78615455 C13.9478438,4.6732 14.2134688,4.94938182 14.0969063,5.21856364 L13.7209688,6.08688182 C13.5387813,6.50815455 13.5606563,6.99179091 13.7803438,7.39429091 L14.3609688,8.45765455 C14.5178438,8.74497273 14.2050313,9.06156364 13.9237813,8.89960909 L12.9128438,8.31924545 C12.5190938,8.09301818 12.0440938,8.06756364 11.6290938,8.25051818 L10.7600313,8.63360909 C10.4925313,8.75197273 10.2219063,8.4742 10.3400313,8.20279091" id="Fill-48" fill="#AD6F2A" mask="url(#mask-2)"></path>
                <polygon id="Fill-49" fill="#AD6F2A" mask="url(#mask-2)" points="82.68575 4.33799545 82.6595 4.10635909 80.7023125 4.33799545"></polygon>
                <polygon id="Fill-50" fill="#AD6F2A" mask="url(#mask-2)" points="80.1880312 5.88665 81.3445938 16.0353773 84.0186562 16.0353773 82.8620937 5.88665"></polygon>
                <polygon id="Fill-51" fill="#AD6F2A" mask="url(#mask-2)" points="87.92425 4.33799545 85.9658125 4.10667727 85.9395625 4.33799545"></polygon>
                <polygon id="Fill-52" fill="#AD6F2A" mask="url(#mask-2)" points="85.7634688 5.88665 84.6094063 16.0353773 87.2831563 16.0353773 88.4375313 5.88665"></polygon>
            </g>
        </g>
    </g>
</svg>