<?xml version="1.0" encoding="UTF-8"?>
<svg width="280px" height="320px" viewBox="0 0 280 320" version="1.1" xmlns="http://www.w3.org/2000/svg" xmlns:xlink="http://www.w3.org/1999/xlink">
    <!-- Generator: Sketch 55.2 (78181) - https://sketchapp.com -->
    <title>ai实验室切图/小</title>
    <desc>Created with Sketch.</desc>
    <defs>
        <circle id="path-1" cx="13.4210526" cy="13.4210526" r="13.4210526"></circle>
        <linearGradient x1="50%" y1="0%" x2="54.3927209%" y2="39.8901054%" id="linearGradient-3">
            <stop stop-color="#FFC97E" stop-opacity="0" offset="0%"></stop>
            <stop stop-color="#FF9948" offset="100%"></stop>
        </linearGradient>
        <filter x="-12.5%" y="-11.8%" width="125.0%" height="123.5%" filterUnits="objectBoundingBox" id="filter-4">
            <feGaussianBlur stdDeviation="1.57894737" in="SourceGraphic"></feGaussianBlur>
        </filter>
        <linearGradient x1="92.985509%" y1="94.4351722%" x2="28.4162663%" y2="5.56482775%" id="linearGradient-5">
            <stop stop-color="#0090FF" stop-opacity="0" offset="0%"></stop>
            <stop stop-color="#007EFF" offset="56.2768241%"></stop>
            <stop stop-color="#0057FF" offset="100%"></stop>
        </linearGradient>
        <filter x="-38.7%" y="-41.1%" width="177.4%" height="182.1%" filterUnits="objectBoundingBox" id="filter-6">
            <feGaussianBlur stdDeviation="3.15789474" in="SourceGraphic"></feGaussianBlur>
        </filter>
    </defs>
    <g id="AI实验室" stroke="none" stroke-width="1" fill="none" fill-rule="evenodd">
        <g id="ai实验室切图/小">
            <rect id="矩形" stroke="#979797" fill="#D8D8D8" x="0.5" y="0.5" width="1" height="1"></rect>
            <g id="icon/播放" transform="translate(76.000000, 2.000000)" fill="#FFFFFF" fill-rule="nonzero">
                <path d="M8.33333333,5.5955576 C8.33333333,3.53057665 9.65513054,2.74185593 11.2455953,3.80707379 L23.800417,12.2156979 C25.4088149,13.2929265 25.3908819,15.0513979 23.800417,16.1165292 L11.2455953,24.5244695 C9.63719741,25.6016104 8.33333333,24.782695 8.33333333,22.735827 L8.33333333,5.5955576 Z" id="Rectangle-15"></path>
            </g>
            <g id="icon/结束" transform="translate(76.000000, 36.000000)" fill="#FFFFFF">
                <rect id="矩形" x="6.66666667" y="6.66666667" width="16.6666667" height="16.6666667" rx="2.5"></rect>
            </g>
            <g id="icon/暂停" transform="translate(76.000000, 184.000000)" fill="#FFFFFF">
                <rect id="矩形" x="6.66666667" y="5" width="5" height="20" rx="2.5"></rect>
                <rect id="矩形-copy" x="18.3333333" y="5" width="5" height="20" rx="2.5"></rect>
            </g>
            <g id="弹窗/帮助默认" transform="translate(2.000000, 36.000000)" fill="#C59A69" fill-rule="nonzero">
                <path d="M16,17 C16,17.5522847 15.5522847,18 15,18 C14.4477153,18 14,17.5522847 14,17 C14,16.1113175 14.4863447,15.2938978 15.267355,14.8699006 C16.4828549,14.2100212 17,13.5933759 17,13.059237 C17,11.9176226 16.1001456,11 15,11 C13.8998544,11 13,11.9176226 13,13.059237 C13,13.6115217 12.5522847,14.059237 12,14.059237 C11.4477153,14.059237 11,13.6115217 11,13.059237 C11,10.8217115 12.7864371,9 15,9 C17.2135629,9 19,10.8217115 19,13.059237 C19,14.4784417 18.0134579,15.6547975 16.2215767,16.6275869 C16.0850294,16.7017161 16,16.8446285 16,17 Z M16,20 C16,20.5522847 15.5522847,21 15,21 C14.4477153,21 14,20.5522847 14,20 L14,19.902572 C14,19.3502873 14.4477153,18.902572 15,18.902572 C15.5522847,18.902572 16,19.3502873 16,19.902572 L16,20 Z M15,24 C10.0294373,24 6,19.9705627 6,15 C6,10.0294373 10.0294373,6 15,6 C19.9705627,6 24,10.0294373 24,15 C24,19.9705627 19.9705627,24 15,24 Z M15,22 C18.8659932,22 22,18.8659932 22,15 C22,11.1340068 18.8659932,8 15,8 C11.1340068,8 8,11.1340068 8,15 C8,18.8659932 11.1340068,22 15,22 Z" id="合并形状"></path>
            </g>
            <g id="弹窗/关闭默认" transform="translate(2.000000, 2.000000)" fill="#C59A69">
                <g id="btn_cancel">
                    <g id="icn_cancel" transform="translate(8.000000, 8.000000)">
                        <path d="M8.41421356,7.00330162 L13.0104076,11.5994957 C13.4009319,11.99002 13.4009319,12.623185 13.0104076,13.0137093 C12.6198833,13.4042336 11.9867184,13.4042336 11.5961941,13.0137093 L7,8.41751518 L2.40380592,13.0137093 C2.01328163,13.4042336 1.38011665,13.4042336 0.98959236,13.0137093 C0.599068068,12.623185 0.599068068,11.99002 0.98959236,11.5994957 L5.58578644,7.00330162 L0.98959236,2.40710754 C0.599068068,2.01658325 0.599068068,1.38341827 0.98959236,0.992893982 C1.38011665,0.60236969 2.01328163,0.60236969 2.40380592,0.992893982 L7,5.58908806 L11.5961941,0.992893982 C11.9867184,0.60236969 12.6198833,0.60236969 13.0104076,0.992893982 C13.4009319,1.38341827 13.4009319,2.01658325 13.0104076,2.40710754 L8.41421356,7.00330162 Z" id="Combined-Shape"></path>
                    </g>
                </g>
            </g>
            <g id="ai/进步中间点-copy" transform="translate(36.000000, 2.000000)" fill="#AD6F2A" opacity="0.300000012">
                <g id="进步中间点" transform="translate(-11.000000, 2.000000)">
                    <path d="M21.5493321,4.96663109 L18.7429078,2.16020678 C18.3523835,1.76968249 18.3523835,1.13651751 18.7429078,0.745993218 L18.7775515,0.711349594 C19.1680757,0.320825302 19.8012407,0.320825302 20.191765,0.711349594 L23.696495,4.21607956 C23.8917571,4.4113417 23.9893882,4.66726402 23.9893882,4.92318634 C23.991966,5.17751596 23.8949425,5.43184559 23.7008955,5.62589255 L20.0353078,9.29148027 C19.6472139,9.6795742 19.0179893,9.6795742 18.6298954,9.29148027 C18.2418015,8.90338635 18.2418015,8.27416177 18.6298954,7.88606784 L21.5493321,4.96663109 Z" id="合并形状"></path>
                    <path d="M15.2105072,4.96663109 L12.4040829,2.16020678 C12.0135586,1.76968249 12.0135586,1.13651751 12.4040829,0.745993218 L12.4387265,0.711349594 C12.8292508,0.320825302 13.4624158,0.320825302 13.8529401,0.711349594 L17.35767,4.21607956 C17.5529322,4.4113417 17.6505633,4.66726402 17.6505633,4.92318634 C17.653141,5.17751596 17.5561176,5.43184559 17.3620706,5.62589255 L13.6964829,9.29148027 C13.308389,9.6795742 12.6791644,9.6795742 12.2910704,9.29148027 C11.9029765,8.90338635 11.9029765,8.27416177 12.2910704,7.88606784 L15.2105072,4.96663109 Z" id="合并形状-copy" opacity="0.5"></path>
                </g>
            </g>
            <g id="作品/修改" transform="translate(54.000000, 2.000000)" fill="#5D3D18">
                <g id="icn_nav_pencil" transform="translate(1.000000, 1.000000)">
                    <path d="M10.2125913,1.69139734 C10.7308939,1.17309476 11.5690585,1.17092489 12.1027033,1.70456963 L13.9706552,3.57252155 C14.4962326,4.09809899 14.4926928,4.95376819 13.9838275,5.4626335 L6.43267672,13.0137843 C5.91437414,13.5320868 5.07620951,13.5342567 4.54256477,13.000612 L2.67461284,11.13266 C2.14903541,10.6070826 2.15257523,9.75141341 2.66144055,9.2425481 L10.2125913,1.69139734 Z M0.5175368,12.4369514 C0.662580516,11.7117328 1.19815906,11.5418243 1.7318038,12.0754691 L3.59975572,13.943421 C4.12533316,14.4689984 3.97336337,15.01067 3.23827344,15.157688 L1.15047704,15.5752473 C0.425258459,15.720291 -0.0470404662,15.2598377 0.0999775195,14.5247478 L0.5175368,12.4369514 Z" id="Combined-Shape"></path>
                </g>
            </g>
            <g id="作品/修改" opacity="0.5" transform="translate(54.000000, 70.000000)" fill="#5D3D18">
                <g id="icn_nav_pencil" transform="translate(1.000000, 1.000000)">
                    <path d="M10.2125913,1.69139734 C10.7308939,1.17309476 11.5690585,1.17092489 12.1027033,1.70456963 L13.9706552,3.57252155 C14.4962326,4.09809899 14.4926928,4.95376819 13.9838275,5.4626335 L6.43267672,13.0137843 C5.91437414,13.5320868 5.07620951,13.5342567 4.54256477,13.000612 L2.67461284,11.13266 C2.14903541,10.6070826 2.15257523,9.75141341 2.66144055,9.2425481 L10.2125913,1.69139734 Z M0.5175368,12.4369514 C0.662580516,11.7117328 1.19815906,11.5418243 1.7318038,12.0754691 L3.59975572,13.943421 C4.12533316,14.4689984 3.97336337,15.01067 3.23827344,15.157688 L1.15047704,15.5752473 C0.425258459,15.720291 -0.0470404662,15.2598377 0.0999775195,14.5247478 L0.5175368,12.4369514 Z" id="Combined-Shape"></path>
                </g>
            </g>
            <g id="ai/添加" transform="translate(2.000000, 70.000000)" fill="#5D3D18">
                <g id="更多">
                    <path d="M9.16666667,9.16666667 L9.16666667,5 C9.16666667,4.53976271 9.53976271,4.16666667 10,4.16666667 C10.4602373,4.16666667 10.8333333,4.53976271 10.8333333,5 L10.8333333,9.16666667 L15,9.16666667 C15.4602373,9.16666667 15.8333333,9.53976271 15.8333333,10 C15.8333333,10.4602373 15.4602373,10.8333333 15,10.8333333 L10.8333333,10.8333333 L10.8333333,15 C10.8333333,15.4602373 10.4602373,15.8333333 10,15.8333333 C9.53976271,15.8333333 9.16666667,15.4602373 9.16666667,15 L9.16666667,10.8333333 L5,10.8333333 C4.53976271,10.8333333 4.16666667,10.4602373 4.16666667,10 C4.16666667,9.53976271 4.53976271,9.16666667 5,9.16666667 L9.16666667,9.16666667 Z" id="合并形状"></path>
                </g>
            </g>
            <g id="ai/添加" opacity="0.699999988" transform="translate(2.000000, 94.000000)" fill="#5D3D18">
                <g id="更多">
                    <path d="M9.16666667,9.16666667 L9.16666667,5 C9.16666667,4.53976271 9.53976271,4.16666667 10,4.16666667 C10.4602373,4.16666667 10.8333333,4.53976271 10.8333333,5 L10.8333333,9.16666667 L15,9.16666667 C15.4602373,9.16666667 15.8333333,9.53976271 15.8333333,10 C15.8333333,10.4602373 15.4602373,10.8333333 15,10.8333333 L10.8333333,10.8333333 L10.8333333,15 C10.8333333,15.4602373 10.4602373,15.8333333 10,15.8333333 C9.53976271,15.8333333 9.16666667,15.4602373 9.16666667,15 L9.16666667,10.8333333 L5,10.8333333 C4.53976271,10.8333333 4.16666667,10.4602373 4.16666667,10 C4.16666667,9.53976271 4.53976271,9.16666667 5,9.16666667 L9.16666667,9.16666667 Z" id="合并形状"></path>
                </g>
            </g>
            <g id="ai/添加白色" transform="translate(2.000000, 142.000000)" fill="#FFFFFF">
                <g id="更多">
                    <path d="M9.16666667,9.16666667 L9.16666667,5 C9.16666667,4.53976271 9.53976271,4.16666667 10,4.16666667 C10.4602373,4.16666667 10.8333333,4.53976271 10.8333333,5 L10.8333333,9.16666667 L15,9.16666667 C15.4602373,9.16666667 15.8333333,9.53976271 15.8333333,10 C15.8333333,10.4602373 15.4602373,10.8333333 15,10.8333333 L10.8333333,10.8333333 L10.8333333,15 C10.8333333,15.4602373 10.4602373,15.8333333 10,15.8333333 C9.53976271,15.8333333 9.16666667,15.4602373 9.16666667,15 L9.16666667,10.8333333 L5,10.8333333 C4.53976271,10.8333333 4.16666667,10.4602373 4.16666667,10 C4.16666667,9.53976271 4.53976271,9.16666667 5,9.16666667 L9.16666667,9.16666667 Z" id="合并形状"></path>
                </g>
            </g>
            <g id="舞台按钮/对棕色" transform="translate(2.000000, 166.000000)">
                <g id="分组">
                    <rect id="矩形" fill="#D8D8D8" opacity="0" x="0" y="0" width="12" height="12"></rect>
                    <path d="M10.3199789,2.86261135 C10.5803284,2.60226182 11.0024384,2.60226182 11.262788,2.86261135 C11.5231375,3.12296088 11.5231375,3.54507087 11.262788,3.80542039 L5.6059337,9.46227464 C5.34558418,9.72262417 4.92347419,9.72262417 4.66312466,9.46227464 L2.55439154,6.0229997 C2.29404201,5.76265017 2.29404201,5.34054019 2.55439154,5.08019066 C2.81474107,4.81984113 3.23685106,4.81984113 3.49720058,5.08019066 L5.13452918,8.04806108 L10.3199789,2.86261135 Z" id="路径" fill="#5D3D18" transform="translate(6.908590, 6.162443) rotate(-15.000000) translate(-6.908590, -6.162443) "></path>
                </g>
            </g>
            <g id="ai/添加灰色" transform="translate(2.000000, 118.000000)" fill="#606060">
                <g id="更多">
                    <path d="M9.16666667,9.16666667 L9.16666667,5 C9.16666667,4.53976271 9.53976271,4.16666667 10,4.16666667 C10.4602373,4.16666667 10.8333333,4.53976271 10.8333333,5 L10.8333333,9.16666667 L15,9.16666667 C15.4602373,9.16666667 15.8333333,9.53976271 15.8333333,10 C15.8333333,10.4602373 15.4602373,10.8333333 15,10.8333333 L10.8333333,10.8333333 L10.8333333,15 C10.8333333,15.4602373 10.4602373,15.8333333 10,15.8333333 C9.53976271,15.8333333 9.16666667,15.4602373 9.16666667,15 L9.16666667,10.8333333 L5,10.8333333 C4.53976271,10.8333333 4.16666667,10.4602373 4.16666667,10 C4.16666667,9.53976271 4.53976271,9.16666667 5,9.16666667 L9.16666667,9.16666667 Z" id="合并形状"></path>
                </g>
            </g>
            <g id="ai/增加数据集" stroke="#979797" transform="translate(54.000000, 24.000000)" fill="#5D3D18">
                <g id="分组-2" stroke="none">
                    <path d="M11,15.5 L11,17 L14,17 L4,17 C2.8954305,17 2,16.1045695 2,15 L2,3 C2,1.8954305 2.8954305,1 4,1 L14,1 C15.1045695,1 16,1.8954305 16,3 L16,11 L14.5,11 L14.5,3 C14.5,2.72385763 14.2761424,2.5 14,2.5 L4,2.5 C3.72385763,2.5 3.5,2.72385763 3.5,3 L3.5,15 C3.5,15.2761424 3.72385763,15.5 4,15.5 L11,15.5 Z" id="合并形状" fill-rule="nonzero"></path>
                    <g id="分组" transform="translate(5.000000, 5.000000)" fill-rule="nonzero">
                        <path d="M-1,5.25 C-1,4.83578644 -0.65896225,4.5 -0.247630596,4.5 L2.2476306,4.5 C2.66315274,4.5 3,4.83289862 3,5.25 C3,5.66421356 2.65896225,6 2.2476306,6 L-0.247630596,6 C-0.663152744,6 -1,5.66710138 -1,5.25 Z" id="路径" transform="translate(1.000000, 5.250000) rotate(-90.000000) translate(-1.000000, -5.250000) "></path>
                        <path d="M0.5,3.75 C0.5,3.33578644 0.83762455,3 1.24912262,3 L6.75087738,3 C7.16460638,3 7.5,3.33289862 7.5,3.75 C7.5,4.16421356 7.16237545,4.5 6.75087738,4.5 L1.24912262,4.5 C0.835393621,4.5 0.5,4.16710138 0.5,3.75 Z" id="路径" transform="translate(4.000000, 3.750000) rotate(-90.000000) translate(-4.000000, -3.750000) "></path>
                        <path d="M4.5,4.75 C4.5,4.33578644 4.82806396,4 5.25939238,4 L8.74060762,4 C9.16000845,4 9.5,4.33289862 9.5,4.75 C9.5,5.16421356 9.17193604,5.5 8.74060762,5.5 L5.25939238,5.5 C4.83999155,5.5 4.5,5.16710138 4.5,4.75 Z" id="路径" transform="translate(7.000000, 4.750000) rotate(-90.000000) translate(-7.000000, -4.750000) "></path>
                    </g>
                    <rect id="矩形" x="12" y="13.75" width="5" height="1.5" rx="0.75"></rect>
                    <rect id="矩形-copy" transform="translate(14.500000, 14.500000) rotate(-270.000000) translate(-14.500000, -14.500000) " x="12" y="13.75" width="5" height="1.5" rx="0.75"></rect>
                    <path d="M6,2 L12,2 L11.2763932,3.4472136 C11.1070012,3.78599762 10.7607381,4 10.381966,4 L7.61803399,4 C7.23926193,4 6.89299881,3.78599762 6.7236068,3.4472136 L6,2 Z" id="矩形"></path>
                </g>
            </g>
            <g id="ai/增加数据集" stroke="#979797" opacity="0.699999988" transform="translate(54.000000, 92.000000)" fill="#5D3D18">
                <g id="分组-2" stroke="none">
                    <path d="M11,15.5 L11,17 L14,17 L4,17 C2.8954305,17 2,16.1045695 2,15 L2,3 C2,1.8954305 2.8954305,1 4,1 L14,1 C15.1045695,1 16,1.8954305 16,3 L16,11 L14.5,11 L14.5,3 C14.5,2.72385763 14.2761424,2.5 14,2.5 L4,2.5 C3.72385763,2.5 3.5,2.72385763 3.5,3 L3.5,15 C3.5,15.2761424 3.72385763,15.5 4,15.5 L11,15.5 Z" id="合并形状" fill-rule="nonzero"></path>
                    <g id="分组" transform="translate(5.000000, 5.000000)" fill-rule="nonzero">
                        <path d="M-1,5.25 C-1,4.83578644 -0.65896225,4.5 -0.247630596,4.5 L2.2476306,4.5 C2.66315274,4.5 3,4.83289862 3,5.25 C3,5.66421356 2.65896225,6 2.2476306,6 L-0.247630596,6 C-0.663152744,6 -1,5.66710138 -1,5.25 Z" id="路径" transform="translate(1.000000, 5.250000) rotate(-90.000000) translate(-1.000000, -5.250000) "></path>
                        <path d="M0.5,3.75 C0.5,3.33578644 0.83762455,3 1.24912262,3 L6.75087738,3 C7.16460638,3 7.5,3.33289862 7.5,3.75 C7.5,4.16421356 7.16237545,4.5 6.75087738,4.5 L1.24912262,4.5 C0.835393621,4.5 0.5,4.16710138 0.5,3.75 Z" id="路径" transform="translate(4.000000, 3.750000) rotate(-90.000000) translate(-4.000000, -3.750000) "></path>
                        <path d="M4.5,4.75 C4.5,4.33578644 4.82806396,4 5.25939238,4 L8.74060762,4 C9.16000845,4 9.5,4.33289862 9.5,4.75 C9.5,5.16421356 9.17193604,5.5 8.74060762,5.5 L5.25939238,5.5 C4.83999155,5.5 4.5,5.16710138 4.5,4.75 Z" id="路径" transform="translate(7.000000, 4.750000) rotate(-90.000000) translate(-7.000000, -4.750000) "></path>
                    </g>
                    <rect id="矩形" x="12" y="13.75" width="5" height="1.5" rx="0.75"></rect>
                    <rect id="矩形-copy" transform="translate(14.500000, 14.500000) rotate(-270.000000) translate(-14.500000, -14.500000) " x="12" y="13.75" width="5" height="1.5" rx="0.75"></rect>
                    <path d="M6,2 L12,2 L11.2763932,3.4472136 C11.1070012,3.78599762 10.7607381,4 10.381966,4 L7.61803399,4 C7.23926193,4 6.89299881,3.78599762 6.7236068,3.4472136 L6,2 Z" id="矩形"></path>
                </g>
            </g>
            <g id="ai/导入数据" stroke="#979797" transform="translate(54.000000, 46.000000)">
                <g id="分组-2" stroke="none">
                    <g id="分组" transform="translate(2.000000, 7.000000)" fill="#5D3D18" fill-rule="nonzero">
                        <path d="M-0.75,6.75 C-0.75,6.33578644 -0.405861855,6 0.00702667236,6 L1.49297333,6 C1.91106761,6 2.25,6.33289862 2.25,6.75 C2.25,7.16421356 1.90586185,7.5 1.49297333,7.5 L0.00702667236,7.5 C-0.411067614,7.5 -0.75,7.16710138 -0.75,6.75 Z" id="路径" transform="translate(0.750000, 6.750000) rotate(-90.000000) translate(-0.750000, -6.750000) "></path>
                        <path d="M1.75,5.25 C1.75,4.83578644 2.08977723,4.5 2.50990415,4.5 L6.99009585,4.5 C7.40977933,4.5 7.75,4.83289862 7.75,5.25 C7.75,5.66421356 7.41022277,6 6.99009585,6 L2.50990415,6 C2.09022067,6 1.75,5.66710138 1.75,5.25 Z" id="路径" transform="translate(4.750000, 5.250000) rotate(-90.000000) translate(-4.750000, -5.250000) "></path>
                        <path d="M8.75,4.25 C8.75,3.83578644 9.09375,3.5 9.50262058,3.5 L15.9973794,3.5 C16.4130403,3.5 16.75,3.83289862 16.75,4.25 C16.75,4.66421356 16.40625,5 15.9973794,5 L9.50262058,5 C9.08695971,5 8.75,4.66710138 8.75,4.25 Z" id="路径" transform="translate(12.750000, 4.250000) rotate(-90.000000) translate(-12.750000, -4.250000) "></path>
                        <path d="M6.25,5.75 C6.25,5.33578644 6.57806396,5 7.00939238,5 L10.4906076,5 C10.9100085,5 11.25,5.33289862 11.25,5.75 C11.25,6.16421356 10.921936,6.5 10.4906076,6.5 L7.00939238,6.5 C6.58999155,6.5 6.25,6.16710138 6.25,5.75 Z" id="路径" transform="translate(8.750000, 5.750000) rotate(-90.000000) translate(-8.750000, -5.750000) "></path>
                    </g>
                    <path d="M2.75,10 L6.24034627,6.50965373 C6.54470653,6.20529347 7.00967798,6.12983899 7.39466664,6.32233332 L10.1269965,7.68849824 C10.5013964,7.87569818 10.9527729,7.8099004 11.2581512,7.52360825 L14.75,4.25" id="路径-2" stroke="#5D3D18" stroke-width="1.5" stroke-linecap="round" stroke-linejoin="round"></path>
                    <path d="M12.7817324,1.9485338 L15.8672578,4.41004089 C16.0831245,4.58225058 16.1185155,4.89684866 15.9463058,5.11271536 C15.8514325,5.23164009 15.7075763,5.30090212 15.5554446,5.30090212 L12.9699191,5.30090212 C12.4176344,5.30090212 11.9699191,4.85318687 11.9699191,4.30090212 L11.9699191,2.33939503 C11.9699191,2.06325265 12.1937767,1.83939503 12.4699191,1.83939503 C12.5832203,1.83939503 12.6931623,1.87787617 12.7817324,1.9485338 Z" id="三角形" fill="#5D3D18" transform="translate(13.969919, 3.609919) rotate(-45.000000) translate(-13.969919, -3.609919) "></path>
                </g>
            </g>
            <g id="ai/导入数据" stroke="#979797" opacity="0.699999988" transform="translate(54.000000, 114.000000)">
                <g id="分组-2" stroke="none">
                    <g id="分组" transform="translate(2.000000, 7.000000)" fill="#5D3D18" fill-rule="nonzero">
                        <path d="M-0.75,6.75 C-0.75,6.33578644 -0.405861855,6 0.00702667236,6 L1.49297333,6 C1.91106761,6 2.25,6.33289862 2.25,6.75 C2.25,7.16421356 1.90586185,7.5 1.49297333,7.5 L0.00702667236,7.5 C-0.411067614,7.5 -0.75,7.16710138 -0.75,6.75 Z" id="路径" transform="translate(0.750000, 6.750000) rotate(-90.000000) translate(-0.750000, -6.750000) "></path>
                        <path d="M1.75,5.25 C1.75,4.83578644 2.08977723,4.5 2.50990415,4.5 L6.99009585,4.5 C7.40977933,4.5 7.75,4.83289862 7.75,5.25 C7.75,5.66421356 7.41022277,6 6.99009585,6 L2.50990415,6 C2.09022067,6 1.75,5.66710138 1.75,5.25 Z" id="路径" transform="translate(4.750000, 5.250000) rotate(-90.000000) translate(-4.750000, -5.250000) "></path>
                        <path d="M8.75,4.25 C8.75,3.83578644 9.09375,3.5 9.50262058,3.5 L15.9973794,3.5 C16.4130403,3.5 16.75,3.83289862 16.75,4.25 C16.75,4.66421356 16.40625,5 15.9973794,5 L9.50262058,5 C9.08695971,5 8.75,4.66710138 8.75,4.25 Z" id="路径" transform="translate(12.750000, 4.250000) rotate(-90.000000) translate(-12.750000, -4.250000) "></path>
                        <path d="M6.25,5.75 C6.25,5.33578644 6.57806396,5 7.00939238,5 L10.4906076,5 C10.9100085,5 11.25,5.33289862 11.25,5.75 C11.25,6.16421356 10.921936,6.5 10.4906076,6.5 L7.00939238,6.5 C6.58999155,6.5 6.25,6.16710138 6.25,5.75 Z" id="路径" transform="translate(8.750000, 5.750000) rotate(-90.000000) translate(-8.750000, -5.750000) "></path>
                    </g>
                    <path d="M2.75,10 L6.24034627,6.50965373 C6.54470653,6.20529347 7.00967798,6.12983899 7.39466664,6.32233332 L10.1269965,7.68849824 C10.5013964,7.87569818 10.9527729,7.8099004 11.2581512,7.52360825 L14.75,4.25" id="路径-2" stroke="#5D3D18" stroke-width="1.5" stroke-linecap="round" stroke-linejoin="round"></path>
                    <path d="M12.7817324,1.9485338 L15.8672578,4.41004089 C16.0831245,4.58225058 16.1185155,4.89684866 15.9463058,5.11271536 C15.8514325,5.23164009 15.7075763,5.30090212 15.5554446,5.30090212 L12.9699191,5.30090212 C12.4176344,5.30090212 11.9699191,4.85318687 11.9699191,4.30090212 L11.9699191,2.33939503 C11.9699191,2.06325265 12.1937767,1.83939503 12.4699191,1.83939503 C12.5832203,1.83939503 12.6931623,1.87787617 12.7817324,1.9485338 Z" id="三角形" fill="#5D3D18" transform="translate(13.969919, 3.609919) rotate(-45.000000) translate(-13.969919, -3.609919) "></path>
                </g>
            </g>
            <g id="弹窗/向下" opacity="0.449999988" transform="translate(54.000000, 136.000000)" fill="#BEB4A9">
                <path d="M9.45297794,7.72531757 L5.19716352,3.46950315 C4.93681399,3.20915362 4.93681399,2.78704364 5.19716352,2.52669411 C5.45751304,2.26634458 5.87962303,2.26634458 6.13997256,2.52669411 L10.7251131,7.11183466 C10.7841023,7.14251506 10.8394661,7.18261189 10.8889794,7.23212515 C11.1493289,7.49247468 11.1493289,7.91458467 10.8889794,8.17493419 L6.17493419,12.8889794 C5.91458467,13.1493289 5.49247468,13.1493289 5.23212515,12.8889794 C4.97177562,12.6286299 4.97177562,12.2065199 5.23212515,11.9461704 L9.45297794,7.72531757 Z" id="合并形状" transform="translate(8.043071, 7.707837) rotate(-270.000000) translate(-8.043071, -7.707837) "></path>
            </g>
            <g id="ai/删除" transform="translate(54.000000, 176.000000)" fill="#FFFFFF">
                <g id="更多">
                    <path d="M7.07692308,8.01973212 L4.10344841,5.04625745 C3.84309888,4.78590792 3.84309888,4.36379794 4.10344841,4.10344841 C4.36379794,3.84309888 4.78590792,3.84309888 5.04625745,4.10344841 L8.01973212,7.07692308 L10.9932068,4.10344841 C11.2535563,3.84309888 11.6756663,3.84309888 11.9360158,4.10344841 C12.1963654,4.36379794 12.1963654,4.78590792 11.9360158,5.04625745 L8.96254116,8.01973212 L11.9360158,10.9932068 C12.1963654,11.2535563 12.1963654,11.6756663 11.9360158,11.9360158 C11.6756663,12.1963654 11.2535563,12.1963654 10.9932068,11.9360158 L8.01973212,8.96254116 L5.04625745,11.9360158 C4.78590792,12.1963654 4.36379794,12.1963654 4.10344841,11.9360158 C3.84309888,11.6756663 3.84309888,11.2535563 4.10344841,10.9932068 L7.07692308,8.01973212 Z" id="合并形状" transform="translate(8.019732, 8.019732) rotate(-270.000000) translate(-8.019732, -8.019732) "></path>
                </g>
            </g>
            <g id="ai/删除灰色" transform="translate(54.000000, 196.000000)" fill="#606060">
                <g id="更多">
                    <path d="M7.07692308,8.01973212 L4.10344841,5.04625745 C3.84309888,4.78590792 3.84309888,4.36379794 4.10344841,4.10344841 C4.36379794,3.84309888 4.78590792,3.84309888 5.04625745,4.10344841 L8.01973212,7.07692308 L10.9932068,4.10344841 C11.2535563,3.84309888 11.6756663,3.84309888 11.9360158,4.10344841 C12.1963654,4.36379794 12.1963654,4.78590792 11.9360158,5.04625745 L8.96254116,8.01973212 L11.9360158,10.9932068 C12.1963654,11.2535563 12.1963654,11.6756663 11.9360158,11.9360158 C11.6756663,12.1963654 11.2535563,12.1963654 10.9932068,11.9360158 L8.01973212,8.96254116 L5.04625745,11.9360158 C4.78590792,12.1963654 4.36379794,12.1963654 4.10344841,11.9360158 C3.84309888,11.6756663 3.84309888,11.2535563 4.10344841,10.9932068 L7.07692308,8.01973212 Z" id="合并形状" transform="translate(8.019732, 8.019732) rotate(-270.000000) translate(-8.019732, -8.019732) "></path>
                </g>
            </g>
            <g id="ai/返回" transform="translate(54.000000, 216.000000)" stroke="#5D3D18" stroke-width="1.5">
                <circle id="椭圆形" cx="8" cy="8" r="6.36111111"></circle>
                <polyline id="路径-5" stroke-linecap="round" stroke-linejoin="round" transform="translate(8.736380, 7.847491) rotate(-225.000000) translate(-8.736380, -7.847491) " points="6.95860189 9.62526856 10.5141574 9.62526856 10.5141574 6.069713"></polyline>
            </g>
            <path d="M120.802776,218 L183.197224,218 C183.698754,218 184.167101,218.250652 184.4453,218.66795 L186,221 L118,221 L119.5547,218.66795 C119.832899,218.250652 120.301246,218 120.802776,218 Z" id="矩形备份" fill="#DCDCDC"></path>
            <path d="M120.802776,225 L183.197224,225 C183.698754,225 184.167101,225.250652 184.4453,225.66795 L186,228 L118,228 L119.5547,225.66795 C119.832899,225.250652 120.301246,225 120.802776,225 Z" id="矩形备份-2" fill="#BEBEBE"></path>
            <g id="icon/右三角" opacity="0.699999988" transform="translate(41.000000, 57.000000) rotate(-270.000000) translate(-41.000000, -57.000000) translate(36.000000, 52.000000)" fill="#5D3D18">
                <g id="icn_properties_drop" transform="translate(5.500000, 5.500000) rotate(-90.000000) translate(-5.500000, -5.500000) translate(1.000000, 3.000000)">
                    <path d="M0.825035752,1.3635692 C0.433021078,0.978680558 0.553443358,0.666666667 1.12225266,0.666666667 L8.19371668,0.666666667 C8.74987973,0.666666667 8.88130129,0.980297596 8.4909336,1.3635692 L5.36779003,4.42994034 C4.97577536,4.81482898 4.33854701,4.81321194 3.94817932,4.42994034 L0.825035752,1.3635692 Z" id="Rectangle-9"></path>
                </g>
            </g>
            <g id="icon/右三角" transform="translate(41.000000, 71.000000) rotate(-270.000000) translate(-41.000000, -71.000000) translate(36.000000, 66.000000)" fill="#5D3D18">
                <g id="icn_properties_drop" transform="translate(5.500000, 5.500000) rotate(-90.000000) translate(-5.500000, -5.500000) translate(1.000000, 3.000000)">
                    <path d="M0.825035752,1.3635692 C0.433021078,0.978680558 0.553443358,0.666666667 1.12225266,0.666666667 L8.19371668,0.666666667 C8.74987973,0.666666667 8.88130129,0.980297596 8.4909336,1.3635692 L5.36779003,4.42994034 C4.97577536,4.81482898 4.33854701,4.81321194 3.94817932,4.42994034 L0.825035752,1.3635692 Z" id="Rectangle-9"></path>
                </g>
            </g>
            <g id="神经网络" transform="translate(76.000000, 70.000000)">
                <g id="分组-2" transform="translate(4.000000, 4.000000)">
                    <g id="椭圆形-+-椭圆形-copy-3-Mask" transform="translate(1.578947, 1.578947)">
                        <mask id="mask-2" fill="white">
                            <use xlink:href="#path-1"></use>
                        </mask>
                        <g id="Mask">
                            <use fill="#3DD1AE" xlink:href="#path-1"></use>
                            <use fill="#FFFFFF" xlink:href="#path-1"></use>
                        </g>
                        <path d="M16.1842105,48.1578947 C25.9945317,48.1578947 33.9473684,40.2050581 33.9473684,30.3947368 C33.9473684,23.8545227 32.1052632,16.3545227 28.4210526,7.89473684 C22.7309144,11.8518951 18.651967,14.483474 16.1842105,15.7894737 C4.7900327,21.8195631 -3.94736842,8.4845603 -3.94736842,13.4210526 C-3.94736842,23.2313738 6.37388931,48.1578947 16.1842105,48.1578947 Z" id="椭圆形" fill="url(#linearGradient-3)" filter="url(#filter-4)" mask="url(#mask-2)"></path>
                        <path d="M7.5,19.7368421 C10.8348322,19.7368421 11.3288396,15.6965422 13.4210526,13.4210526 C15.2952773,11.3826472 20.5263158,4.5663222 20.5263158,1.57894737 C20.5263158,-4.74325964 13.822207,-3.15789474 7.5,-3.15789474 C1.177793,-3.15789474 -3.94736842,1.96726668 -3.94736842,8.28947368 C-3.94736842,14.6116807 1.177793,19.7368421 7.5,19.7368421 Z" id="椭圆形-copy-3" fill="url(#linearGradient-5)" filter="url(#filter-6)" mask="url(#mask-2)"></path>
                    </g>
                    <path d="M15,30 C23.2842712,30 30,23.2842712 30,15 C30,6.71572875 23.2842712,0 15,0 C6.71572875,0 0,6.71572875 0,15 C0,23.2842712 6.71572875,30 15,30 Z" id="椭圆形-copy" stroke="#FF9948" stroke-width="0.789473684" stroke-linecap="round" stroke-linejoin="round" stroke-dasharray="0.7894736842105263,1.578947368421053"></path>
                </g>
            </g>
            <g id="上传/本地" opacity="0.300000012" transform="translate(143.000000, 27.000000) rotate(-360.000000) translate(-143.000000, -27.000000) translate(118.000000, 2.000000)" fill="#787878">
                <g id="下拉/打开本地">
                    <g id="分组-16" transform="translate(6.000000, 6.000000)" fill-rule="nonzero">
                        <path d="M25.4067961,20.8154261 L20.4265372,25.795685 C19.8841423,26.3380799 19.0047465,26.3380799 18.4623517,25.795685 L13.4820928,20.8154261 C12.9396979,20.2730312 12.9396979,19.3936354 13.4820928,18.8512406 C13.7425599,18.5907734 14.0958293,18.4444444 14.4641855,18.4444444 L24.4247034,18.4444444 C25.1917655,18.4444444 25.8135923,19.0662712 25.8135923,19.8333333 C25.8135923,20.2016896 25.6672633,20.5549589 25.4067961,20.8154261 Z" id="Rectangle-74-Copy-2" transform="translate(19.444444, 22.611111) rotate(-180.000000) translate(-19.444444, -22.611111) "></path>
                        <path d="M4.16666667,14.2777778 L4.16666667,32.3333333 C4.16666667,33.1003955 4.7884934,33.7222222 5.55555556,33.7222222 L33.3333333,33.7222222 C34.1003955,33.7222222 34.7222222,33.1003955 34.7222222,32.3333333 L34.7222222,15.6666667 C34.7222222,14.8996045 34.1003955,14.2777778 33.3333333,14.2777778 L4.16666667,14.2777778 Z M-8.8817842e-16,10.1111111 L33.3333333,10.1111111 C36.4015819,10.1111111 38.8888889,12.5984181 38.8888889,15.6666667 L38.8888889,32.3333333 C38.8888889,35.4015819 36.4015819,37.8888889 33.3333333,37.8888889 L5.55555556,37.8888889 C2.48730695,37.8888889 -8.8817842e-16,35.4015819 -8.8817842e-16,32.3333333 L-8.8817842e-16,10.1111111 Z" id="矩形"></path>
                        <path d="M21.411632,4.94546897 C21.1882317,4.37520835 20.6381432,4 20.0254913,4 L5.48863846,4 C4.66648614,4 4,4.66624293 4,5.48809524 L4,9 L23,9 L21.411632,4.94546897 Z M5.95238095,0 L20.4839291,0 C22.9336425,0 25.1331935,1.40077784 26.0264689,3.52975082 L30,13 L0,13 L0,5.55555556 C0,2.48730695 2.66497173,0 5.95238095,0 Z" id="矩形-copy-33"></path>
                    </g>
                </g>
            </g>
            <g id="上传/本地" opacity="0.600000024" transform="translate(143.000000, 135.000000) rotate(-360.000000) translate(-143.000000, -135.000000) translate(118.000000, 110.000000)" fill="#787878">
                <g id="下拉/打开本地">
                    <g id="分组-16" transform="translate(6.000000, 6.000000)" fill-rule="nonzero">
                        <path d="M25.4067961,20.8154261 L20.4265372,25.795685 C19.8841423,26.3380799 19.0047465,26.3380799 18.4623517,25.795685 L13.4820928,20.8154261 C12.9396979,20.2730312 12.9396979,19.3936354 13.4820928,18.8512406 C13.7425599,18.5907734 14.0958293,18.4444444 14.4641855,18.4444444 L24.4247034,18.4444444 C25.1917655,18.4444444 25.8135923,19.0662712 25.8135923,19.8333333 C25.8135923,20.2016896 25.6672633,20.5549589 25.4067961,20.8154261 Z" id="Rectangle-74-Copy-2" transform="translate(19.444444, 22.611111) rotate(-180.000000) translate(-19.444444, -22.611111) "></path>
                        <path d="M4.16666667,14.2777778 L4.16666667,32.3333333 C4.16666667,33.1003955 4.7884934,33.7222222 5.55555556,33.7222222 L33.3333333,33.7222222 C34.1003955,33.7222222 34.7222222,33.1003955 34.7222222,32.3333333 L34.7222222,15.6666667 C34.7222222,14.8996045 34.1003955,14.2777778 33.3333333,14.2777778 L4.16666667,14.2777778 Z M-8.8817842e-16,10.1111111 L33.3333333,10.1111111 C36.4015819,10.1111111 38.8888889,12.5984181 38.8888889,15.6666667 L38.8888889,32.3333333 C38.8888889,35.4015819 36.4015819,37.8888889 33.3333333,37.8888889 L5.55555556,37.8888889 C2.48730695,37.8888889 -8.8817842e-16,35.4015819 -8.8817842e-16,32.3333333 L-8.8817842e-16,10.1111111 Z" id="矩形"></path>
                        <path d="M21.411632,4.94546897 C21.1882317,4.37520835 20.6381432,4 20.0254913,4 L5.48863846,4 C4.66648614,4 4,4.66624293 4,5.48809524 L4,9 L23,9 L21.411632,4.94546897 Z M5.95238095,0 L20.4839291,0 C22.9336425,0 25.1331935,1.40077784 26.0264689,3.52975082 L30,13 L0,13 L0,5.55555556 C0,2.48730695 2.66497173,0 5.95238095,0 Z" id="矩形-copy-33"></path>
                    </g>
                </g>
            </g>
            <g id="上传/拍照" opacity="0.300000012" transform="translate(143.000000, 81.000000) rotate(-360.000000) translate(-143.000000, -81.000000) translate(118.000000, 56.000000)" fill="#787878">
                <path d="M41,24 L45,24 L45,38.8888889 C45,40.0548234 44.0548234,41 42.8888889,41 L7.11111111,41 C5.94517664,41 5,40.0548234 5,38.8888889 L5,17.1111111 C5,15.9451766 5.94517664,15 7.11111111,15 L15,15 L16.5370564,10.0814195 C16.8124741,9.20008293 17.6287014,8.6 18.5520697,8.6 L31.4479303,8.6 C32.3712986,8.6 33.1875259,9.20008293 33.4629436,10.0814195 L35,15 L36,15 L36,19 L35,19 C33.2504601,19 31.7039241,17.8630008 31.1820801,16.1931 L30.0592363,12.6 L19.9407637,12.6 L18.8179199,16.1931 C18.2960759,17.8630008 16.7495399,19 15,19 L9,19 L9,37 L41,37 L41,24 Z M26,25 C24.8727979,25 24,25.9187347 24,27 C24,28.0812653 24.8727979,29 26,29 C27.1272021,29 28,28.0812653 28,27 C28,25.9187347 27.1272021,25 26,25 Z M26,33 C22.6862915,33 20,30.3137085 20,27 C20,23.6862915 22.6862915,21 26,21 C29.3137085,21 32,23.6862915 32,27 C32,30.3137085 29.3137085,33 26,33 Z" id="形状" fill-rule="nonzero"></path>
                <path d="M41,15 L41,14 C41,12.8954305 41.8954305,12 43,12 C44.1045695,12 45,12.8954305 45,14 L45,15 L46,15 C47.1045695,15 48,15.8954305 48,17 C48,18.1045695 47.1045695,19 46,19 L45,19 L45,20 C45,21.1045695 44.1045695,22 43,22 C41.8954305,22 41,21.1045695 41,20 L41,19 L40,19 C38.8954305,19 38,18.1045695 38,17 C38,15.8954305 38.8954305,15 40,15 L41,15 Z" id="合并形状" fill-rule="evenodd"></path>
            </g>
            <g id="上传/拍照" opacity="0.600000024" transform="translate(143.000000, 189.000000) rotate(-360.000000) translate(-143.000000, -189.000000) translate(118.000000, 164.000000)" fill="#787878">
                <path d="M41,24 L45,24 L45,38.8888889 C45,40.0548234 44.0548234,41 42.8888889,41 L7.11111111,41 C5.94517664,41 5,40.0548234 5,38.8888889 L5,17.1111111 C5,15.9451766 5.94517664,15 7.11111111,15 L15,15 L16.5370564,10.0814195 C16.8124741,9.20008293 17.6287014,8.6 18.5520697,8.6 L31.4479303,8.6 C32.3712986,8.6 33.1875259,9.20008293 33.4629436,10.0814195 L35,15 L36,15 L36,19 L35,19 C33.2504601,19 31.7039241,17.8630008 31.1820801,16.1931 L30.0592363,12.6 L19.9407637,12.6 L18.8179199,16.1931 C18.2960759,17.8630008 16.7495399,19 15,19 L9,19 L9,37 L41,37 L41,24 Z M26,25 C24.8727979,25 24,25.9187347 24,27 C24,28.0812653 24.8727979,29 26,29 C27.1272021,29 28,28.0812653 28,27 C28,25.9187347 27.1272021,25 26,25 Z M26,33 C22.6862915,33 20,30.3137085 20,27 C20,23.6862915 22.6862915,21 26,21 C29.3137085,21 32,23.6862915 32,27 C32,30.3137085 29.3137085,33 26,33 Z" id="形状" fill-rule="nonzero"></path>
                <path d="M41,15 L41,14 C41,12.8954305 41.8954305,12 43,12 C44.1045695,12 45,12.8954305 45,14 L45,15 L46,15 C47.1045695,15 48,15.8954305 48,17 C48,18.1045695 47.1045695,19 46,19 L45,19 L45,20 C45,21.1045695 44.1045695,22 43,22 C41.8954305,22 41,21.1045695 41,20 L41,19 L40,19 C38.8954305,19 38,18.1045695 38,17 C38,15.8954305 38.8954305,15 40,15 L41,15 Z" id="合并形状" fill-rule="evenodd"></path>
            </g>
            <g id="弹窗/向下" opacity="0.800000012" transform="translate(62.000000, 164.000000) rotate(-180.000000) translate(-62.000000, -164.000000) translate(54.000000, 156.000000)" fill="#BEB4A9">
                <path d="M9.45297794,7.72531757 L5.19716352,3.46950315 C4.93681399,3.20915362 4.93681399,2.78704364 5.19716352,2.52669411 C5.45751304,2.26634458 5.87962303,2.26634458 6.13997256,2.52669411 L10.7251131,7.11183466 C10.7841023,7.14251506 10.8394661,7.18261189 10.8889794,7.23212515 C11.1493289,7.49247468 11.1493289,7.91458467 10.8889794,8.17493419 L6.17493419,12.8889794 C5.91458467,13.1493289 5.49247468,13.1493289 5.23212515,12.8889794 C4.97177562,12.6286299 4.97177562,12.2065199 5.23212515,11.9461704 L9.45297794,7.72531757 Z" id="合并形状" transform="translate(8.043071, 7.707837) rotate(-270.000000) translate(-8.043071, -7.707837) "></path>
            </g>
            <g id="ai/刷新" transform="translate(76.000000, 112.000000)" fill="#5D3D18">
                <g id="btn_replay_nor" transform="translate(16.000000, 16.000000) scale(-1, 1) translate(-16.000000, -16.000000) ">
                    <path d="M16,10.7598814 C12.5635616,10.7598814 9.77777778,13.5099956 9.77777778,16.9024333 C9.77777778,20.294871 12.5635616,23.0449852 16,23.0449852 C19.4364384,23.0449852 22.2222222,20.294871 22.2222222,16.9024333 C22.2222222,16.1446734 22.083599,15.4071501 21.8165059,14.7153504 C21.6416652,14.2624943 21.8718028,13.7554604 22.3305325,13.5828584 C22.7892622,13.4102564 23.3028725,13.6374472 23.4777132,14.0903033 C23.8215757,14.9809441 24,15.9302225 24,16.9024333 C24,21.264139 20.418278,24.8 16,24.8 C11.581722,24.8 8,21.264139 8,16.9024333 C8,12.5407277 11.581722,9.00486661 16,9.00486661 L16,7.33671949 C16,7.06057711 16.2238576,6.83671949 16.5,6.83671949 C16.6031733,6.83671949 16.7038204,6.86863618 16.7881391,6.92809267 L20.3982802,9.4737472 C20.6239586,9.63288201 20.6779028,9.94483473 20.518768,10.1705131 C20.4857952,10.2172738 20.4450409,10.258028 20.3982802,10.2910008 L16.7881391,12.8366554 C16.5624607,12.9957902 16.250508,12.941846 16.0913732,12.7161676 C16.0319167,12.6318489 16,12.5312018 16,12.4280286 L16,10.7598814 Z" id="合并形状" fill-rule="nonzero"></path>
                </g>
            </g>
            <g id="ai/刷新" opacity="0.699999988" transform="translate(76.000000, 148.000000)" fill="#5D3D18">
                <g id="btn_replay_nor" transform="translate(16.000000, 16.000000) scale(-1, 1) translate(-16.000000, -16.000000) ">
                    <path d="M16,10.7598814 C12.5635616,10.7598814 9.77777778,13.5099956 9.77777778,16.9024333 C9.77777778,20.294871 12.5635616,23.0449852 16,23.0449852 C19.4364384,23.0449852 22.2222222,20.294871 22.2222222,16.9024333 C22.2222222,16.1446734 22.083599,15.4071501 21.8165059,14.7153504 C21.6416652,14.2624943 21.8718028,13.7554604 22.3305325,13.5828584 C22.7892622,13.4102564 23.3028725,13.6374472 23.4777132,14.0903033 C23.8215757,14.9809441 24,15.9302225 24,16.9024333 C24,21.264139 20.418278,24.8 16,24.8 C11.581722,24.8 8,21.264139 8,16.9024333 C8,12.5407277 11.581722,9.00486661 16,9.00486661 L16,7.33671949 C16,7.06057711 16.2238576,6.83671949 16.5,6.83671949 C16.6031733,6.83671949 16.7038204,6.86863618 16.7881391,6.92809267 L20.3982802,9.4737472 C20.6239586,9.63288201 20.6779028,9.94483473 20.518768,10.1705131 C20.4857952,10.2172738 20.4450409,10.258028 20.3982802,10.2910008 L16.7881391,12.8366554 C16.5624607,12.9957902 16.250508,12.941846 16.0913732,12.7161676 C16.0319167,12.6318489 16,12.5312018 16,12.4280286 L16,10.7598814 Z" id="合并形状" fill-rule="nonzero"></path>
                </g>
            </g>
            <g id="ai/减" transform="translate(36.000000, 36.000000)" fill="#606060">
                <g id="更多">
                    <rect id="合并形状" x="2.52777778" y="5.56111111" width="7.07777778" height="1.01111111"></rect>
                </g>
            </g>
            <g id="ai/添加灰色" transform="translate(36.000000, 20.000000)" fill="#606060">
                <g id="更多">
                    <path d="M5.56111111,5.56111111 L5.56111111,3.03333333 C5.56111111,2.75412271 5.78745604,2.52777778 6.06666667,2.52777778 C6.34587729,2.52777778 6.57222222,2.75412271 6.57222222,3.03333333 L6.57222222,5.56111111 L9.1,5.56111111 C9.37921062,5.56111111 9.60555556,5.78745604 9.60555556,6.06666667 C9.60555556,6.34587729 9.37921062,6.57222222 9.1,6.57222222 L6.57222222,6.57222222 L6.57222222,9.1 C6.57222222,9.37921062 6.34587729,9.60555556 6.06666667,9.60555556 C5.78745604,9.60555556 5.56111111,9.37921062 5.56111111,9.1 L5.56111111,6.57222222 L3.03333333,6.57222222 C2.75412271,6.57222222 2.52777778,6.34587729 2.52777778,6.06666667 C2.52777778,5.78745604 2.75412271,5.56111111 3.03333333,5.56111111 L5.56111111,5.56111111 Z" id="合并形状"></path>
                </g>
            </g>
            <g id="添加/橙色" transform="translate(36.000000, 95.000000)" fill="#FF9948">
                <path d="M5,5 L5,-9.18485099e-17 L6,9.18485099e-17 L6,5 L11,5 L11,6 L6,6 L6,11 L5,11 L5,6 L0,6 L0,5 L5,5 Z" id="合并形状"></path>
            </g>
            <g id="添加/浅黄色" transform="translate(36.000000, 80.000000)" fill="#C09A28">
                <path d="M5,5 L5,-9.18485099e-17 L6,9.18485099e-17 L6,5 L11,5 L11,6 L6,6 L6,11 L5,11 L5,6 L0,6 L0,5 L5,5 Z" id="合并形状"></path>
            </g>
            <g id="ai/删除备份" opacity="0.699999988" transform="translate(54.000000, 236.000000)" fill="#5D3D18">
                <g id="更多">
                    <path d="M7.07692308,8.01973212 L4.10344841,5.04625745 C3.84309888,4.78590792 3.84309888,4.36379794 4.10344841,4.10344841 C4.36379794,3.84309888 4.78590792,3.84309888 5.04625745,4.10344841 L8.01973212,7.07692308 L10.9932068,4.10344841 C11.2535563,3.84309888 11.6756663,3.84309888 11.9360158,4.10344841 C12.1963654,4.36379794 12.1963654,4.78590792 11.9360158,5.04625745 L8.96254116,8.01973212 L11.9360158,10.9932068 C12.1963654,11.2535563 12.1963654,11.6756663 11.9360158,11.9360158 C11.6756663,12.1963654 11.2535563,12.1963654 10.9932068,11.9360158 L8.01973212,8.96254116 L5.04625745,11.9360158 C4.78590792,12.1963654 4.36379794,12.1963654 4.10344841,11.9360158 C3.84309888,11.6756663 3.84309888,11.2535563 4.10344841,10.9932068 L7.07692308,8.01973212 Z" id="合并形状" transform="translate(8.019732, 8.019732) rotate(-270.000000) translate(-8.019732, -8.019732) "></path>
                </g>
            </g>
        </g>
    </g>
</svg>