<?xml version="1.0" encoding="UTF-8"?>
<svg width="228px" height="354px" viewBox="0 0 228 354" version="1.1" xmlns="http://www.w3.org/2000/svg" xmlns:xlink="http://www.w3.org/1999/xlink">
    <!-- Generator: Sketch 53.2 (72643) - https://sketchapp.com -->
    <title>CssSprite_laboratory</title>
    <desc>Created with Sketch.</desc>
    <defs>
        <path d="M19.5144958,10.9086975 L31.5708451,18.1425071 C32.0444254,18.4266552 32.1979905,19.0409155 31.9138423,19.5144958 C31.8293925,19.6552454 31.7115947,19.7730432 31.5708451,19.8574929 L19.5144958,27.0913025 C19.0409155,27.3754507 18.4266552,27.2218856 18.1425071,26.7483054 C18.0492578,26.59289 18,26.4150536 18,26.2338096 L18,11.7661904 C18,11.2139056 18.4477153,10.7661904 19,10.7661904 C19.1812439,10.7661904 19.3590804,10.8154482 19.5144958,10.9086975 Z" id="path-1"></path>
        <rect id="path-3" x="0" y="0" width="54" height="54"></rect>
        <path d="M11.1111111,33 C4.97461389,33 0,28.0751322 0,22 C0,15.9248678 4.97461389,11 11.1111111,11 C13.4699052,11 15.6570265,11.7276685 17.4559317,12.9686276 C15.8327827,10.6625198 13.3402721,9.00084959 10.4485679,8.44908319 C13.300603,3.40764132 18.7483332,0 25,0 C34.2047458,0 41.6666667,7.38730163 41.6666667,16.5 C41.6666667,18.9934186 41.1080073,21.3576602 40.1078467,23.4767383 C41.839734,21.5926098 43.1369914,19.3099693 43.8427533,16.784114 C47.3898199,17.7314918 50,20.938974 50,24.75 C50,29.3063492 46.2690396,33 41.6666667,33 L11.1111111,33 Z" id="path-5"></path>
        <path d="M11.1111111,33 C4.97461389,33 0,28.0751322 0,22 C0,15.9248678 4.97461389,11 11.1111111,11 C13.4699052,11 15.6570265,11.7276685 17.4559317,12.9686276 C15.8327827,10.6625198 13.3402721,9.00084959 10.4485679,8.44908319 C13.300603,3.40764132 18.7483332,0 25,0 C34.2047458,0 41.6666667,7.38730163 41.6666667,16.5 C41.6666667,18.9934186 41.1080073,21.3576602 40.1078467,23.4767383 C41.839734,21.5926098 43.1369914,19.3099693 43.8427533,16.784114 C47.3898199,17.7314918 50,20.938974 50,24.75 C50,29.3063492 46.2690396,33 41.6666667,33 L11.1111111,33 Z" id="path-6"></path>
    </defs>
    <g id="积木实验室" stroke="none" stroke-width="1" fill="none" fill-rule="evenodd">
        <g id="CssSprite_laboratory">
            <g id="icn/lab_gameAI" transform="translate(103.000000, 2.000000)">
                <g id="分组-3" transform="translate(3.000000, 10.000000)">
                    <ellipse id="椭圆形" fill="#FFD756" fill-rule="nonzero" cx="28.5882353" cy="20" rx="21.1764706" ry="20"></ellipse>
                    <ellipse id="椭圆形" fill="#FFFFFF" fill-rule="nonzero" transform="translate(38.622961, 13.274964) rotate(-30.000000) translate(-38.622961, -13.274964) " cx="38.6229614" cy="13.2749641" rx="7.92960836" ry="10.0147265"></ellipse>
                    <path d="M11.6224601,28.9187113 C18.6847296,31.1203652 24.9579587,28.9433251 25.6341096,24.0061054 C26.3102605,19.0489833 21.1332885,13.3205693 14.071019,11.2613853 C7.00874956,9.2375832 0.735520392,11.5405883 0.0593695172,16.3552404 C-0.616781358,21.1499902 4.56019064,26.7524393 11.6224601,28.9187113 Z" id="椭圆形" fill="#FDEB71" fill-rule="nonzero"></path>
                    <ellipse id="椭圆形" fill="#554E46" fill-rule="nonzero" transform="translate(43.751310, 13.441020) rotate(-15.000000) translate(-43.751310, -13.441020) " cx="43.7513095" cy="13.44102" rx="2.64602754" ry="3.68566434"></ellipse>
                    <path d="M53.6480674,25.7894737 L53.6480674,25.7894737 C53.6480674,27.2428546 52.4698694,28.4210526 51.0164885,28.4210526 L48.7058824,28.4210526 L49.0405538,29.0446691 C49.8632048,30.5775719 49.287432,32.4871255 47.7545292,33.3097765 C47.2965145,33.5555757 46.7847904,33.6842105 46.2649878,33.6842105 L39.1455108,33.6842105 C36.238749,33.6842105 33.8823529,31.3278145 33.8823529,28.4210526 L33.8823529,28.4210526 C33.8823529,25.5142908 36.238749,23.1578947 39.1455108,23.1578947 L51.0164885,23.1578947 C52.4698694,23.1578947 53.6480674,24.3360928 53.6480674,25.7894737 Z" id="路径" fill="#FF7D61" fill-rule="nonzero"></path>
                    <path d="M51.8823529,30.5210526 L51.8823529,31.0526316 C51.8823529,32.5060125 50.7041549,33.6842105 49.250774,33.6842105 L39.1455108,33.6842105 C36.238749,33.6842105 33.8823529,31.3278145 33.8823529,28.4210526 L33.8823529,28.4210526 L49.7823529,28.4210526 C50.9421509,28.4210526 51.8823529,29.3612547 51.8823529,30.5210526 Z" id="路径" fill="#FF6A4A" fill-rule="nonzero"></path>
                </g>
            </g>
            <g id="icn/lab_认知AI" transform="translate(103.000000, 66.000000)">
                <g id="分组-3" transform="translate(5.000000, 9.000000)">
                    <polygon id="路径-2" fill="#00C7D0" fill-rule="nonzero" points="9.35837717 4.92802671 11.5612425 3.33209903 18.4050041 13.0021477 16.2021388 14.5980754"></polygon>
                    <ellipse id="椭圆形" fill="#00C7D0" fill-rule="nonzero" cx="9.79017857" cy="3.41779891" rx="3.41517857" ry="3.41779891"></ellipse>
                    <polygon id="路径-2" fill="#00C7D0" fill-rule="nonzero" points="41.6416228 4.92802671 34.7978612 14.5980754 32.5949959 13.0021477 39.4387575 3.33209903"></polygon>
                    <ellipse id="椭圆形" fill="#00C7D0" fill-rule="nonzero" transform="translate(41.209821, 3.417799) scale(-1, 1) translate(-41.209821, -3.417799) " cx="41.2098214" cy="3.41779891" rx="3.41517857" ry="3.41779891"></ellipse>
                    <g id="分组-2" transform="translate(0.910714, 5.468478)" fill-rule="nonzero">
                        <path d="M2.82033571,21.5315217 L3.08928571,21.5315217 L3.08928571,33.5315217 L2.82033571,33.5315217 C1.31201845,33.5315217 0.0892857143,32.308789 0.0892857143,30.8004717 L0.0892857143,24.2625717 C0.0892857143,22.7542545 1.31201845,21.5315217 2.82033571,21.5315217 Z" id="矩形" fill="#FF6A5A"></path>
                        <path d="M45.0892857,21.5315217 L45.3582357,21.5315217 C46.866553,21.5315217 48.0892857,22.7542545 48.0892857,24.2625717 L48.0892857,30.8004717 C48.0892857,32.308789 46.866553,33.5315217 45.3582357,33.5315217 L45.0892857,33.5315217 L45.0892857,21.5315217 Z" id="矩形" fill="#FF6A5A"></path>
                        <path d="M24.0964869,3.94199709e-13 L24.0964869,3.94351218e-13 C34.5859201,3.92424341e-13 43.0892857,8.50336565 43.0892857,18.9927988 L43.0892857,32.8108696 C43.0892857,34.2130854 41.4244629,35.5451087 40.0618132,35.5451087 L8.11675824,35.5451087 C6.75410853,35.5451087 5.08928571,34.2130854 5.08928571,32.8108696 L5.09535121,18.9927969 C5.09995618,8.50201651 13.6057055,3.96278344e-13 24.0964869,3.94351218e-13 Z" id="矩形" fill="#00C7D0"></path>
                    </g>
                    <path d="M16.6415631,19 L33.4,19 C36.6747237,19 39,21.2385763 39,24 C39,26.7614237 36.6747237,29 33.4,29 L16.6415631,29 C13.3668394,29 11,26.7614237 11,24 C11,21.2385763 13.3668394,19 16.6415631,19 Z" id="矩形" fill="#FFFFFF" fill-rule="nonzero"></path>
                </g>
            </g>
            <g id="icn/AI2.0" transform="translate(103.000000, 196.000000)">
                <g id="分组-9" transform="translate(8.000000, 5.000000)">
                    <g id="分组-8">
                        <polygon id="多边形" fill="#907EFF" points="22.8175676 5.76923077 39.593884 15.5448718 39.593884 35.0961538 22.8175676 44.8717949 6.04125113 35.0961538 6.04125113 15.5448718"></polygon>
                        <path d="M23.7702703,27.2001726 L23.7702703,42.5265458 C25.2503795,43.0545412 26.3108108,44.4792066 26.3108108,46.1538462 C26.3108108,48.2780183 24.6046527,50 22.5,50 C20.3953473,50 18.6891892,48.2780183 18.6891892,46.1538462 C18.6891892,44.4792066 19.7496205,43.0545412 21.2297297,42.5265458 L21.2297297,27.2001726 L7.95670125,34.8633592 C8.23949844,36.4091691 7.53591762,38.0398623 6.08563725,38.877182 C4.24605024,39.9392681 1.90169125,39.3226827 0.849364905,37.5 C-0.202961442,35.6773173 0.435239424,33.3387502 2.27482644,32.2766641 C3.72510681,31.4393443 5.48911894,31.6453721 6.68643098,32.6631866 L19.9594595,25 L6.68643098,17.3368134 C5.48911894,18.3546279 3.72510681,18.5606557 2.27482644,17.7233359 C0.435239424,16.6612498 -0.202961442,14.3226827 0.849364905,12.5 C1.90169125,10.6773173 4.24605024,10.0607319 6.08563725,11.122818 C7.53591762,11.9601377 8.23949844,13.5908309 7.95670125,15.1366408 L21.2297297,22.7998274 L21.2297297,7.47345422 C19.7496205,6.94545883 18.6891892,5.52079337 18.6891892,3.84615385 C18.6891892,1.72198173 20.3953473,-3.55271368e-15 22.5,-3.55271368e-15 C24.6046527,-3.55271368e-15 26.3108108,1.72198173 26.3108108,3.84615385 C26.3108108,5.52079337 25.2503795,6.94545883 23.7702703,7.47345422 L23.7702703,22.7998274 L37.0432988,15.1366408 C36.7605016,13.5908309 37.4640824,11.9601377 38.9143628,11.122818 C40.7539498,10.0607319 43.0983087,10.6773173 44.1506351,12.5 C45.2029614,14.3226827 44.5647606,16.6612498 42.7251736,17.7233359 C41.2748932,18.5606557 39.5108811,18.3546279 38.313569,17.3368134 L25.0405405,25 L38.313569,32.6631866 C39.5108811,31.6453721 41.2748932,31.4393443 42.7251736,32.2766641 C44.5647606,33.3387502 45.2029614,35.6773173 44.1506351,37.5 C43.0983087,39.3226827 40.7539498,39.9392681 38.9143628,38.877182 C37.4640824,38.0398623 36.7605016,36.4091691 37.0432988,34.8633592 L23.7702703,27.2001726 Z" id="合并形状" fill="#6DDDFF" fill-rule="nonzero"></path>
                        <polygon id="多边形" fill="#FFFFFF" points="22.5 13.4615385 32.4007769 19.2307692 32.4007769 30.7692308 22.5 36.5384615 12.5992231 30.7692308 12.5992231 19.2307692"></polygon>
                        <polygon id="多边形" fill="#6DDDFF" points="22.5 17.3076923 29.1005179 21.1538462 29.1005179 28.8461538 22.5 32.6923077 15.8994821 28.8461538 15.8994821 21.1538462"></polygon>
                        <g id="分组-7" transform="translate(18.689189, 0.000000)"></g>
                    </g>
                </g>
            </g>
            <g id="icn_lab_AR" transform="translate(2.000000, 242.000000)">
                <path d="M22,14 C22.3129363,14 22.5943858,13.8311563 22.7343378,13.5594688 L24.5436697,10.0470312 C25.1941715,8.78440625 26.5016463,8 27.9560274,8 L38.0439726,8 C39.4983537,8 40.8058285,8.78440625 41.4563303,10.0469375 L43.2656622,13.5594687 C43.4056142,13.83125 43.6870637,14 44,14 L48,14 C50.7614237,14 53,16.2385763 53,19 L53,43 C53,45.7614237 50.7614237,48 48,48 L6,48 C3.23857625,48 1,45.7614237 1,43 L1,19 C1,16.2385763 3.23857625,14 6,14 L22,14 Z" id="Combined-Shape" fill="#FDB772"></path>
                <path d="M8,12 L12,12 C13.1045695,12 14,12.8954305 14,14 L14,14 L6,14 L6,14 C6,12.8954305 6.8954305,12 8,12 Z" id="Rectangle-372" fill="#F0726E"></path>
                <path d="M6,14 L13,14 L13,48 L6,48 C3.23857625,48 1,45.7614237 1,43 L1,19 C1,16.2385763 3.23857625,14 6,14 Z" id="Rectangle-12" fill="#FF9948"></path>
                <g id="lens" transform="translate(17.000000, 8.000000)">
                    <path d="M24.9707543,3.12073227 L24.4176343,2.0469375 C23.7671325,0.78440625 22.4596577,0 21.0052767,0 L10.9173314,0 C9.46295038,0 8.15547555,0.78440625 7.50497375,2.04703125 C7.31145827,2.42264509 7,3.02724904 7,3.02724904 L24.9707543,3.12073227 Z" id="Path" fill="#FF9948"></path>
                    <circle id="Combined-Shape" fill="#FFFFFF" cx="16" cy="22" r="16"></circle>
                    <path d="M16,35 C23.1797017,35 29,29.1797017 29,22 C29,14.8202983 23.1797017,9 16,9 C8.82029825,9 3,14.8202983 3,22 C3,29.1797017 8.82029825,35 16,35 Z" id="Oval-5" fill="#74635E"></path>
                    <g id="light" transform="translate(7.000000, 13.000000)">
                        <circle id="Oval" fill="#A69792" cx="9" cy="9" r="5"></circle>
                        <path d="M4.98586166,0.94256134 C2.03008744,2.4179548 0,5.47190124 0,9 M12.2163285,17.4082671 C15.5984431,16.1137579 18,12.8373358 18,9" id="Oval-Copy" stroke="#979797" stroke-width="4"></path>
                    </g>
                </g>
            </g>
            <g id="icn_lab_video" transform="translate(2.000000, 298.000000)">
                <g id="Group-6" transform="translate(4.000000, 8.000000)">
                    <rect id="Rectangle" fill="#A961F1" x="0" y="0" width="46" height="38" rx="2"></rect>
                    <path d="M39,31 L43,31 L43,35 L39,35 L39,31 Z M39,24 L43,24 L43,28 L39,28 L39,24 Z M39,17 L43,17 L43,21 L39,21 L39,17 Z M39,10 L43,10 L43,14 L39,14 L39,10 Z M39,3 L43,3 L43,7 L39,7 L39,3 Z" id="Combined-Shape" fill="#9350D6"></path>
                    <path d="M3,31 L7,31 L7,35 L3,35 L3,31 Z M3,24 L7,24 L7,28 L3,28 L3,24 Z M3,17 L7,17 L7,21 L3,21 L3,17 Z M3,10 L7,10 L7,14 L3,14 L3,10 Z M3,3 L7,3 L7,7 L3,7 L3,3 Z" id="Combined-Shape" fill="#9350D6"></path>
                    <mask id="mask-2" fill="white">
                        <use xlink:href="#path-1"></use>
                    </mask>
                    <use id="Rectangle" fill="#FFFFFF" xlink:href="#path-1"></use>
                    <polygon id="Rectangle" fill="#EEDDFF" mask="url(#mask-2)" points="18 19 33 19 18 28"></polygon>
                </g>
            </g>
            <g id="icn_lab_tool" transform="translate(2.000000, 186.000000)">
                <mask id="mask-4" fill="white">
                    <use xlink:href="#path-3"></use>
                </mask>
                <g id="Rectangle-21" opacity="0.300000012"></g>
                <g id="Group-5" mask="url(#mask-4)">
                    <g transform="translate(27.000000, 26.000000) rotate(-45.000000) translate(-27.000000, -26.000000) translate(1.000000, 0.000000)">
                        <g id="扳手" transform="translate(17.000000, 0.000000)">
                            <path d="M6,0.512117123 L6,8 L9,9 L12,8 L12,0.512117123 C15.4955771,1.74762635 18,5.08134352 18,9 C18,11.6654994 16.8412481,14.0603579 15,15.7083195 L15,46 C15,49.3137085 12.3137085,52 9,52 C5.6862915,52 3,49.3137085 3,46 L3,15.7083195 C1.15875192,14.0603579 0,11.6654994 0,9 C0,5.08134352 2.50442288,1.74762635 6,0.512117123 Z M9,49 C10.6568542,49 12,47.6568542 12,46 C12,44.3431458 10.6568542,43 9,43 C7.34314575,43 6,44.3431458 6,46 C6,47.6568542 7.34314575,49 9,49 Z" id="Combined-Shape" fill="#D8D8D8"></path>
                            <path d="M9,49 C10.6568542,49 12,47.6568542 12,46 C12,44.3431458 10.6568542,43 9,43 L9,9 L12,8 L12,0.512117123 C15.4955771,1.74762635 18,5.08134352 18,9 C18,11.6654994 16.8412481,14.0603579 15,15.7083195 L15,46 C15,49.3137085 12.3137085,52 9,52 L9,49 Z" id="Combined-Shape" fill="#C8C8C8"></path>
                            <path d="M3,35.0122542 L3,20.9877458 C3.20115052,21.1168753 3.38928915,21.2679688 3.56066017,21.4393398 C3.59950023,21.4781799 3.65217865,21.5 3.70710678,21.5 L4,21.5 C4.1500756,21.5 4.24999796,21.4903546 4.3156492,21.4749141 C4.35159943,21.4664589 4.37411116,21.4571343 4.40551051,21.4376923 C4.46285105,21.402188 4.54032713,21.3383525 4.64644661,21.232233 L5.1067847,20.771895 C5.47887966,20.3998 5.71089465,20.2026434 6.00536074,20.0184878 C6.31884928,19.8224358 6.64898265,19.6856901 7.00928224,19.6026499 C7.3477189,19.5246486 7.65118901,19.5 8.17741076,19.5 L9,19.5 C10.9329966,19.5 12.5,21.0670034 12.5,23 L12.5,33 C12.5,34.9329966 10.9329966,36.5 9,36.5 L8.17741076,36.5 C7.65118901,36.5 7.3477189,36.4753514 7.00928224,36.3973501 C6.64898265,36.3143099 6.31884928,36.1775642 6.00536074,35.9815122 C5.71089465,35.7973566 5.47887966,35.6002 5.1067847,35.228105 L4.64644661,34.767767 C4.54032713,34.6616475 4.46285105,34.597812 4.40551051,34.5623077 C4.37411116,34.5428657 4.35159943,34.5335411 4.3156492,34.5250859 C4.24999796,34.5096454 4.1500756,34.5 4,34.5 L3.70710678,34.5 C3.65217865,34.5 3.59950023,34.5218201 3.56066017,34.5606602 C3.38928915,34.7320312 3.20115052,34.8831247 3,35.0122542 Z" id="Combined-Shape" fill="#BBBBBB"></path>
                        </g>
                        <g id="螺丝刀" transform="translate(0.000000, 21.000000)">
                            <path d="M6.315353,0.332387 L18.2938706,0.962835293 C18.748463,0.986761208 19.1781097,1.17810972 19.5,1.5 L19.5,1.5 C19.8201446,1.82014462 20.2543539,2 20.7071068,2 L21,2 C21.2511592,2 21.4653587,1.98063138 21.6590646,1.93507362 C21.8527705,1.88951586 22.0259829,1.81776896 22.1951678,1.7130124 C22.3643528,1.60825584 22.5295104,1.47048962 22.7071068,1.29289322 L23.1674449,0.83255513 C23.4801685,0.519831487 23.628446,0.397997808 23.8007142,0.29026332 C23.9729823,0.182528832 24.1481717,0.109963002 24.3461635,0.064330794 C24.5441553,0.018698586 24.7351527,1.71342268e-17 25.1774108,-6.4107253e-17 L26,3.40947384e-25 C26.3681898,-7.21671903e-16 26.713142,0.0994922778 27.0094383,0.27305863 C27.3057346,0.446624982 27.553375,0.694265408 27.7269414,0.990561704 C27.9005077,1.286858 28,1.63181017 28,2 L28,12 C28,12.3681898 27.9005077,12.713142 27.7269414,13.0094383 C27.553375,13.3057346 27.3057346,13.553375 27.0094383,13.7269414 C26.713142,13.9005077 26.3681898,14 26,14 L25.1774108,14 C24.7351527,14 24.5441553,13.9813014 24.3461635,13.9356692 C24.1481717,13.890037 23.9729823,13.8174712 23.8007142,13.7097367 C23.628446,13.6020022 23.4801685,13.4801685 23.1674449,13.1674449 L22.7071068,12.7071068 C22.5295104,12.5295104 22.3643528,12.3917442 22.1951678,12.2869876 C22.0259829,12.182231 21.8527705,12.1104841 21.6590646,12.0649264 C21.4653587,12.0193686 21.2511592,12 21,12 L20.7071068,12 C20.2543539,12 19.8201446,12.1798554 19.5,12.5 L19.5,12.5 C19.1781097,12.8218903 18.748463,13.0132388 18.2938706,13.0371647 L6.315353,13.667613 C3.00622461,13.8417777 0.182457676,11.3003874 0.00829302401,7.99125902 C0.00276529686,7.88623221 1.78923672e-15,7.78107821 1.77635684e-15,7.67590602 L8.8817842e-16,6.32409398 C4.82366169e-16,3.01038548 2.6862915,0.324093976 6,0.324093976 C6.10517218,0.324093976 6.21032618,0.326859273 6.315353,0.332387 Z" id="Rectangle-15" fill="#FFD25C"></path>
                            <path d="M2.00200138,12.1106126 C0.860940393,11.0909691 0.107313314,9.6373317 0.0103537606,7.9890193 C0.00345274284,7.87170199 -3.4788615e-10,7.75420726 -3.47886164e-10,7.63668716 L0,6.36331284 C-3.47881053e-10,4.58534622 0.77334225,2.98800337 2.0020043,1.88930672 C2.00067194,1.92603986 2,1.96294146 2,2 C2,3.65685425 3.34314575,5 5,5 L12,5 C13.1045695,5 14,5.8954305 14,7 C14,8.1045695 13.1045695,9 12,9 L5,9 C3.34314575,9 2,10.3431458 2,12 C2,12.0370314 2.00067096,12.0739061 2.00200138,12.1106126 Z" id="Combined-Shape" fill="#FF8C5A"></path>
                            <path d="M25,13.9987941 L25,0.0012058548 C25.0543741,0.000393569306 25.1132482,7.01041335e-16 25.1774108,1.25913321e-15 L26,2.13162821e-14 C26.3681898,2.38647928e-14 26.713142,0.0994922778 27.0094383,0.27305863 C27.3057346,0.446624982 27.553375,0.694265408 27.7269414,0.990561704 C27.9005077,1.286858 28,1.63181017 28,2 L28,12 C28,12.3681898 27.9005077,12.713142 27.7269414,13.0094383 C27.553375,13.3057346 27.3057346,13.553375 27.0094383,13.7269414 C26.713142,13.9005077 26.3681898,14 26,14 L25.1774108,14 C25.1132482,14 25.0543741,13.9996064 25,13.9987941 Z" id="Combined-Shape" fill="#FF8C5A"></path>
                            <polygon id="Rectangle-20" fill="#E4E4E4" points="28 5 44 5 46 4 52 5 52 9 46 10 44 9 28 9"></polygon>
                        </g>
                    </g>
                </g>
            </g>
            <g id="icn_lab_cloud" transform="translate(2.000000, 130.000000)">
                <g id="Group-5" transform="translate(2.000000, 7.000000)">
                    <g id="Combined-Shape">
                        <use fill="#FBBF53" xlink:href="#path-5"></use>
                        <use fill="#FFE28B" xlink:href="#path-5"></use>
                    </g>
                    <path d="M13.1111111,11.1777217 C14.7035917,11.4642883 16.1777574,12.0868902 17.4559317,12.9686276 C16.5084783,11.6225221 15.2648151,10.4959901 13.8184506,9.68160505 C16.1765909,4.54375027 21.1176242,0.814029863 27,0.117578978 C35.2617866,1.09574304 41.6666667,8.05738128 41.6666667,16.5 C41.6666667,18.9934186 41.1080073,21.3576602 40.1078467,23.4767383 C41.839734,21.5926098 43.1369914,19.3099693 43.8427533,16.784114 C47.3898199,17.7314918 50,20.938974 50,24.75 C50,29.3063492 46.2690396,33 41.6666667,33 L15.1111111,33 C8.97461389,33 4,28.0751322 4,22 C4,16.6008423 7.92916201,12.1102124 13.1111111,11.1777217 Z" id="Combined-Shape" fill="#FFD25C"></path>
                </g>
                <path d="M24,33 L21.3199354,33 C20.7676506,33 20.3199354,32.5522847 20.3199354,32 C20.3199354,31.7446676 20.417605,31.4990065 20.5929222,31.3133765 L26.7729868,24.7697786 C27.1521986,24.3682604 27.7851053,24.3501773 28.1866235,24.729389 C28.2004686,24.7424649 28.2139373,24.7559336 28.2270132,24.7697786 L34.4070778,31.3133765 C34.7862895,31.7148947 34.7682064,32.3478014 34.3666882,32.7270132 C34.1810581,32.9023304 33.935397,33 33.6800646,33 L31,33 L31,42 L33.6800646,42 C34.2323494,42 34.6800646,42.4477153 34.6800646,43 C34.6800646,43.2553324 34.582395,43.5009935 34.4070778,43.6866235 L28.2270132,50.2302214 C27.8478014,50.6317396 27.2148947,50.6498227 26.8133765,50.270611 C26.7995314,50.2575351 26.7860627,50.2440664 26.7729868,50.2302214 L20.5929222,43.6866235 C20.2137105,43.2851053 20.2317936,42.6521986 20.6333118,42.2729868 C20.8189419,42.0976696 21.064603,42 21.3199354,42 L24,42 L24,33 Z" id="Rectangle-11" fill="#FF8C5A"></path>
                <path d="M32.5,40 L31,40 L31,33 L33.6800646,33 C33.935397,33 34.1810581,32.9023304 34.3666882,32.7270132 C34.7682064,32.3478014 34.7862895,31.7148947 34.4070778,31.3133765 L28.2270132,24.7697786 C28.2139373,24.7559336 28.2004686,24.7424649 28.1866235,24.729389 C27.7851053,24.3501773 27.1521986,24.3682604 26.7729868,24.7697786 L20.5929222,31.3133765 C20.417605,31.4990065 20.3199354,31.7446676 20.3199354,32 C20.3199354,32.5522847 20.7676506,33 21.3199354,33 L24,33 L24,40 L22.5,40 L22.5,34.5 L21.3199354,34.5 C19.9392235,34.5 18.8199354,33.3807119 18.8199354,32 C18.8199354,31.3616689 19.0641094,30.7475162 19.5024025,30.2834412 L25.6824671,23.7398433 C26.6304964,22.7360476 28.2127631,22.69084 29.2165588,23.6388693 C29.2680073,23.6883948 29.2680073,23.6883948 29.3175329,23.7398433 L35.4975975,30.2834412 C36.4456268,31.2872369 36.4004191,32.8695036 35.3966235,33.8175329 C34.9325484,34.255826 34.3183957,34.5 33.6800646,34.5 L32.5,34.5 L32.5,40 Z" id="Combined-Shape" fill="#FFE18B" fill-rule="nonzero"></path>
            </g>
            <g id="icn_lab_gameAI" transform="translate(2.000000, 74.000000)">
                <g id="bird" opacity="0.200000003" transform="translate(0.000000, 13.000000)">
                    <path d="M3,12 L15,12 L15,15 L18,15 L18,18 L15,18 L15,21 L6,21 L3,21 L3,12 Z M12,6 L18,6 L18,9 L12,9 L12,6 Z M18,3 L27,3 L27,6 L18,6 L18,3 Z" id="Combined-Shape" fill="#FAFCE6"></path>
                    <path d="M21,15 L18,15 L18,12 L15,12 L15,9 L18,9 L18,6 L24,6 L24,15 L27,15 L27,18 L30,18 L30,21 L27,21 L27,24 L21,24 L18,24 L18,21 L21,21 L21,15 Z M9,21 L15,21 L15,24 L3,24 L3,21 L6,21 L6,18 L9,18 L9,21 Z M15,18 L18,18 L18,21 L15,21 L15,18 Z" id="Combined-Shape" fill="#F9F123"></path>
                    <path d="M24,33 L15,33 L15,30 L9,30 L9,27 L15,27 L15,24 L24,24 L24,27 L27,27 L27,30 L30,30 L30,33 L24,33 Z" id="Combined-Shape" fill="#FBBB11"></path>
                    <path d="M9,9 L9,6 L12,6 L12,9 L15,9 L15,12 L3,12 L3,9 L9,9 Z M30,3 L30,6 L27,6 L27,3 L18,3 L18,0 L36,0 L36,3 L30,3 Z M48,27 L48,30 L45,30 L45,27 L30,27 L30,24 L48,24 L48,27 Z M42,18 L42,9 L45,9 L45,18 L48,18 L48,21 L30,21 L30,18 L42,18 Z M6,27 L3,27 L3,24 L15,24 L15,27 L9,27 L9,30 L6,30 L6,27 Z M0,18 L3,18 L3,24 L0,24 L0,18 Z M3,15 L6,15 L6,18 L3,18 L3,15 Z M15,12 L18,12 L18,15 L15,15 L15,12 Z M9,30 L15,30 L15,33 L9,33 L9,30 Z M12,3 L18,3 L18,6 L12,6 L12,3 Z M15,33 L30,33 L30,36 L15,36 L15,33 Z M30,30 L45,30 L45,33 L30,33 L30,30 Z M18,15 L21,15 L21,21 L18,21 L18,15 Z M24,6 L27,6 L27,15 L24,15 L24,6 Z M36,9 L39,9 L39,15 L36,15 L36,9 Z M15,21 L18,21 L18,24 L15,24 L15,21 Z M24,24 L27,24 L27,27 L24,27 L24,24 Z M27,21 L30,21 L30,24 L27,24 L27,21 Z M27,27 L30,27 L30,30 L27,30 L27,27 Z M48,21 L51,21 L51,24 L48,24 L48,21 Z M27,15 L30,15 L30,18 L27,18 L27,15 Z M36,3 L39,3 L39,6 L36,6 L36,3 Z M39,6 L42,6 L42,9 L39,9 L39,6 Z" id="Combined-Shape" fill="#333333"></path>
                    <path d="M39,18 L36,18 L30,18 L30,15 L27,15 L27,6 L30,6 L30,3 L36,3 L36,6 L39,6 L39,9 L36,9 L36,15 L39,15 L39,9 L42,9 L42,18 L39,18 Z" id="Combined-Shape" fill="#FFFFFF"></path>
                    <path d="M30,21 L48,21 L48,24 L30,24 L30,21 Z M30,27 L45,27 L45,30 L30,30 L30,27 Z M27,24 L30,24 L30,27 L27,27 L27,24 Z" id="Combined-Shape" fill="#FE6948"></path>
                </g>
                <g id="bird" transform="translate(3.000000, 7.000000)">
                    <path d="M3,12 L15,12 L15,15 L18,15 L18,18 L15,18 L15,21 L6,21 L6,18 L3,18 L3,12 Z M12,6 L18,6 L18,9 L12,9 L12,6 Z M18,3 L27,3 L27,6 L18,6 L18,3 Z" id="Combined-Shape" fill="#FAFCE6"></path>
                    <path d="M21,15 L18,15 L18,12 L15,12 L15,9 L18,9 L18,6 L24,6 L24,15 L27,15 L27,18 L30,18 L30,21 L27,21 L27,24 L21,24 L18,24 L18,21 L21,21 L21,15 Z M3,18 L6,18 L6,21 L3,21 L3,18 Z M15,18 L18,18 L18,21 L15,21 L15,18 Z M6,21 L15,21 L15,24 L6,24 L6,21 Z" id="Combined-Shape" fill="#FEF29F"></path>
                    <path d="M24,33 L15,33 L15,30 L9,30 L9,27 L15,27 L15,24 L24,24 L24,27 L27,27 L27,30 L30,30 L30,33 L24,33 Z" id="Combined-Shape" fill="#FFDC69"></path>
                    <path d="M9,9 L9,6 L12,6 L12,9 L15,9 L15,12 L3,12 L3,9 L9,9 Z M30,3 L30,6 L27,6 L27,3 L18,3 L18,0 L36,0 L36,3 L30,3 Z M48,27 L48,30 L45,30 L45,27 L30,27 L30,24 L48,24 L48,27 Z M42,18 L42,9 L45,9 L45,18 L48,18 L48,21 L30,21 L30,18 L42,18 Z M6,27 L6,24 L15,24 L15,27 L9,27 L9,30 L6,30 L6,27 Z M0,12 L3,12 L3,21 L0,21 L0,12 Z M3,21 L6,21 L6,24 L3,24 L3,21 Z M15,12 L18,12 L18,15 L15,15 L15,12 Z M9,30 L15,30 L15,33 L9,33 L9,30 Z M12,3 L18,3 L18,6 L12,6 L12,3 Z M15,33 L30,33 L30,36 L15,36 L15,33 Z M30,30 L45,30 L45,33 L30,33 L30,30 Z M18,15 L21,15 L21,21 L18,21 L18,15 Z M24,6 L27,6 L27,15 L24,15 L24,6 Z M36,9 L39,9 L39,15 L36,15 L36,9 Z M15,21 L18,21 L18,24 L15,24 L15,21 Z M24,24 L27,24 L27,27 L24,27 L24,24 Z M27,21 L30,21 L30,24 L27,24 L27,21 Z M27,27 L30,27 L30,30 L27,30 L27,27 Z M48,21 L51,21 L51,24 L48,24 L48,21 Z M27,15 L30,15 L30,18 L27,18 L27,15 Z M36,3 L39,3 L39,6 L36,6 L36,3 Z M39,6 L42,6 L42,9 L39,9 L39,6 Z" id="Combined-Shape" fill="#554E46"></path>
                    <path d="M39,18 L36,18 L30,18 L30,15 L27,15 L27,6 L30,6 L30,3 L36,3 L36,6 L39,6 L39,9 L36,9 L36,15 L39,15 L39,9 L42,9 L42,18 L39,18 Z" id="Combined-Shape" fill="#FFFFFF"></path>
                    <path d="M30,21 L48,21 L48,24 L30,24 L30,21 Z M30,27 L45,27 L45,30 L30,30 L30,27 Z M27,24 L30,24 L30,27 L27,27 L27,24 Z" id="Combined-Shape" fill="#FC7659"></path>
                </g>
            </g>
            <g id="icn_lab_classifier" transform="translate(2.000000, 18.000000)">
                <g transform="translate(5.000000, 5.000000)" id="Combined-Shape">
                    <path d="M43.0444815,34.3505098 C38.0436965,40.8232497 32.569584,43.9966685 26.6006769,43.9966685 C23.1523399,43.9966685 21.0923249,42.5478667 20.5854141,40.5452564 C20.1947394,39.0018499 20.8819794,37.8300018 22.0173436,37.8300018 C25.3263698,37.8300018 27.1911052,34.6504583 26.3539062,31.3751933 C25.4857262,27.9787256 22.1703478,25.6633352 17.3767186,25.6633352 C11.8704922,25.6633352 6.62799468,28.5045365 1.78455859,33.1893315 C1.17287027,33.7809847 0.0173435967,33.2360351 0.0173435967,32.3522572 C0.0173435967,31.2198126 0.0173435967,29.5211456 0.0173435967,27.2562564 C0.0173435967,22.7615161 0.485339386,21.1316146 1.36413764,19.4884047 C2.2429359,17.8451949 3.53253663,16.5555941 5.17574651,15.6767959 C6.81895638,14.7979976 8.44885783,14.3300018 12.9435981,14.3300018 L31.091089,14.3300018 C35.5858294,14.3300018 37.2157308,14.7979976 38.8589407,15.6767959 C40.5021506,16.5555941 41.7917513,17.8451949 42.6705495,19.4884047 C43.5493478,21.1316146 44.0173436,22.7615161 44.0173436,27.2562564 L44.0346872,31.0435008 C44.0346872,32.2188886 43.6904506,33.3685422 43.0444815,34.3505098 C43.0444815,34.3505098 43.0444815,34.3505098 43.0444815,34.3505098 Z" fill="#89C5EC" transform="translate(22.008672, 29.163335) rotate(180.000000) translate(-22.008672, -29.163335) "></path>
                    <path d="M22,31.7778505 L22,43.9966685 L12.9435981,43.9966685 C8.44885783,43.9966685 6.81895638,43.5286727 5.17574651,42.6498744 C3.53253663,41.7710762 2.2429359,40.4814755 1.36413764,38.8382656 C0.485339386,37.1950557 0.0173435967,35.5651543 0.0173435967,31.0704139 L0,27.2831695 C0,26.1077817 0.344236605,24.9581281 0.990205726,23.9761605 C5.99099074,17.5034207 11.4651032,14.3300018 17.4340103,14.3300018 C20.8823473,14.3300018 22.9423623,15.7788036 23.4492731,17.7814139 C23.8399478,19.3248204 23.1527078,20.4966685 22.0173436,20.4966685 C18.7083174,20.4966685 16.843582,23.676212 17.680781,26.9514771 C18.2282828,29.0933972 19.7490265,30.8053769 22,31.7778505 Z" fill="#95D0F0"></path>
                    <path d="M43.0271379,20.020508 C38.0263529,26.4932478 32.5522404,29.6666667 26.5833333,29.6666667 C23.1349963,29.6666667 21.0749813,28.2178649 20.5680705,26.2152546 C20.1773958,24.6718481 20.8646358,23.5 22,23.5 C25.3090262,23.5 27.1737616,20.3204565 26.3365626,17.0451914 C25.4683826,13.6487238 22.1530042,11.3333333 17.359375,11.3333333 C11.8531486,11.3333333 6.61065108,14.1745347 1.767215,18.8593297 C1.15552667,19.4509829 5.0250764e-16,18.9060332 4.28239818e-16,18.0222553 C3.33075414e-16,16.8898107 1.90328808e-16,15.1911438 0,12.9262545 C-5.50446934e-16,8.43151424 0.46799579,6.80161279 1.34679405,5.15840291 C2.22559231,3.51519303 3.51519303,2.22559231 5.15840291,1.34679405 C6.80161279,0.46799579 8.43151424,1.55755493e-15 12.9262545,7.31884529e-16 L31.0737455,0 C35.5684858,-8.25670401e-16 37.1983872,0.46799579 38.8415971,1.34679405 C40.484807,2.22559231 41.7744077,3.51519303 42.653206,5.15840291 C43.5320042,6.80161279 44,8.43151424 44,12.9262545 L44.0173436,16.713499 C44.0173436,17.8888868 43.673107,19.0385404 43.0271379,20.020508 C43.0271379,20.020508 43.0271379,20.020508 43.0271379,20.020508 Z" fill="#FF8F65"></path>
                    <path d="M22,12.211346 L22,4.4408921e-16 L31.0737455,0 C35.5684858,-8.25670401e-16 37.1983872,0.46799579 38.8415971,1.34679405 C40.484807,2.22559231 41.7744077,3.51519303 42.653206,5.15840291 C43.5320042,6.80161279 44,8.43151424 44,12.9262545 L44.0173436,16.713499 C44.0173436,17.8888868 43.673107,19.0385404 43.0271379,20.020508 C38.0263529,26.4932478 32.5522404,29.6666667 26.5833333,29.6666667 C23.1349963,29.6666667 21.0749813,28.2178649 20.5680705,26.2152546 C20.1773958,24.6718481 20.8646358,23.5 22,23.5 C25.3090262,23.5 27.1737616,20.3204565 26.3365626,17.0451914 C25.7876558,14.8977747 24.2605057,13.1825079 22,12.211346 Z" fill="#FB8558"></path>
                </g>
            </g>
            <g id="NEW_W" transform="translate(72.000000, 44.000000)" fill="#FF6469">
                <g id="NEW">
                    <path d="M1.70556553,8 L0.240574506,0 L2.21184919,0 L2.71813285,3.64516129 L3.04129264,6.1827957 L3.08438061,6.1827957 C3.23518851,5.33333333 3.3967684,4.47311828 3.55834829,3.64516129 L4.37701975,0 L5.99281867,0 L6.83303411,3.64516129 C6.994614,4.46236559 7.13464991,5.32258065 7.2962298,6.1827957 L7.35008977,6.1827957 C7.4470377,5.32258065 7.55475763,4.47311828 7.65170557,3.64516129 L8.16876122,0 L10,0 L8.61041293,8 L6.18671454,8 L5.46499102,4.51612903 C5.33572711,3.90322581 5.22800718,3.25806452 5.15260323,2.65591398 L5.09874327,2.65591398 C5.00179533,3.25806452 4.9048474,3.90322581 4.78635548,4.51612903 L4.08617594,8 L1.70556553,8 Z"></path>
                </g>
            </g>
            <g id="NEW_E" transform="translate(66.000000, 44.000000)" fill="#FF6469">
                <g id="Path">
                    <polygon points="0 8 0 -1.97215226e-31 5 -4.4408921e-16 5 1.59139785 1.92818671 1.59139785 1.92818671 3.07526882 4.61041293 3.07526882 4.61041293 4.68817204 1.92818671 4.68817204 1.92818671 6.38709677 5 6.38709677 5 8"></polygon>
                </g>
            </g>
            <g id="NEW_N" transform="translate(58.000000, 44.000000)" fill="#FF6469">
                <g id="Path">
                    <path d="M0,8 L0,0 L1.84771574,0 L3.72588832,3.82795699 L4.27411168,5.0311673 C4.27411168,4.07848946 4.27411168,3.28315412 4.27411168,2.64516129 L4.27411168,0 L6,0 L6,8 L4.15228426,8 L1.88494078,3.38709677 C1.88494078,4.04659498 1.88494078,4.69892473 1.88494078,5.34408602 L1.88494078,8 L0,8 Z"></path>
                </g>
            </g>
            <g id="icn_selsct" transform="translate(58.000000, 18.000000)">
                <g transform="translate(3.000000, 3.000000)">
                    <circle id="Oval" stroke="#FFFCF7" stroke-width="3" fill="#FF9948" cx="9" cy="9" r="10.5"></circle>
                    <polyline id="Rectangle-14" stroke="#FFFFFF" stroke-width="1.8" stroke-linecap="round" stroke-linejoin="round" transform="translate(8.809808, 7.909808) rotate(-60.000000) translate(-8.809808, -7.909808) " points="12.3401924 9.83038476 5.27942286 9.75 6.04019238 5.98923048"></polyline>
                </g>
            </g>
            <g id="logo" transform="translate(2.000000, 2.000000)" fill="#FFC400">
                <g>
                    <rect id="Rectangle-25" x="73.5" y="5.6" width="2.1" height="2.1"></rect>
                    <path d="M0,0.7 L2.36551724,0.7 L2.36551724,3.08 L0,3.08 L0,0.7 Z M2.36551724,0.7 L4.73103448,0.7 L4.73103448,3.08 L2.36551724,3.08 L2.36551724,0.7 Z M4.73103448,0.7 L7.09655172,0.7 L7.09655172,3.08 L4.73103448,3.08 L4.73103448,0.7 Z M0,3.08 L2.36551724,3.08 L2.36551724,5.46 L0,5.46 L0,3.08 Z M0,5.46 L2.36551724,5.46 L2.36551724,7.84 L0,7.84 L0,5.46 Z M0,7.84 L2.36551724,7.84 L2.36551724,10.22 L0,10.22 L0,7.84 Z M0,10.22 L2.36551724,10.22 L2.36551724,12.6 L0,12.6 L0,10.22 Z M2.36551724,10.22 L4.73103448,10.22 L4.73103448,12.6 L2.36551724,12.6 L2.36551724,10.22 Z M4.73103448,10.22 L7.09655172,10.22 L7.09655172,12.6 L4.73103448,12.6 L4.73103448,10.22 Z M9.46206897,0.7 L11.8275862,0.7 L11.8275862,3.08 L9.46206897,3.08 L9.46206897,0.7 Z M11.8275862,0.7 L14.1931034,0.7 L14.1931034,3.08 L11.8275862,3.08 L11.8275862,0.7 Z M14.1931034,0.7 L16.5586207,0.7 L16.5586207,3.08 L14.1931034,3.08 L14.1931034,0.7 Z M9.46206897,3.08 L11.8275862,3.08 L11.8275862,5.46 L9.46206897,5.46 L9.46206897,3.08 Z M14.1931034,3.08 L16.5586207,3.08 L16.5586207,5.46 L14.1931034,5.46 L14.1931034,3.08 Z M9.46206897,5.46 L11.8275862,5.46 L11.8275862,7.84 L9.46206897,7.84 L9.46206897,5.46 Z M14.1931034,5.46 L16.5586207,5.46 L16.5586207,7.84 L14.1931034,7.84 L14.1931034,5.46 Z M9.46206897,7.84 L11.8275862,7.84 L11.8275862,10.22 L9.46206897,10.22 L9.46206897,7.84 Z M14.1931034,7.84 L16.5586207,7.84 L16.5586207,10.22 L14.1931034,10.22 L14.1931034,7.84 Z M9.46206897,10.22 L11.8275862,10.22 L11.8275862,12.6 L9.46206897,12.6 L9.46206897,10.22 Z M11.8275862,10.22 L14.1931034,10.22 L14.1931034,12.6 L11.8275862,12.6 L11.8275862,10.22 Z M14.1931034,10.22 L16.5586207,10.22 L16.5586207,12.6 L14.1931034,12.6 L14.1931034,10.22 Z M18.9241379,0.7 L21.2896552,0.7 L21.2896552,3.08 L18.9241379,3.08 L18.9241379,0.7 Z M21.2896552,0.7 L23.6551724,0.7 L23.6551724,3.08 L21.2896552,3.08 L21.2896552,0.7 Z M18.9241379,3.08 L21.2896552,3.08 L21.2896552,5.46 L18.9241379,5.46 L18.9241379,3.08 Z M23.6551724,3.08 L26.0206897,3.08 L26.0206897,5.46 L23.6551724,5.46 L23.6551724,3.08 Z M18.9241379,5.46 L21.2896552,5.46 L21.2896552,7.84 L18.9241379,7.84 L18.9241379,5.46 Z M23.6551724,5.46 L26.0206897,5.46 L26.0206897,7.84 L23.6551724,7.84 L23.6551724,5.46 Z M18.9241379,7.84 L21.2896552,7.84 L21.2896552,10.22 L18.9241379,10.22 L18.9241379,7.84 Z M23.6551724,7.84 L26.0206897,7.84 L26.0206897,10.22 L23.6551724,10.22 L23.6551724,7.84 Z M18.9241379,10.22 L21.2896552,10.22 L21.2896552,12.6 L18.9241379,12.6 L18.9241379,10.22 Z M21.2896552,10.22 L23.6551724,10.22 L23.6551724,12.6 L21.2896552,12.6 L21.2896552,10.22 Z M28.3862069,0.7 L30.7517241,0.7 L30.7517241,3.08 L28.3862069,3.08 L28.3862069,0.7 Z M30.7517241,0.7 L33.1172414,0.7 L33.1172414,3.08 L30.7517241,3.08 L30.7517241,0.7 Z M33.1172414,0.7 L35.4827586,0.7 L35.4827586,3.08 L33.1172414,3.08 L33.1172414,0.7 Z M28.3862069,3.08 L30.7517241,3.08 L30.7517241,5.46 L28.3862069,5.46 L28.3862069,3.08 Z M28.3862069,5.46 L30.7517241,5.46 L30.7517241,7.84 L28.3862069,7.84 L28.3862069,5.46 Z M30.7517241,5.46 L33.1172414,5.46 L33.1172414,7.84 L30.7517241,7.84 L30.7517241,5.46 Z M33.1172414,5.46 L35.4827586,5.46 L35.4827586,7.84 L33.1172414,7.84 L33.1172414,5.46 Z M28.3862069,7.84 L30.7517241,7.84 L30.7517241,10.22 L28.3862069,10.22 L28.3862069,7.84 Z M28.3862069,10.22 L30.7517241,10.22 L30.7517241,12.6 L28.3862069,12.6 L28.3862069,10.22 Z M30.7517241,10.22 L33.1172414,10.22 L33.1172414,12.6 L30.7517241,12.6 L30.7517241,10.22 Z M33.1172414,10.22 L35.4827586,10.22 L35.4827586,12.6 L33.1172414,12.6 L33.1172414,10.22 Z M37.8482759,0.7 L40.2137931,0.7 L40.2137931,3.08 L37.8482759,3.08 L37.8482759,0.7 Z M40.2137931,0.7 L42.5793103,0.7 L42.5793103,3.08 L40.2137931,3.08 L40.2137931,0.7 Z M42.5793103,0.7 L44.9448276,0.7 L44.9448276,3.08 L42.5793103,3.08 L42.5793103,0.7 Z M44.9448276,0.7 L47.3103448,0.7 L47.3103448,3.08 L44.9448276,3.08 L44.9448276,0.7 Z M47.3103448,0.7 L49.6758621,0.7 L49.6758621,3.08 L47.3103448,3.08 L47.3103448,0.7 Z M37.8482759,3.08 L40.2137931,3.08 L40.2137931,5.46 L37.8482759,5.46 L37.8482759,3.08 Z M42.5793103,3.08 L44.9448276,3.08 L44.9448276,5.46 L42.5793103,5.46 L42.5793103,3.08 Z M47.3103448,3.08 L49.6758621,3.08 L49.6758621,5.46 L47.3103448,5.46 L47.3103448,3.08 Z M37.8482759,5.46 L40.2137931,5.46 L40.2137931,7.84 L37.8482759,7.84 L37.8482759,5.46 Z M42.5793103,5.46 L44.9448276,5.46 L44.9448276,7.84 L42.5793103,7.84 L42.5793103,5.46 Z M47.3103448,5.46 L49.6758621,5.46 L49.6758621,7.84 L47.3103448,7.84 L47.3103448,5.46 Z M37.8482759,7.84 L40.2137931,7.84 L40.2137931,10.22 L37.8482759,10.22 L37.8482759,7.84 Z M42.5793103,7.84 L44.9448276,7.84 L44.9448276,10.22 L42.5793103,10.22 L42.5793103,7.84 Z M47.3103448,7.84 L49.6758621,7.84 L49.6758621,10.22 L47.3103448,10.22 L47.3103448,7.84 Z M37.8482759,10.22 L40.2137931,10.22 L40.2137931,12.6 L37.8482759,12.6 L37.8482759,10.22 Z M42.5793103,10.22 L44.9448276,10.22 L44.9448276,12.6 L42.5793103,12.6 L42.5793103,10.22 Z M47.3103448,10.22 L49.6758621,10.22 L49.6758621,12.6 L47.3103448,12.6 L47.3103448,10.22 Z M52.0413793,0.7 L54.4068966,0.7 L54.4068966,3.08 L52.0413793,3.08 L52.0413793,0.7 Z M54.4068966,0.7 L56.7724138,0.7 L56.7724138,3.08 L54.4068966,3.08 L54.4068966,0.7 Z M56.7724138,0.7 L59.137931,0.7 L59.137931,3.08 L56.7724138,3.08 L56.7724138,0.7 Z M52.0413793,3.08 L54.4068966,3.08 L54.4068966,5.46 L52.0413793,5.46 L52.0413793,3.08 Z M56.7724138,3.08 L59.137931,3.08 L59.137931,5.46 L56.7724138,5.46 L56.7724138,3.08 Z M52.0413793,5.46 L54.4068966,5.46 L54.4068966,7.84 L52.0413793,7.84 L52.0413793,5.46 Z M54.4068966,5.46 L56.7724138,5.46 L56.7724138,7.84 L54.4068966,7.84 L54.4068966,5.46 Z M56.7724138,5.46 L59.137931,5.46 L59.137931,7.84 L56.7724138,7.84 L56.7724138,5.46 Z M52.0413793,7.84 L54.4068966,7.84 L54.4068966,10.22 L52.0413793,10.22 L52.0413793,7.84 Z M56.7724138,7.84 L59.137931,7.84 L59.137931,10.22 L56.7724138,10.22 L56.7724138,7.84 Z M52.0413793,10.22 L54.4068966,10.22 L54.4068966,12.6 L52.0413793,12.6 L52.0413793,10.22 Z M56.7724138,10.22 L59.137931,10.22 L59.137931,12.6 L56.7724138,12.6 L56.7724138,10.22 Z M61.5034483,0.7 L63.8689655,0.7 L63.8689655,3.08 L61.5034483,3.08 L61.5034483,0.7 Z M63.8689655,0.7 L66.2344828,0.7 L66.2344828,3.08 L63.8689655,3.08 L63.8689655,0.7 Z M66.2344828,0.7 L68.6,0.7 L68.6,3.08 L66.2344828,3.08 L66.2344828,0.7 Z M61.5034483,3.08 L63.8689655,3.08 L63.8689655,5.46 L61.5034483,5.46 L61.5034483,3.08 Z M66.2344828,3.08 L68.6,3.08 L68.6,5.46 L66.2344828,5.46 L66.2344828,3.08 Z M61.5034483,5.46 L63.8689655,5.46 L63.8689655,7.84 L61.5034483,7.84 L61.5034483,5.46 Z M66.2344828,5.46 L68.6,5.46 L68.6,7.84 L66.2344828,7.84 L66.2344828,5.46 Z M61.5034483,7.84 L63.8689655,7.84 L63.8689655,10.22 L61.5034483,10.22 L61.5034483,7.84 Z M66.2344828,7.84 L68.6,7.84 L68.6,10.22 L66.2344828,10.22 L66.2344828,7.84 Z M61.5034483,10.22 L63.8689655,10.22 L63.8689655,12.6 L61.5034483,12.6 L61.5034483,10.22 Z M63.8689655,10.22 L66.2344828,10.22 L66.2344828,12.6 L63.8689655,12.6 L63.8689655,10.22 Z M66.2344828,10.22 L68.6,10.22 L68.6,12.6 L66.2344828,12.6 L66.2344828,10.22 Z" id="CODEMAO" fill-rule="nonzero"></path>
                </g>
            </g>
            <rect id="Rectangle" stroke="#979797" fill="#D8D8D8" x="0.5" y="0.5" width="1" height="1"></rect>
            <g id="icn/lab_海龟编辑器" transform="translate(103.000000, 130.000000)">
                <g id="分组" transform="translate(7.000000, 7.000000)">
                    <circle id="椭圆形" fill="#FC8A2E" cx="23" cy="23" r="23"></circle>
                    <path d="M23,0 L23,46 C10.2974508,46 0,35.7025492 0,23 C0,10.2974508 10.2974508,0 23,0 Z" id="路径" fill="#FFA249"></path>
                    <path d="M31.6842105,16.6842105 L33.6,16.6842105 C36.0300529,16.6842105 38,18.6541576 38,21.0842105 L38,24.9157895 C38,27.3458424 36.0300529,29.3157895 33.6,29.3157895 L29.3157895,29.3157895 L20.6315789,29.3157895 L20.6315789,31.6842105 L29.3157895,31.6842105 L29.3157895,33.6 C29.3157895,36.0300529 27.3458424,38 24.9157895,38 L21.0842105,38 C18.6541576,38 16.6842105,36.0300529 16.6842105,33.6 L16.6842105,29.3157895 L16.6842105,27.2857143 C16.6842105,25.5105133 18.0105133,24.0714286 19.7857143,24.0714286 L26.2142857,24.0714286 C29.172954,24.0714286 31.6842105,21.672954 31.6842105,18.7142857 L31.6842105,16.6842105 Z M14.3157895,29.3157895 L12.4,29.3157895 C9.9699471,29.3157895 8,27.3458424 8,24.9157895 L8,21.0842105 C8,18.6541576 9.9699471,16.6842105 12.4,16.6842105 L16.6842105,16.6842105 L25.3684211,16.6842105 L25.3684211,14.3157895 L16.6842105,14.3157895 L16.6842105,12.4 C16.6842105,9.9699471 18.6541576,8 21.0842105,8 L24.9157895,8 C27.3458424,8 29.3157895,9.9699471 29.3157895,12.4 L29.3157895,16.6842105 L29.3157895,18.7142857 C29.3157895,20.4894867 27.9894867,21.9285714 26.2142857,21.9285714 L19.7857143,21.9285714 C16.827046,21.9285714 14.3157895,24.327046 14.3157895,27.2857143 L14.3157895,29.3157895 Z M19.7857143,12.2857143 C20.3774479,12.2857143 20.8571429,11.8060194 20.8571429,11.2142857 C20.8571429,10.6225521 20.3774479,10.1428571 19.7857143,10.1428571 C19.1939806,10.1428571 18.7142857,10.6225521 18.7142857,11.2142857 C18.7142857,11.8060194 19.1939806,12.2857143 19.7857143,12.2857143 Z M26.2142857,35.8571429 C26.8060194,35.8571429 27.2857143,35.3774479 27.2857143,34.7857143 C27.2857143,34.1939806 26.8060194,33.7142857 26.2142857,33.7142857 C25.6225521,33.7142857 25.1428571,34.1939806 25.1428571,34.7857143 C25.1428571,35.3774479 25.6225521,35.8571429 26.2142857,35.8571429 Z" id="合并形状" fill="#FFFFFF" fill-rule="nonzero"></path>
                </g>
            </g>
            <g id="icn/云变量" transform="translate(103.000000, 260.000000)">
                <g id="分组-3" transform="translate(3.000000, 3.000000)">
                    <g id="icn_lab_cloud">
                        <g id="Group-5" transform="translate(2.000000, 9.000000)">
                            <g id="Combined-Shape">
                                <use fill="#FBBF53" xlink:href="#path-6"></use>
                                <use fill="#FFE28B" xlink:href="#path-6"></use>
                            </g>
                            <path d="M13.1111111,11.1777217 C14.7035917,11.4642883 16.1777574,12.0868902 17.4559317,12.9686276 C16.5084783,11.6225221 15.2648151,10.4959901 13.8184506,9.68160505 C16.1765909,4.54375027 21.1176242,0.814029863 27,0.117578978 C35.2617866,1.09574304 41.6666667,8.05738128 41.6666667,16.5 C41.6666667,18.9934186 41.1080073,21.3576602 40.1078467,23.4767383 C41.839734,21.5926098 43.1369914,19.3099693 43.8427533,16.784114 C47.3898199,17.7314918 50,20.938974 50,24.75 C50,29.3063492 46.2690396,33 41.6666667,33 L15.1111111,33 C8.97461389,33 4,28.0751322 4,22 C4,16.6008423 7.92916201,12.1102124 13.1111111,11.1777217 Z" id="Combined-Shape" fill="#FFD25C"></path>
                        </g>
                    </g>
                    <g id="分组-2" transform="translate(18.000000, 22.000000)" fill="#FF8C5A" stroke="#FFE18B">
                        <g id="分组" transform="translate(0.500000, 0.777778)">
                            <circle id="椭圆形" cx="2" cy="2.5" r="2"></circle>
                            <g id="分组-4" transform="translate(3.500000, 0.322222)">
                                <rect id="矩形" x="0.5" y="0.5" width="13" height="3.5" rx="1.75"></rect>
                                <rect id="矩形" x="0.5" y="5.5" width="13" height="3.5" rx="1.75"></rect>
                                <rect id="矩形" x="0.5" y="10.5" width="13" height="3.5" rx="1.75"></rect>
                            </g>
                            <circle id="椭圆形" cx="2" cy="7.5" r="2"></circle>
                            <circle id="椭圆形" cx="2" cy="12.5" r="2"></circle>
                        </g>
                    </g>
                </g>
            </g>
        </g>
    </g>
</svg>