<svg xmlns="http://www.w3.org/2000/svg" xmlns:xlink="http://www.w3.org/1999/xlink" width="214" height="447" xmlns:v="https://vecta.io/nano"><style><![CDATA[.B{fill:#fff}.C{fill:#ff9948}.D{fill:#ad6f2a}.E{fill-rule:nonzero}.F{fill:#000}.G{opacity:.4}.H{stroke-linecap:round}.I{fill:#96857b}.J{fill:#d8d8d8}.K{stroke-linejoin:round}.L{fill:#db4141}.M{fill:#ff5d5d}.N{font-family:PingFangSC-Regular, PingFang SC}.O{font-family:NotoSansCJKsc-Regular, Noto Sans CJK SC}]]></style><defs><path id="A" d="M0 .804h17.08v12.06H0z"/><path id="B" d="M.152 0h3v3h-3z"/><path id="C" d="M.617 0h3v3h-3z"/><path d="M24.613 18h-1.936l-2.416-5.568V18H17.99V6.608h1.984l2.368 5.568V6.608h2.272V18zm7.735 0H27.1V6.608h5.248v2.048h-2.976v2.576h2.56v2.048h-2.56v2.672h2.976V18zM46.1 6.608L43.716 18h-2.368l-1.472-8.064L38.404 18h-2.368L33.652 6.608h2.496l1.072 8.048 1.408-8.048h2.496l1.408 8.048 1.072-8.048H46.1z" id="D"/><filter x="-16.0%" y="-39.5%" width="132.0%" height="179.0%" id="E"><feOffset in="SourceAlpha"/><feGaussianBlur stdDeviation="1.5"/><feColorMatrix values="0 0 0 0 0.870588235 0 0 0 0 0.564705882 0 0 0 0 0.160784314 0 0 0 0.478826993 0"/></filter><path id="F" d="M0 0h12v12H0z"/><path id="G" d="M68 287.5a1.5 1.5 0 1 1 0-3 1.5 1.5 0 1 1 0 3zm5 0a1.5 1.5 0 1 1 0-3 1.5 1.5 0 1 1 0 3zm-10 0a1.5 1.5 0 1 1 0-3 1.5 1.5 0 1 1 0 3z"/></defs><g fill="none" fill-rule="evenodd"><g transform="translate(60 360)"><path d="M0 0h24v24H0z" opacity="0" class="J"/><g transform="translate(3 3)" class="B"><g transform="translate(0 .196)"><mask id="H"><use xlink:href="#A"/></mask><path d="M5.936 12.863a1.74 1.74 0 0 1-1.705-1.355L2.538 3.142c-.026-.115-.126-.194-.244-.194h-1.15a.75.75 0 0 1 0-1.5h1.15c.82 0 1.52.558 1.706 1.356l1.692 8.366c.026.114.126.193.244.193h7.818a.25.25 0 0 0 .241-.183l1.576-5.646c.03-.105-.014-.182-.042-.22s-.09-.098-.2-.098H6.3a.75.75 0 1 1 0-1.5h9.02a1.73 1.73 0 0 1 1.394.692 1.73 1.73 0 0 1 .291 1.528l-1.575 5.647c-.2.754-.904 1.28-1.686 1.28H5.936z" mask="url(#H)"/></g><g transform="translate(12 14.196)"><mask id="I"><use xlink:href="#B"/></mask><path d="M3.152 1.5a1.5 1.5 0 1 1-3 0 1.5 1.5 0 1 1 3 0" mask="url(#I)"/></g><g transform="translate(4 14.196)"><mask id="J"><use xlink:href="#C"/></mask><path d="M3.617 1.5a1.5 1.5 0 1 1-3 0 1.5 1.5 0 1 1 3 0" mask="url(#J)"/></g></g></g><path d="M60 388h24v24H60z" opacity="0" class="J"/><path stroke="#ffda83" stroke-width="3" d="M76.735 395.54l-5.072 8.618L67 401" class="H K"/><path d="M60 416h24v24H60z" opacity="0" class="J"/><path stroke="#fff" stroke-width="3" d="M76.735 423.54l-5.072 8.618L67 429" class="H K"/><path stroke="#979797" d="M.5.5h1v1h-1z" class="J"/><path d="M207 58h5l-5 4z" class="L"/><path d="M160 58h47v3h-48.793a.5.5 0 0 1-.354-.854L160 58z" class="F G"/><path d="M157.135 34H211a1 1 0 0 1 1 1v23h-54.865a1 1 0 0 1-.768-1.64L165 46l-8.633-10.36a1 1 0 0 1 .768-1.64z" class="M"/><path d="M182.48 52h-2.272v-4.768h-1.888V52h-2.272V40.608h2.272v4.576h1.888v-4.576h2.272V52zm8.84-5.696c0 1.536.064 3.6-.848 4.688-.528.624-1.232 1.136-2.512 1.136s-1.952-.512-2.48-1.136c-.912-1.088-.848-3.152-.848-4.688s-.064-3.6.848-4.688c.528-.624 1.2-1.136 2.48-1.136s1.984.512 2.512 1.136c.912 1.088.848 3.152.848 4.688zm-2.272 0c0-1.376-.032-2.8-.304-3.328-.128-.256-.368-.448-.784-.448s-.624.192-.752.448c-.272.528-.304 1.952-.304 3.328s.032 2.8.304 3.328c.128.256.336.448.752.448s.656-.192.784-.448c.272-.528.304-1.952.304-3.328zm9.735-3.648h-1.92V52h-2.272v-9.344h-1.92v-2.048h6.112v2.048z" class="B"/><g class="E"><path fill="#3f7fcc" d="M207 122h5l-5 4z"/><path d="M160 122h47v3h-48.793a.5.5 0 0 1-.354-.854L160 122z" class="F G"/><path d="M157.135 98H211a1 1 0 0 1 1 1v23h-54.865a1 1 0 0 1-.768-1.64L165 110l-8.633-10.36a1 1 0 0 1 .768-1.64z" fill="#60a1f0"/></g><text font-size="13" class="B N"><tspan x="172.5" y="115">智造</tspan></text><path d="M207 258h5l-5 4z" class="L"/><path d="M160 258h47v3h-48.793a.5.5 0 0 1-.354-.854L160 258z" class="F G"/><path d="M157.135 234H211a1 1 0 0 1 1 1v23h-54.865a1 1 0 0 1-.768-1.64L165 246l-8.633-10.36a1 1 0 0 1 .768-1.64z" class="M"/><text font-size="14" letter-spacing=".636" class="B O"><tspan x="170" y="251">活动</tspan></text><path d="M207 290h5l-5 4z" class="L"/><path d="M160 290h47v3h-48.793a.5.5 0 0 1-.354-.854L160 290z" class="F G"/><path d="M157.135 266H211a1 1 0 0 1 1 1v23h-54.865a1 1 0 0 1-.768-1.64L165 278l-8.633-10.36a1 1 0 0 1 .768-1.64z" class="M"/><text font-size="10" letter-spacing=".455" class="B O"><tspan x="168.427" y="282">Activity</tspan></text><g transform="translate(156 2)"><path fill="#de9029" d="M51 24h5l-5 4z"/><path d="M4 24h47v3H2.207a.5.5 0 0 1-.354-.854L4 24z" class="F G"/><path d="M1.135 0H55a1 1 0 0 1 1 1v23H1.135a1 1 0 0 1-.768-1.64L9 12 .367 1.64A1 1 0 0 1 1.135 0z" fill="#ffc74e"/><use filter="url(#E)" xlink:href="#D" class="F"/><use xlink:href="#D" class="B"/></g><g class="E"><path fill="#3f7fcc" d="M207 90h5l-5 4z"/><path d="M160 90h47v3h-48.793a.5.5 0 0 1-.354-.854L160 90z" class="F G"/><path d="M157.135 66H211a1 1 0 0 1 1 1v23h-54.865a1 1 0 0 1-.768-1.64L165 78l-8.633-10.36a1 1 0 0 1 .768-1.64z" fill="#60a1f0"/></g><text font-size="12" class="B N"><tspan y="82" x="169">Matrix</tspan></text><path d="M71.414 324l3.536 3.536a1 1 0 1 1-1.414 1.414L70 325.414l-3.536 3.536a1 1 0 1 1-1.414-1.414L68.586 324l-3.536-3.536a1 1 0 0 1 1.414-1.414L70 322.586l3.536-3.536a1 1 0 0 1 1.414 1.414L71.414 324z" class="I"/><path d="M72.78 351.333c-.697.558-1.5.93-2.44.992V354h-1.684v-1.736c-1.045-.124-1.8-.434-2.38-.992-.813-.682-1.103-1.488-1.277-2.42l2.555-.682c0 .868.87 1.922 2.148 1.922.755 0 1.684-.372 1.684-1.488 0-.868-.87-1.488-1.8-1.736-.987-.248-2.903-.93-3.484-1.55-.523-.62-.697-1.55-.697-2.543 0-.868.348-1.798.987-2.357.58-.558 1.277-.868 2.265-.992V338h1.684v1.426c.93.124 1.684.434 2.265.93.755.682 1.103 1.55 1.103 2.047l-2.555.62c0-.682-.93-1.488-1.568-1.488-.813 0-1.5.248-1.5 1.364 0 .806.58 1.054 1.568 1.426 1.684.558 2.903 1.302 3.484 1.922s.87 1.426.87 2.42c0 1.24-.406 2.047-1.22 2.667z" class="B E"/><g class="I"><path d="M147.357 206.57h3.857a1.93 1.93 0 0 1 1.929 1.929v16.714a1.93 1.93 0 0 1-1.929 1.929h-3.857a1.93 1.93 0 0 1-1.929-1.929V208.5a1.93 1.93 0 0 1 1.929-1.929zm-12.857 0h3.857a1.93 1.93 0 0 1 1.929 1.929v16.714a1.93 1.93 0 0 1-1.929 1.929H134.5a1.93 1.93 0 0 1-1.929-1.929V208.5a1.93 1.93 0 0 1 1.929-1.929z"/><path d="M149.594 158.1c-8.3.418-16.458 1.38-24.438 2.85v20c0 3.374-3.343 6.11-7.467 6.11s-7.467-2.735-7.467-6.11 3.343-6.11 7.467-6.11c.674 0 1.326.073 1.947.2.506.11 1.447.11 1.447-.907v-27.59c0-2.103 1.814-3.128 2.724-3.287a204.34 204.34 0 0 1 27.178-2.888c.892-.035 2.682.537 2.682 2.6v32.53c0 3.374-3.343 6.11-7.467 6.11s-7.467-2.735-7.467-6.11 3.343-6.11 7.467-6.11a9.03 9.03 0 0 1 2.066.237c.463.11 1.33.11 1.33-.906V158.1zm0-8.156c-8.293.4-16.45 1.32-24.438 2.728v4.138a190.53 190.53 0 0 1 24.438-2.788v-4.078z" class="E"/><path d="M109.077 206.46l13.148 8.218a2.57 2.57 0 0 1 0 4.361l-13.148 8.218a2.57 2.57 0 0 1-3.934-2.181V208.64a2.57 2.57 0 0 1 3.934-2.181z"/></g><g fill="#f9dfbe"><path d="M95 30v-6.5a.5.5 0 0 0-.5-.5H88v-1.294a.71.71 0 0 1 .706-.706h6.787A1.51 1.51 0 0 1 97 22.506v6.787a.71.71 0 0 1-.706.706H95zm-10-5.294a.71.71 0 0 1 .706-.706h7.588a.71.71 0 0 1 .706.706v7.588a.71.71 0 0 1-.706.706h-7.588a.71.71 0 0 1-.706-.706v-7.588zM87 26v5h5v-5h-5z"/><path d="M91 16a1 1 0 1 1-2 0v-3h-1.478a.5.5 0 0 1-.395-.807l2.478-3.186a.5.5 0 0 1 .789 0l2.478 3.186a.5.5 0 0 1-.395.807H91v3zm1.99-2h1.14l.125-.016a2 2 0 0 0 .209-3.931l-1.277-.3-.233-1.29a3 3 0 0 0-5.74-.573l-.374.937-.976.256a2.5 2.5 0 0 0 .358 4.903l.14.015h.645c.55 0 .996.446.996.996a1 1 0 0 1-.996 1L86 16c-2.25-.276-4-2.184-4-4.5 0-2.09 1.424-3.846 3.355-4.353C86.09 5.303 87.893 4 90 4c2.456 0 4.5 1.77 4.92 4.106 1.765.416 3.08 2 3.08 3.894a4 4 0 0 1-3.5 3.969l-1.51.006c-.544.002-.987-.438-.99-.982a.99.99 0 0 1 .989-.993z" class="E"/></g><g opacity=".3"><g stroke="#8b5c2b"><circle cx="66" cy="270" r="5.5"/><path d="M65.5 270.5l2 1" class="H"/></g><rect fill="#8b5c2b" x="65" y="266" width="1" height="5" rx=".5"/></g><use xlink:href="#G" class="B"/><use xlink:href="#G" y="18" class="I"/><path d="M71.74 256.68l2.32 2.32c.297.297.302.772.007 1.067s-.762.298-1.067-.007l-2.32-2.32c-1.016.8-2.293 1.26-3.68 1.26a6 6 0 1 1 0-12 6 6 0 0 1 6 6c0 1.387-.47 2.663-1.26 3.68zm-4.74.82a4.5 4.5 0 1 0 0-9 4.5 4.5 0 1 0 0 9z" fill="#968771" opacity=".3" class="E"/><path d="M71 233h4a1 1 0 1 1 0 2h-4v4a1 1 0 1 1-2 0v-4h-4a1 1 0 1 1 0-2h4v-4a1 1 0 1 1 2 0v4z" class="I"/><g transform="translate(60 210)"><mask id="K" class="B"><use xlink:href="#F"/></mask><path d="M8.707 9.707c-.18.18-.43.293-.707.293H2a1 1 0 1 1 0-2h5V3a1 1 0 1 1 2 0v6c0 .276-.112.526-.293.707z" fill="#977966" opacity=".3" mask="url(#K)" transform="matrix(.707107 -.707107 .707107 .707107 -2.778175 5.292893)"/></g><circle fill="#ff4848" cx="71.5" cy="195.5" r="11.5"/><path d="M73.62 195.5l2.475 2.475a1.5 1.5 0 1 1-2.121 2.121L71.5 197.62l-2.475 2.475a1.5 1.5 0 1 1-2.121-2.121l2.475-2.475-2.475-2.475a1.5 1.5 0 0 1 2.121-2.121l2.475 2.475 2.475-2.475a1.5 1.5 0 0 1 2.121 2.121L73.62 195.5z" class="B"/><path d="M71.5 181c-6.35 0-11.5-5.15-11.5-11.5S65.15 158 71.5 158 83 163.15 83 169.5 77.85 181 71.5 181z" fill="#ffd364"/><path d="M73 164.5a1.5 1.5 0 1 0-3 0v6a1.5 1.5 0 1 0 3 0v-6zm-1.5 8.5a1.5 1.5 0 1 0 0 3 1.5 1.5 0 1 0 0-3z" class="B"/><circle fill="#81d156" cx="71.5" cy="143.5" r="11.5"/><path d="M70.187 145.43l5.303-5.303a1.5 1.5 0 1 1 2.121 2.121l-6.364 6.364a1.5 1.5 0 0 1-2.121 0l-3.536-3.536a1.5 1.5 0 1 1 2.121-2.121l2.475 2.475z" class="B"/><g stroke-width="2"><path d="M79.238 113.813l-7.6 9.075-4.877-4.54" stroke="#ff9948" class="H K"/><circle stroke="#fffcf7" cx="72" cy="92" r="10" class="C"/></g><path stroke="#fff" stroke-width="1.8" d="M75.238 88.813l-3.6 6.075-2.877-2.54" class="H K"/><path d="M76 58V47.99A1.99 1.99 0 0 1 78 46c1.105 0 2 .9 2 1.99V58h10.01A1.99 1.99 0 0 1 92 60c0 1.105-.9 2-1.99 2H80v10.01A1.99 1.99 0 0 1 78 74c-1.105 0-2-.9-2-1.99V62H65.99A1.99 1.99 0 0 1 64 60c0-1.105.9-2 1.99-2H76z" fill="#f8d4a9"/><path d="M69.414 32.003L74 36.6a1 1 0 0 1-1.414 1.414L68 33.418l-4.596 4.596a1 1 0 0 1-1.414-1.414l4.596-4.596L62 27.407a1 1 0 0 1 1.414-1.414L68 30.59l4.596-4.596a1 1 0 0 1 1.414 1.414l-4.596 4.596z" fill="#968771"/><g class="E"><path d="M70 2.91c-5.02 0-9.09 4.072-9.09 9.09s4.072 9.09 9.09 9.09 9.09-4.072 9.09-9.09S75.02 2.91 70 2.91zm2.774 12.727c-.493.38-1.067.634-1.724.677v1.142h-1.19V16.27c-.74-.085-1.273-.296-1.683-.677-.575-.465-.78-1.015-.903-1.65l1.806-.465c0 .592.616 1.31 1.52 1.31.534 0 1.19-.254 1.19-1.015 0-.592-.616-1.015-1.273-1.184-.698-.17-2.053-.634-2.463-1.057-.37-.423-.493-1.057-.493-1.734 0-.592.246-1.226.698-1.607.41-.38.903-.592 1.6-.677v-.973h1.19v.973c.657.085 1.19.296 1.6.634.534.465.78 1.057.78 1.395l-1.806.423c0-.465-.657-1.015-1.11-1.015-.575 0-1.067.17-1.067.93 0 .55.41.72 1.11.973 1.19.38 2.053.888 2.463 1.31s.616.973.616 1.65c0 .846-.287 1.395-.862 1.818z" fill="#ffd364"/><path d="M32.663 279c.216.455.337.963.337 1.5s-.12 1.045-.337 1.5H38.5a1.5 1.5 0 1 0 0-3h-5.837zm-3.163-2h9a3.5 3.5 0 1 1 0 7h-9a3.5 3.5 0 1 1 0-7zm0 5a1.5 1.5 0 1 0 0-3 1.5 1.5 0 1 0 0 3zm.5-14h8a4 4 0 1 1 0 8h-8a4 4 0 1 1 0-8zm8 6a2 2 0 1 0 0-4 2 2 0 1 0 0 4z" class="C"/></g><path d="M5 295h13a2 2 0 0 1 2 2v6a2 2 0 0 1-2 2H7a2 2 0 0 1-2-2v-8zm7 5h-1.5a.5.5 0 1 0 0 1H12v1.5a.5.5 0 1 0 1 0V301h1.5a.5.5 0 1 0 0-1H13v-1.5a.5.5 0 1 0-1 0v1.5zm3-6H5v-1.5a1 1 0 0 1 1-1h6.646a2 2 0 0 1 1.857 1.257L15 294z" class="D"/><path d="M27 295h13a2 2 0 0 1 2 2v6a2 2 0 0 1-2 2H29a2 2 0 0 1-2-2v-8zm7 5h-1.5a.5.5 0 1 0 0 1H34v1.5a.5.5 0 1 0 1 0V301h1.5a.5.5 0 1 0 0-1H35v-1.5a.5.5 0 1 0-1 0v1.5zm3.9-6H27v-1.5a1 1 0 0 1 1-1h7.5a2 2 0 0 1 1.833 1.2l.567 1.3z" class="C"/><path d="M18 317H8.487a1.7 1.7 0 0 0-1.59 1.099l-2.82 7.455A2 2 0 0 1 4 325v-11a1 1 0 0 1 1-1h6.883a2 2 0 0 1 1.732 1H17a1 1 0 0 1 1 1v2zm-9.007 1h10.793c.633 0 1.145.513 1.145 1.145 0 .142-.026.283-.078.416l-2.612 6.71c-.17.44-.595.73-1.067.73H6.214c-.633 0-1.145-.513-1.145-1.145 0-.142.026-.283.078-.416l2.55-6.553A1.39 1.39 0 0 1 8.993 318z" class="D"/><path d="M40 317h-9.513a1.7 1.7 0 0 0-1.59 1.099l-2.82 7.455A2 2 0 0 1 26 325v-11a1 1 0 0 1 1-1h6.883a2 2 0 0 1 1.732 1H39a1 1 0 0 1 1 1v2zm-9.007 1h10.793c.633 0 1.145.513 1.145 1.145 0 .142-.026.283-.078.416l-2.612 6.71c-.17.44-.595.73-1.067.73h-10.96c-.633 0-1.145-.513-1.145-1.145 0-.142.026-.283.078-.416l2.55-6.553a1.39 1.39 0 0 1 1.296-.886z" class="C"/><g stroke-width="2" stroke="#ad6f2a"><rect x="5" y="278" width="14" height="5" rx="2.5"/><circle cx="7.5" cy="280.5" r="2.5"/></g><path d="M8 268h8a4 4 0 1 1 0 8H8a4 4 0 1 1 0-8zm8 6a2 2 0 1 0 0-4 2 2 0 1 0 0 4z" class="D"/><g class="E"><path d="M35.855 251.38a1 1 0 1 1 1.222-1.583 4.99 4.99 0 0 1 1.272 1.457 5 5 0 0 1-1.83 6.83 1 1 0 0 1-1-1.732 3 3 0 0 0 1.098-4.098 2.99 2.99 0 0 0-.763-.874zM30 251.357v5.286l2 1.636v-8.56l-2 1.636zm7.644-2.386a1 1 0 1 1 1.207-1.595c.844.64 1.557 1.443 2.097 2.38a8 8 0 0 1-2.928 10.928 1 1 0 0 1-1-1.732 6 6 0 0 0 2.196-8.196c-.406-.703-.94-1.305-1.572-1.784zM28.5 250l3.867-3.164a1 1 0 0 1 1.633.774v12.78a1 1 0 0 1-1.633.774L28.5 258h-1a1.5 1.5 0 0 1-1.5-1.5v-5a1.5 1.5 0 0 1 1.5-1.5h1z" class="C"/><path d="M13.855 251.38a1 1 0 1 1 1.222-1.583 4.99 4.99 0 0 1 1.272 1.457 5 5 0 0 1-1.83 6.83 1 1 0 1 1-1-1.732 3 3 0 0 0 1.098-4.098 2.99 2.99 0 0 0-.763-.874zM8 251.357v5.286l2 1.636v-8.56l-2 1.636zm7.644-2.386a1 1 0 1 1 1.207-1.595c.844.64 1.557 1.443 2.097 2.38a8 8 0 0 1-2.928 10.928 1 1 0 0 1-1-1.732 6 6 0 0 0 2.196-8.196c-.406-.703-.94-1.305-1.572-1.784zM6.5 250l3.867-3.164a1 1 0 0 1 1.633.774v12.78a1 1 0 0 1-1.633.774L6.5 258h-1a1.5 1.5 0 0 1-1.5-1.5v-5a1.5 1.5 0 0 1 1.5-1.5h1z" class="D"/></g><path d="M32 233l.707.707a1 1 0 0 1-1.414 1.414l-1.414-1.414a1 1 0 0 1 0-1.414l1.414-1.414a1 1 0 0 1 1.414 1.414L32 233zm6.414 0c0 .256-.098.512-.293.707l-1.414 1.414a1 1 0 0 1-1.414-1.414L36 233l-.707-.707a1 1 0 1 1 1.414-1.414l1.414 1.414c.195.195.293.45.293.707zM27.5 224h13a1.5 1.5 0 0 1 1.5 1.5v13a1.5 1.5 0 0 1-1.5 1.5h-13a1.5 1.5 0 0 1-1.5-1.5v-13a1.5 1.5 0 0 1 1.5-1.5zm1 4a.5.5 0 0 0-.5.5v9a.5.5 0 0 0 .5.5h11a.5.5 0 0 0 .5-.5v-9a.5.5 0 0 0-.5-.5h-11z" class="C"/><path d="M10 233l.707.707a1 1 0 0 1-1.414 1.414l-1.414-1.414a1 1 0 0 1 0-1.414l1.414-1.414a1 1 0 0 1 1.414 1.414L10 233zm6.414 0c0 .256-.098.512-.293.707l-1.414 1.414a1 1 0 0 1-1.414-1.414L14 233l-.707-.707a1 1 0 0 1 1.414-1.414l1.414 1.414c.195.195.293.45.293.707zM5.5 224h13a1.5 1.5 0 0 1 1.5 1.5v13a1.5 1.5 0 0 1-1.5 1.5h-13a1.5 1.5 0 0 1-1.5-1.5v-13a1.5 1.5 0 0 1 1.5-1.5zm1 4a.5.5 0 0 0-.5.5v9a.5.5 0 0 0 .5.5h11a.5.5 0 0 0 .5-.5v-9a.5.5 0 0 0-.5-.5h-11z" class="D"/><path d="M27.073 209.062C27.523 206.194 30.005 204 33 204h2c2.996 0 5.48 2.196 5.928 5.067.047.304.047.933-.897.933h-3.58a2.5 2.5 0 0 0-4.9 0h-3.566c-.912 0-.96-.633-.912-.938zM34 213a2.5 2.5 0 0 0 2.45-2H40a1 1 0 0 1 1 1v3a2 2 0 0 1-2 2H29a2 2 0 0 1-2-2v-3a1 1 0 0 1 1-1h3.55a2.5 2.5 0 0 0 2.45 2zm0-1a1.5 1.5 0 1 1 0-3 1.5 1.5 0 1 1 0 3zm-1-9a6.97 6.97 0 0 0-4.262 1.446c-.26.2-.738-.044-.738-.394V203a2 2 0 0 1 2-2h1a2 2 0 0 1 2 2zm6.384 1.542A6.97 6.97 0 0 0 35 203a2 2 0 0 1 2-2h1a2 2 0 0 1 2 2v1.007c0 .365-.4.71-.616.535z" class="C"/><path d="M5.073 209.062C5.523 206.194 8.005 204 11 204h2c2.996 0 5.48 2.196 5.928 5.067.047.304.047.933-.897.933h-3.58a2.5 2.5 0 0 0-4.9 0H5.984c-.912 0-.96-.633-.912-.938zM12 213a2.5 2.5 0 0 0 2.45-2H18a1 1 0 0 1 1 1v3a2 2 0 0 1-2 2H7a2 2 0 0 1-2-2v-3a1 1 0 0 1 1-1h3.55a2.5 2.5 0 0 0 2.45 2zm0-1a1.5 1.5 0 1 1 0-3 1.5 1.5 0 1 1 0 3zm-1-9a6.97 6.97 0 0 0-4.262 1.446c-.26.2-.738-.044-.738-.394V203a2 2 0 0 1 2-2h1a2 2 0 0 1 2 2zm6.384 1.542A6.97 6.97 0 0 0 13 203a2 2 0 0 1 2-2h1a2 2 0 0 1 2 2v1.007c0 .365-.4.71-.616.535z" class="D"/><path d="M32 182h-2v9h8v-9h-2v4.6a.2.2 0 0 1-.32.16L34 185.5l-1.68 1.26a.2.2 0 0 1-.32-.16V182zm7 11h-9.5a.5.5 0 1 0 0 1H39a1 1 0 1 1 0 2h-9.5a2.5 2.5 0 0 1-2.5-2.5v-12a1.5 1.5 0 0 1 1.5-1.5h10a1.5 1.5 0 0 1 1.5 1.5V192a1 1 0 0 1-1 1z" class="C"/><path d="M10 182H8v9h8v-9h-2v4.6a.2.2 0 0 1-.32.16L12 185.5l-1.68 1.26a.2.2 0 0 1-.32-.16V182zm7 11H7.5a.5.5 0 1 0 0 1H17a1 1 0 1 1 0 2H7.5a2.5 2.5 0 0 1-2.5-2.5v-12a1.5 1.5 0 0 1 1.5-1.5h10a1.5 1.5 0 0 1 1.5 1.5V192a1 1 0 0 1-1 1z" class="D"/><path d="M27 169.402c.082-.1.17-.15.265-.07.693.573 1.532 1.1 2.196 1.1 1.112 0 2.013-1.202 2.013-2.684s-.9-2.684-2.013-2.684c-.67 0-1.51.54-2.213 1.108-.09.074-.174.046-.247-.018v-3.327a1.34 1.34 0 0 1 1.342-1.342h3.327c.064-.074.092-.156.018-.247-.57-.704-1.108-1.543-1.108-2.213 0-1.112 1.202-2.013 2.684-2.013s2.684.9 2.684 2.013c0 .664-.517 1.503-1.1 2.196-.078.094-.02.183.07.265h3.255a1.34 1.34 0 0 1 1.342 1.342v3.327c.074.064.156.092.247.018.704-.57 1.543-1.108 2.213-1.108 1.112 0 2.013 1.202 2.013 2.684s-.9 2.684-2.013 2.684c-.664 0-1.503-.517-2.196-1.1-.094-.078-.183-.02-.265.07v3.255A1.34 1.34 0 0 1 38.184 174h-9.842A1.34 1.34 0 0 1 27 172.658v-3.255z" class="C"/><path d="M5 169.402c.082-.1.17-.15.265-.07.693.573 1.532 1.1 2.196 1.1 1.112 0 2.013-1.202 2.013-2.684s-.9-2.684-2.013-2.684c-.67 0-1.51.54-2.213 1.108-.09.074-.174.046-.247-.018v-3.327a1.34 1.34 0 0 1 1.342-1.342H9.67c.064-.074.092-.156.018-.247-.57-.704-1.108-1.543-1.108-2.213C8.58 157.9 9.78 157 11.263 157s2.684.9 2.684 2.013c0 .664-.517 1.503-1.1 2.196-.078.094-.02.183.07.265h3.255a1.34 1.34 0 0 1 1.342 1.342v3.327c.074.064.156.092.247.018.704-.57 1.543-1.108 2.213-1.108 1.112 0 2.013 1.202 2.013 2.684s-.9 2.684-2.013 2.684c-.664 0-1.503-.517-2.196-1.1-.094-.078-.183-.02-.265.07v3.255A1.34 1.34 0 0 1 16.184 174H6.342A1.34 1.34 0 0 1 5 172.658v-3.255z" class="D"/><path d="M36.994 139.414L35.364 143h4.222a1 1 0 0 1 .707 1.707l-7.74 7.74a1 1 0 0 1-1.677-.95L32.25 146h-2.453a1.5 1.5 0 0 1-1.476-1.768l.984-5.41a1 1 0 0 1 .984-.821h5.794a1 1 0 0 1 .91 1.414zm-7.218-3.182A1.5 1.5 0 0 1 31.252 135h5.42a1.5 1.5 0 0 1 1.426 1.035c.048.146 0 .965-.865.965h-6.815a.65.65 0 0 1-.641-.768z" class="C"/><path d="M14.994 139.414L13.364 143h4.222a1 1 0 0 1 .707 1.707l-7.74 7.74a1 1 0 0 1-1.677-.95L10.25 146H7.797a1.5 1.5 0 0 1-1.476-1.768l.984-5.41a1 1 0 0 1 .984-.821h5.794a1 1 0 0 1 .91 1.414zm-7.218-3.182A1.5 1.5 0 0 1 9.252 135h5.42a1.5 1.5 0 0 1 1.426 1.035c.048.146 0 .965-.865.965H8.417a.65.65 0 0 1-.641-.768z" class="D"/><g class="E"><path d="M30.24 124h7.523c.155.32.24.657.24 1 0 1.545-1.697 3-4 3s-4-1.455-4-3c0-.343.083-.68.24-1zm6.76-4.423c2.365.963 4 3.03 4 5.423 0 3.314-3.134 6-7 6s-7-2.686-7-6c0-2.393 1.635-4.46 4-5.423V118a1 1 0 1 1 0-2h6a1 1 0 1 1 0 2v1.577zm-2-.517V118h-2v3.08c-2.322.378-4 2.045-4 3.92 0 2.135 2.176 4 5 4s5-1.865 5-4c0-1.875-1.678-3.542-4-3.92v-2.02zM32 113h4a1 1 0 1 1 0 2h-4a1 1 0 1 1 0-2z" class="C"/><path d="M8.24 124h7.523c.155.32.24.657.24 1 0 1.545-1.697 3-4 3s-4-1.455-4-3c0-.343.083-.68.24-1zm6.76-4.423c2.365.963 4 3.03 4 5.423 0 3.314-3.134 6-7 6s-7-2.686-7-6c0-2.393 1.635-4.46 4-5.423V118a1 1 0 1 1 0-2h6a1 1 0 1 1 0 2v1.577zm-2-.517V118h-2v3.08c-2.322.378-4 2.045-4 3.92 0 2.135 2.176 4 5 4s5-1.865 5-4c0-1.875-1.678-3.542-4-3.92v-2.02zM10 113h4a1 1 0 1 1 0 2h-4a1 1 0 1 1 0-2z" class="D"/></g><path d="M39 104a2 2 0 1 1 0 4 2 2 0 0 1-2-2 1.99 1.99 0 0 1 .268-1h-5.535a1.99 1.99 0 0 1 .268 1 2 2 0 1 1-4 0 2 2 0 0 1 1-1.732V102l-1-8h-2a1 1 0 1 1 0-2h3a1 1 0 0 1 1 1v1h11.557a1 1 0 0 1 .936 1.351l-2.25 6a1 1 0 0 1-.936.649H31v1h7a1 1 0 0 1 1 1z" class="C"/><path d="M17 104a2 2 0 1 1 0 4 2 2 0 0 1-2-2 1.99 1.99 0 0 1 .268-1H9.732a1.99 1.99 0 0 1 .268 1 2 2 0 1 1-4 0 2 2 0 0 1 1-1.732V102l-1-8H4a1 1 0 1 1 0-2h3a1 1 0 0 1 1 1v1h11.557a1 1 0 0 1 .936 1.351l-2.25 6a1 1 0 0 1-.936.649H9v1h7a1 1 0 0 1 1 1z" class="D"/><path d="M26.025 77.224C26.01 77.152 26 77.077 26 77v-4a1 1 0 1 1 2 0v8.5a.5.5 0 1 0 1 0V72a1 1 0 0 1 1-1h4a1 1 0 0 1 1 1h5.5a1.5 1.5 0 0 1 1.5 1.5v9a1.5 1.5 0 0 1-1.5 1.5h-13a1.5 1.5 0 0 1-1.5-1.5v-5a1.51 1.51 0 0 1 .025-.276z" class="C"/><path d="M4.025 77.224C4.01 77.152 4 77.077 4 77v-4a1 1 0 1 1 2 0v8.5a.5.5 0 1 0 1 0V72a1 1 0 0 1 1-1h4a1 1 0 0 1 1 1h5.5a1.5 1.5 0 0 1 1.5 1.5v9a1.5 1.5 0 0 1-1.5 1.5h-13A1.5 1.5 0 0 1 4 82.5v-5a1.51 1.51 0 0 1 .025-.276z" class="D"/><path d="M41 61.5a2.5 2.5 0 1 1-5 0 2.5 2.5 0 0 1 2.5-2.5 2.51 2.51 0 0 1 .5.05V55h-9v6.5a2.5 2.5 0 1 1-5 0 2.5 2.5 0 0 1 2.5-2.5 2.51 2.51 0 0 1 .5.05V50.5a1.5 1.5 0 0 1 1.5-1.5h10a1.5 1.5 0 0 1 1.5 1.5v11zM39 52h-9v1h9v-1z" class="C"/><path d="M19 61.5a2.5 2.5 0 1 1-5 0 2.5 2.5 0 0 1 2.5-2.5 2.51 2.51 0 0 1 .5.05V55H8v6.5a2.5 2.5 0 1 1-5 0A2.5 2.5 0 0 1 5.5 59a2.51 2.51 0 0 1 .5.05V50.5A1.5 1.5 0 0 1 7.5 49h10a1.5 1.5 0 0 1 1.5 1.5v11zM17 52H8v1h9v-1z" class="D"/><path d="M33 38h-3.484a.5.5 0 0 1-.459-.698l2.583-5.977a.5.5 0 0 1 .876-.078l2.462 3.708.64-.986a.5.5 0 0 1 .82-.027l2.438 3.26a.5.5 0 0 1-.4.8H33zm-5.5-11h13a1.5 1.5 0 0 1 1.5 1.5v11a1.5 1.5 0 0 1-1.5 1.5h-13a1.5 1.5 0 0 1-1.5-1.5v-11a1.5 1.5 0 0 1 1.5-1.5zm1 2a.5.5 0 0 0-.5.5v9a.5.5 0 0 0 .5.5h11a.5.5 0 0 0 .5-.5v-9a.5.5 0 0 0-.5-.5h-11zm9 4a1.5 1.5 0 1 1 0-3 1.5 1.5 0 1 1 0 3z" class="C"/><path d="M11 38H7.516a.5.5 0 0 1-.459-.698l2.583-5.977a.5.5 0 0 1 .876-.078l2.462 3.708.64-.986a.5.5 0 0 1 .82-.027l2.438 3.26a.5.5 0 0 1-.4.8H11zM5.5 27h13a1.5 1.5 0 0 1 1.5 1.5v11a1.5 1.5 0 0 1-1.5 1.5h-13A1.5 1.5 0 0 1 4 39.5v-11A1.5 1.5 0 0 1 5.5 27zm1 2a.5.5 0 0 0-.5.5v9a.5.5 0 0 0 .5.5h11a.5.5 0 0 0 .5-.5v-9a.5.5 0 0 0-.5-.5h-11zm9 4a1.5 1.5 0 1 1 0-3 1.5 1.5 0 1 1 0 3z" class="D"/><path d="M27 9.918C27 6.097 30.142 3 34 3c3.866 0 7 3.102 7 6.918v8.696A1.39 1.39 0 0 1 39.6 20c-.773 0-1.153-.384-1.368-1.12s-.753-1.242-1.377-1.242-1.218.473-1.423 1.242S34.78 20 34 20c-.773 0-1.16-.3-1.368-1.12s-.712-1.242-1.377-1.242-1.202.463-1.423 1.242S29.18 20 28.4 20c-.773 0-1.4-.6-1.4-1.386V9.918zm9.8 2.302a2.32 2.32 0 0 0 2.333-2.305A2.32 2.32 0 0 0 36.8 7.61a2.34 2.34 0 0 0-1.798.836c-.094.112.085.314.194.255.2-.108.428-.17.67-.17.773 0 1.4.62 1.4 1.383s-.627 1.383-1.4 1.383c-.248 0-.482-.064-.684-.176-.106-.06-.275.15-.185.257a2.34 2.34 0 0 0 1.802.841zm-5.6 0a2.32 2.32 0 0 0 2.333-2.305A2.32 2.32 0 0 0 31.2 7.61a2.34 2.34 0 0 0-1.768.8c-.103.117.07.34.187.278a1.41 1.41 0 0 1 .647-.156c.773 0 1.4.62 1.4 1.383s-.627 1.383-1.4 1.383c-.24 0-.468-.06-.665-.166-.124-.067-.307.122-.2.24a2.34 2.34 0 0 0 1.808.848z" class="C"/><path d="M5 9.918C5 6.097 8.142 3 12 3c3.866 0 7 3.102 7 6.918v8.696A1.39 1.39 0 0 1 17.6 20c-.773 0-1.153-.384-1.368-1.12s-.753-1.242-1.377-1.242-1.218.473-1.423 1.242S12.78 20 12 20c-.773 0-1.16-.3-1.368-1.12s-.712-1.242-1.377-1.242-1.202.463-1.423 1.242S7.18 20 6.4 20c-.773 0-1.4-.6-1.4-1.386V9.918zm9.8 2.302a2.32 2.32 0 0 0 2.333-2.305A2.32 2.32 0 0 0 14.8 7.61a2.34 2.34 0 0 0-1.798.836c-.094.112.085.314.194.255.2-.108.428-.17.67-.17.773 0 1.4.62 1.4 1.383s-.627 1.383-1.4 1.383c-.248 0-.482-.064-.684-.176-.106-.06-.275.15-.185.257a2.34 2.34 0 0 0 1.802.841zm-5.6 0a2.32 2.32 0 0 0 2.333-2.305A2.32 2.32 0 0 0 9.2 7.61a2.34 2.34 0 0 0-1.768.8c-.103.117.07.34.187.278a1.41 1.41 0 0 1 .647-.156c.773 0 1.4.62 1.4 1.383s-.627 1.383-1.4 1.383c-.24 0-.468-.06-.665-.166-.124-.067-.307.122-.2.24a2.34 2.34 0 0 0 1.808.848z" class="D"/><g class="I"><path d="M135.5 60h3a1.5 1.5 0 0 1 1.5 1.5v13a1.5 1.5 0 0 1-1.5 1.5h-3a1.5 1.5 0 0 1-1.5-1.5v-13a1.5 1.5 0 0 1 1.5-1.5zm-10 0h3a1.5 1.5 0 0 1 1.5 1.5v13a1.5 1.5 0 0 1-1.5 1.5h-3a1.5 1.5 0 0 1-1.5-1.5v-13a1.5 1.5 0 0 1 1.5-1.5zm-18.44-.088l10.226 6.392a2 2 0 0 1 0 3.392l-10.226 6.392a2 2 0 0 1-3.06-1.696V61.608a2 2 0 0 1 3.06-1.696z"/><path d="M137 24.176a137.29 137.29 0 0 0-18 2.1V41c0 2.485-2.462 4.5-5.5 4.5S108 43.485 108 41s2.462-4.5 5.5-4.5c.496 0 .977.054 1.434.154.372.082 1.066.082 1.066-.668v-20.32c0-1.55 1.336-2.304 2.006-2.42a150.51 150.51 0 0 1 20.018-2.127c.657-.026 1.975.395 1.975 1.922V37c0 2.485-2.462 4.5-5.5 4.5S129 39.485 129 37s2.462-4.5 5.5-4.5a6.65 6.65 0 0 1 1.521.174c.34.08.98.08.98-.667v-7.83zm0-6.007c-6.108.294-12.116.972-18 2v3.048a140.34 140.34 0 0 1 18-2.054v-3.004z" class="E"/></g></g></svg>