<?xml version="1.0" encoding="UTF-8"?>
<svg width="254px" height="22px" viewBox="0 0 254 22" version="1.1" xmlns="http://www.w3.org/2000/svg" xmlns:xlink="http://www.w3.org/1999/xlink">
    <!-- Generator: Sketch 42 (36781) - http://www.bohemiancoding.com/sketch -->
    <title>title_piano</title>
    <desc>Created with Sketch.</desc>
    <defs></defs>
    <g id="音符选择" stroke="none" stroke-width="1" fill="none" fill-rule="evenodd">
        <g transform="translate(-593.000000, -129.000000)" id="钢琴" fill="#4A4A4A">
            <g transform="translate(82.000000, 55.000000)">
                <g id="琴板" transform="translate(29.000000, 0.000000)">
                    <g id="title_piano" transform="translate(481.000000, 74.000000)">
                        <path d="M16.94,7.936 L16.46,1.48 C16.3639995,1.49600008 16.220001,1.53599968 16.028,1.6 C15.6919983,1.71200056 15.428001,1.76000008 15.236,1.744 C14.8839982,1.744 14.5160019,1.68000064 14.132,1.552 C12.4999918,1.0719976 11.2120047,0.85599976 10.268,0.904 C4.77997256,1.16000128 2.00400032,4.53596752 1.94,11.032 C1.94,17.1440306 4.7799716,20.2879991 10.46,20.464 C13.9800176,20.5280003 16.3239942,18.7920177 17.492,15.256 L16.364,14.584 C15.163994,17.5280147 13.4200114,19 11.132,19 C7.57998224,18.9199996 5.79600008,16.080028 5.78,10.48 C5.78,5.07197296 7.3399844,2.32000048 10.46,2.224 C12.9080122,2.12799952 14.6919944,4.19197888 15.812,8.416 L16.94,7.936 Z M30.22,0.904 C35.7720278,1.00000048 38.5879996,4.21596832 38.668,10.552 C38.5879996,17.1120328 35.7720278,20.4399995 30.22,20.536 C24.619972,20.4559996 21.8120001,17.2880313 21.796,11.032 C21.9240006,4.37596672 24.7319726,1.00000048 30.22,0.904 Z M30.22,2.128 C27.211985,1.93599904 25.7159999,4.77597064 25.732,10.648 C25.6359995,16.5200294 27.1319846,19.3840007 30.22,19.24 C33.2440151,19.2239999 34.7480001,16.4560276 34.732,10.936 C34.7480001,5.12797096 33.2440151,2.19200032 30.22,2.128 Z M50.028,1.288 C56.5240325,1.23999976 59.772,4.23996976 59.772,10.288 C59.8360003,16.9280332 56.6200325,20.1920006 50.124,20.08 L42.708,20.08 L42.708,19 C44.2280076,19.0320002 44.9480004,18.1280092 44.868,16.288 L44.868,5.224 C44.9800006,3.33599056 44.2920074,2.4319996 42.804,2.512 L42.804,1.288 L50.028,1.288 Z M49.836,19 C53.9320205,19 55.9959998,16.2800272 56.028,10.84 C56.0920003,5.1599716 53.9080222,2.40799912 49.476,2.584 L48.444,2.584 L48.444,19 L49.836,19 Z M66.14,5.224 L66.14,16.288 C66.1880002,18.096009 65.4680074,19 63.98,19 L63.98,20.08 L77.588,20.08 L78.044,13.936 L77.012,13.552 C76.1159955,17.2640186 74.6520102,19.0800004 72.62,19 L69.62,19 L69.62,11.032 L71.78,11.032 C73.3480078,11.0480001 74.2199991,11.951991 74.396,13.744 L75.428,13.744 L75.428,7.096 L74.396,7.096 C74.203999,8.87200888 73.3320078,9.74400016 71.78,9.712 L69.62,9.712 L69.62,2.584 L72.62,2.584 C74.6840103,2.48799952 76.0599966,4.05598384 76.748,7.288 L77.852,6.808 L77.3,1.288 L63.98,1.288 L63.98,2.512 C64.8440043,2.512 65.4199986,2.70399808 65.708,3.088 C66.0120015,3.44000176 66.1560001,4.15199464 66.14,5.224 Z M96.292,20.08 L104.164,20.08 L104.164,19 C103.155995,18.9679998 102.532001,18.7840017 102.292,18.448 C102.019999,18.1919987 101.892,17.5040056 101.908,16.384 L101.908,5.224 C101.908,4.05599416 102.043999,3.32000152 102.316,3.016 C102.556001,2.67999832 103.139995,2.512 104.068,2.512 L104.068,1.288 L98.068,1.288 C97.0279948,4.12001416 95.5240098,8.2559728 93.556,13.696 C93.3959992,14.1280022 93.2760004,14.4559989 93.196,14.68 L88.324,1.288 L82.324,1.288 L82.324,2.512 C83.2200045,2.512 83.8039986,2.69599816 84.076,3.064 C84.3640014,3.3840016 84.5000001,4.1039944 84.484,5.224 L84.484,15.448 C84.5000001,16.840007 84.3400017,17.7439979 84.004,18.16 C83.6839984,18.6400024 82.9960053,18.9199996 81.94,19 L81.94,20.08 L88.132,20.08 L88.132,19 C87.0919948,18.9839999 86.4040017,18.7280025 86.068,18.232 C85.7319983,17.8159979 85.5799998,16.8880072 85.612,15.448 L85.612,4.48 L91.228,19.432 L92.644,19.432 C93.5240044,17.2559891 94.7959917,13.9440222 96.46,9.496 C97.3880046,7.04798776 98.0839977,5.21600608 98.548,4 L98.548,16.384 C98.5640001,17.4560054 98.4200015,18.1519984 98.116,18.472 C97.8439986,18.8080017 97.2360047,18.9839999 96.292,19 L96.292,20.08 Z M117.348,19 C118.772007,18.9039995 119.492,18.560003 119.508,17.968 C119.492,17.3919971 119.332002,16.800003 119.028,16.192 L118.284,14.128 L112.548,14.128 C112.099998,15.328006 111.732001,16.5759935 111.444,17.872 C111.283999,18.5280033 111.971992,18.9039995 113.508,19 L113.508,20.08 L107.124,20.08 L107.124,19 C108.420006,18.9199996 109.139999,18.7040018 109.284,18.352 C109.892003,17.3759951 111.275989,13.792031 113.436,7.6 C114.540006,4.51198456 115.307998,2.4080056 115.74,1.288 L117.612,1.096 L122.868,16.48 C123.044001,17.3280042 123.355998,17.9839977 123.804,18.448 C124.156002,18.8160018 124.779996,19 125.676,19 L125.676,20.08 L117.348,20.08 L117.348,19 Z M117.804,12.616 C117.403998,11.5119945 116.876003,9.90401056 116.22,7.792 C115.915998,6.84799528 115.692001,6.14400232 115.548,5.68 C114.219993,9.13601728 113.380002,11.4479942 113.028,12.616 L117.804,12.616 Z M137.732,0.904 C143.284028,1.00000048 146.1,4.21596832 146.18,10.552 C146.1,17.1120328 143.284028,20.4399995 137.732,20.536 C132.131972,20.4559996 129.324,17.2880313 129.308,11.032 C129.436001,4.37596672 132.243973,1.00000048 137.732,0.904 Z M137.732,2.128 C134.723985,1.93599904 133.228,4.77597064 133.244,10.648 C133.148,16.5200294 134.643985,19.3840007 137.732,19.24 C140.756015,19.2239999 142.26,16.4560276 142.244,10.936 C142.26,5.12797096 140.756015,2.19200032 137.732,2.128 Z M166.668,5.224 C166.684,4.11999448 166.548001,3.4080016 166.26,3.088 C166.003999,2.70399808 165.452004,2.512 164.604,2.512 L164.604,1.288 L172.02,1.288 C176.724024,1.23999976 179.068,3.015982 179.052,6.616 C179.132,10.6800203 176.508027,12.6240009 171.18,12.448 L170.148,12.448 L170.148,16.288 C170.132,17.3760054 170.291998,18.0959982 170.628,18.448 C170.932002,18.8160018 171.547995,19 172.476,19 L172.476,20.08 L164.508,20.08 L164.508,19 C166.012008,19.0960005 166.732,18.2240092 166.668,16.384 L166.668,5.224 Z M171.18,11.224 C173.916014,11.1119994 175.292,9.60801448 175.308,6.712 C175.292,3.92798608 173.948013,2.52800008 171.276,2.512 L170.148,2.512 L170.148,11.224 L171.18,11.224 Z M190.22,1.288 L182.444,1.288 L182.444,2.512 C183.980008,2.39999944 184.7,3.3039904 184.604,5.224 L184.604,16.384 C184.62,17.4240052 184.468002,18.1119983 184.148,18.448 C183.843998,18.8000018 183.212005,18.9839999 182.252,19 L182.252,20.08 L190.316,20.08 L190.316,19 C189.435996,18.9199996 188.868001,18.7040018 188.612,18.352 C188.307998,18.0159983 188.164,17.3600049 188.18,16.384 L188.18,5.224 C188.164,4.08799432 188.291999,3.3600016 188.564,3.04 C188.804001,2.68799824 189.355996,2.512 190.22,2.512 L190.22,1.288 Z M203.38,19 C204.804007,18.9039995 205.524,18.560003 205.54,17.968 C205.524,17.3919971 205.364002,16.800003 205.06,16.192 L204.316,14.128 L198.58,14.128 C198.131998,15.328006 197.764001,16.5759935 197.476,17.872 C197.315999,18.5280033 198.003992,18.9039995 199.54,19 L199.54,20.08 L193.156,20.08 L193.156,19 C194.452006,18.9199996 195.171999,18.7040018 195.316,18.352 C195.924003,17.3759951 197.307989,13.792031 199.468,7.6 C200.572006,4.51198456 201.339998,2.4080056 201.772,1.288 L203.644,1.096 L208.9,16.48 C209.076001,17.3280042 209.387998,17.9839977 209.836,18.448 C210.188002,18.8160018 210.811996,19 211.708,19 L211.708,20.08 L203.38,20.08 L203.38,19 Z M203.836,12.616 C203.435998,11.5119945 202.908003,9.90401056 202.252,7.792 C201.947998,6.84799528 201.724001,6.14400232 201.58,5.68 C200.251993,9.13601728 199.412002,11.4479942 199.06,12.616 L203.836,12.616 Z M232.956,1.288 L226.668,1.288 L226.668,2.512 C227.788006,2.512 228.499998,2.7519976 228.804,3.232 C229.156002,3.66400216 229.324,4.6399924 229.308,6.16 L229.308,15.16 L220.02,1.288 L214.764,1.288 L214.764,2.512 C215.724005,2.512 216.347999,2.71999792 216.636,3.136 C216.972002,3.50400184 217.132,4.29599392 217.116,5.512 L217.116,15.352 C217.132,16.8880077 216.980002,17.8639979 216.66,18.28 C216.355998,18.7600024 215.692005,19 214.668,19 L214.668,20.08 L220.956,20.08 L220.956,19 C219.883995,19 219.180002,18.7520025 218.844,18.256 C218.491998,17.8079978 218.324,16.8400074 218.34,15.352 L218.34,4.936 L228.54,20.176 L230.532,20.176 L230.532,6.16 C230.516,4.60799224 230.659998,3.632002 230.964,3.232 C231.252001,2.7519976 231.915995,2.512 232.956,2.512 L232.956,1.288 Z M245.54,0.904 C251.092028,1.00000048 253.908,4.21596832 253.988,10.552 C253.908,17.1120328 251.092028,20.4399995 245.54,20.536 C239.939972,20.4559996 237.132,17.2880313 237.116,11.032 C237.244001,4.37596672 240.051973,1.00000048 245.54,0.904 Z M245.54,2.128 C242.531985,1.93599904 241.036,4.77597064 241.052,10.648 C240.956,16.5200294 242.451985,19.3840007 245.54,19.24 C248.564015,19.2239999 250.068,16.4560276 250.052,10.936 C250.068,5.12797096 248.564015,2.19200032 245.54,2.128 Z" id="CODEMAO-PIANO"></path>
                    </g>
                </g>
            </g>
        </g>
    </g>
</svg>