<?xml version="1.0" encoding="UTF-8"?>
<svg width="234px" height="191px" viewBox="0 0 234 191" version="1.1" xmlns="http://www.w3.org/2000/svg" xmlns:xlink="http://www.w3.org/1999/xlink">
    <!-- Generator: Sketch 64 (93537) - https://sketch.com -->
    <title>编组 18</title>
    <desc>Created with Sketch.</desc>
    <defs>
        <path d="M136.524231,56.6474758 C135.676741,51.0735589 121.332232,52.4343001 121.332232,52.4343001 C121.687779,37.0887839 116.172988,23.6299256 105.892753,14.0965629 C96.2339091,5.13948093 82.6343891,0.281008749 66.5334504,0 L66.4958014,0 C50.3948627,0.281008749 36.7951006,5.13948093 27.1363774,14.0965629 C16.8561432,23.6299256 11.341352,37.0887839 11.6968989,52.4343001 C11.6968989,52.4343001 -1.43199607,51.4066625 0.174674516,57.4466772 C1.7813451,63.4866919 9.20251604,65.089012 11.7342003,65.9411242 C11.8906071,66.2493941 35.8480006,68.5849184 56.9899743,61.1254417 C60.3115111,59.9535112 62.8276269,58.7146098 66.5979742,58.6748108 C70.3684426,58.7146098 73.0807442,59.8302479 76.2060952,61.1254417 C82.3940892,63.6899485 92.8304881,67.5203175 120.366795,66.8479899 C120.528892,66.5457014 120.696436,66.248934 120.852722,65.9411242 C125.07768,64.7991892 137.371722,62.2213927 136.524231,56.6474758 Z" id="path-1"></path>
    </defs>
    <g id="素材库" stroke="none" stroke-width="1" fill="none" fill-rule="evenodd">
        <g id="编组-18" transform="translate(2.000000, -6.000000)">
            <g id="编组-25" transform="translate(163.000000, 173.000000) scale(-1, 1) translate(-163.000000, -173.000000) translate(157.000000, 167.000000)" stroke="#979797" stroke-linecap="round" stroke-linejoin="round" stroke-width="2.39103362">
                <line x1="0" y1="5.5439677" x2="2.60840032" y2="5.54285067" id="路径-35"></line>
                <line x1="9.12940111" y1="5.5439677" x2="11.7378014" y2="5.54285067" id="路径-35"></line>
                <line x1="6.05054045" y1="0" x2="6.05054045" y2="2.90700103" id="路径-36"></line>
                <line x1="6.05054045" y1="8.47730103" x2="6.05054045" y2="11.3843021" id="路径-36"></line>
            </g>
            <g id="编组-31" transform="translate(0.000000, 56.000000)">
                <g id="编组-27" transform="translate(81.164437, 113.066787) rotate(-360.000000) translate(-81.164437, -113.066787) translate(23.164437, 89.066787)" stroke="#979797" stroke-width="1.49439601">
                    <path d="M115.070614,47.0043205 C113.621998,32.3477932 99.1439488,15.0652778 95.9453639,15.1038945 C95.9329231,15.1038945 96.0467199,14.4608821 96.0366575,14.453833 C95.6866684,14.2084911 80.3056272,15.7460472 68.4451505,16.9737883 C56.5850397,15.7460472 41.2038156,14.2084911 40.8538265,14.453833 C40.8437641,14.4608821 43.5719847,21.131709 43.5595439,21.131709 C41.5105047,21.1069698 34.9919117,22.9599747 24.2800962,20.2089697 C10.2022513,16.5935021 6.70883632,7.16593655 1.68559055,12.7588506 C-5.5905436,20.8601449 11.6374799,38.5837085 39.4547373,41.9722669 C44.26604,44.2655277 47.874517,45.9854734 50.2801683,47.1321038" id="路径" fill="#FFFFFF" transform="translate(57.543558, 29.079388) scale(-1, 1) translate(-57.543558, -29.079388) "></path>
                    <path d="M74.6734956,35.765314 C75.71182,40.8932706 76.8206606,44.1526515 77.3556742,46.9914984 L18.093883,47.0280996 C18.6519435,44.0319364 19.4578576,40.4965367 20.5698196,35.1092932" id="路径" fill="#FFFFFF" stroke-linecap="round" stroke-linejoin="round"></path>
                    <path d="M72.0701524,15.676176 C72.084317,16.852739 71.5977913,18.0945222 70.7555733,19.3579875 C69.346934,21.4802415 66.9218066,23.6673687 64.0973757,25.7610023 C57.2575814,30.8143432 49.2460433,34.3240848 43.5615949,36.5750444 C43.3299326,36.6685381 43.1042014,36.7410434 42.8646891,36.7627256 C42.6250024,36.7410434 42.399969,36.6671504 42.1676089,36.5750444 C37.2664163,34.6661433 28.3774224,30.7782641 21.5303014,25.6815587 C18.7784395,23.6387482 16.4114021,21.4946385 15.0100894,19.4155754 C14.1387391,18.1306014 13.6450612,16.8673095 13.6592303,15.676176 C13.7467623,6.84735634 27.75483,-0.0106377629 42.8646891,0.0759175918 C57.967396,-0.0106377629 71.9826159,6.84735634 72.0701524,15.676176 Z" id="路径" fill="#E3DFDE"></path>
                </g>
                <g id="编组-29">
                    <g id="编组" transform="translate(0.323384, 0.000000)" stroke="#979797" stroke-width="1.49439601">
                        <path d="M66.1592267,20.1133733 C49.8494062,20.3987034 36.0847034,25.3521119 26.3042489,34.444379 C16.0577195,43.9697863 10.4656833,57.3451735 10.6129584,72.613679 C7.81931245,72.4437779 -0.747198007,72.3332901 -0.747198007,77.4288319 C-0.747198007,79.5967026 0.374675325,81.3711697 2.03468582,82.8072574 C4.34761915,84.8081937 7.70875684,86.1320549 10.0275547,87.0345129 C10.5091849,87.2219596 10.9433335,87.3907118 11.3091034,87.5438473 C16.0823589,96.8399875 23.498471,103.65712 32.4121722,108.261183 C42.3394205,113.388759 54.128035,115.767839 66.2100665,115.767839 C78.1941331,115.767839 89.9257629,113.284608 99.8228504,108.08774 C108.776384,103.386323 116.231025,96.4664935 121.031683,87.1571644 C126.195472,86.0587565 130.078328,84.7476834 132.688306,83.2413421 C134.099704,82.4267572 135.150887,81.5485085 135.855907,80.6215164 C136.618727,79.6185244 136.990492,78.5522642 136.990492,77.4288319 C136.990492,76.3087341 136.540017,75.3992151 135.764846,74.6678405 C134.979096,73.9264855 133.834816,73.3729894 132.502586,72.9849317 C128.846859,71.9200757 123.7454,72.0777941 121.769635,72.1905012 C121.919559,56.9327404 116.328893,43.9737371 106.07811,34.4443753 C96.2977683,25.3522129 82.5332754,20.3987004 66.1592267,20.1133733 Z" id="路径" fill="#FFFFFF"></path>
                        <g transform="translate(42.643747, 0.000000)" fill="#D3CFCC" id="路径">
                            <path d="M5.0844305,10.9488586 C8.39972131,6.95771153 17.3668409,2.35723164 29.6591779,5.53205488 C33.7764771,6.59547718 41.028812,6.21745343 41.8860227,0.576255717 C41.9108396,-0.169764934 42.5995378,0.0955431979 42.8333006,0.338146855 C44.6141829,2.18642944 46.6609083,6.49935773 46.8493954,13.1386303 C47.3230948,28.0417557 39.1756581,41.4902964 16.9908351,38.6742499 C11.1873209,37.9375646 4.47563048,36.1538227 0.570545737,27.0798697 C0.570545737,27.0798697 -2.01924526,19.5004935 5.0844305,10.9488586 Z"></path>
                        </g>
                        <g transform="translate(11.410816, 13.714886)" fill="#FFFFFF" id="形状">
                            <path d="M105.193503,42.6238066 L67.1044604,15.1374462 C83.8678277,1.66113001 99.4459175,0.123564506 104.436407,0.00162879585 C106.057977,-0.0395158623 106.427446,0.700742232 106.86737,2.00734444 C113.670701,21.0355387 105.193503,42.6238066 105.193503,42.6238066 Z M2.64102396,2.03719449 C3.08058509,0.729900771 3.44969053,-0.0107030765 5.06968693,0.0304415817 C10.0558184,0.152492543 25.6201076,1.69074955 42.3684638,15.1738656 L4.31343843,42.6741714 C4.31343843,42.6741714 -4.15625433,21.0749546 2.64102396,2.03719449 Z"></path>
                        </g>
                        <path d="M14.4902421,51.5860798 C23.36588,30.7466423 40.5995204,20.3269236 66.1911634,20.3269236 C91.7828064,20.3269236 109.080836,30.7466423 118.085253,51.5860798" id="路径-2"></path>
                    </g>
                    <g id="编组" transform="translate(0.000000, 20.326924)">
                        <g id="形状" transform="translate(0.000000, 0.230052)">
                            <mask id="mask-2" fill="white">
                                <use xlink:href="#path-1"></use>
                            </mask>
                            <use id="蒙版" fill="#E3DFDE" xlink:href="#path-1"></use>
                            <path d="M87.2949718,10.07851 C87.2949718,10.07851 70.1167847,22.9026267 67.0242963,25.1509683 C66.6174371,25.4467791 66.1839063,25.2276102 66.1839063,25.2276102 L45.8268074,10.07851 C45.8268074,10.07851 45.3297549,9.74962212 45.825111,9.40513696 C47.9582711,7.92151117 56.5481186,1.8460945 56.5481186,1.8460945 C56.5481186,1.8460945 58.3720581,0.766922799 60.8118941,0.487067823 C62.9858626,0.237690327 65.5602817,-0.22942187 66.9378729,-0.230050769 C71.3917423,-0.23202142 76.4272026,1.81830621 76.4272026,1.81830621 C76.4272026,1.81830621 85.0113011,7.81923233 87.2430423,9.37080497 C87.7697823,9.73707257 87.2949718,10.07851 87.2949718,10.07851 Z" stroke="#979797" stroke-width="1.49439601" fill="#FFFFFF" mask="url(#mask-2)"></path>
                        </g>
                        <g transform="translate(65.698071, 44.764445) scale(1, -1) translate(-65.698071, -44.764445) translate(28.198071, 33.264445)" fill="#979797" id="形状">
                            <path d="M11.9249265,22.7752817 C5.33974155,22.7752817 0.00145269443,17.7025159 0.00145269443,11.4450964 C0.00145269443,5.18767686 5.33974155,0.114911068 11.9249265,0.114911068 C18.5101114,0.114911068 23.8484002,5.18767686 23.8484002,11.4450964 C23.8484002,17.7025159 18.5101114,22.7752817 11.9249265,22.7752817 Z M14.3455996,2.41554798 C12.4402698,2.41554798 10.8955714,3.88328095 10.8955714,5.69379168 C10.8955714,7.5043024 12.4402698,8.97203537 14.3455996,8.97203537 C16.2509294,8.97203537 17.7955068,7.5043024 17.7955068,5.69379168 C17.7955068,3.88328095 16.2509294,2.41554798 14.3455996,2.41554798 Z M6.88062452,4.35002598 C4.97529472,4.35002598 3.4305963,5.81775894 3.4305963,7.62826967 C3.4305963,9.4387804 4.97529472,10.9065134 6.88062452,10.9065134 C8.78595432,10.9065134 10.3305317,9.4387804 10.3305317,7.62826967 C10.3305317,5.81775894 8.78595432,4.35002598 6.88062452,4.35002598 Z M13.2096622,9.18622095 C10.1392168,9.18622095 7.64993005,11.5514776 7.64993005,14.4691217 C7.64993005,17.3867659 10.1392168,19.7520225 13.2096622,19.7520225 C16.2801076,19.7520225 18.7691992,17.3867659 18.7691992,14.4691217 C18.7691992,11.5514776 16.2801076,9.18622095 13.2096622,9.18622095 Z"></path>
                            <path d="M62.5944879,22.7752817 C56.009303,22.7752817 50.6710142,17.7025159 50.6710142,11.4450964 C50.6710142,5.18767686 56.009303,0.114911068 62.5944879,0.114911068 C69.1796728,0.114911068 74.5179617,5.18767686 74.5179617,11.4450964 C74.5179617,17.7025159 69.1796728,22.7752817 62.5944879,22.7752817 Z M65.0151611,2.41554798 C63.1098313,2.41554798 61.5651329,3.88328095 61.5651329,5.69379168 C61.5651329,7.5043024 63.1098313,8.97203537 65.0151611,8.97203537 C66.9204909,8.97203537 68.4650682,7.5043024 68.4650682,5.69379168 C68.4650682,3.88328095 66.9204909,2.41554798 65.0151611,2.41554798 Z M57.550186,4.35002598 C55.6448562,4.35002598 54.1001578,5.81775894 54.1001578,7.62826967 C54.1001578,9.4387804 55.6448562,10.9065134 57.550186,10.9065134 C59.4555158,10.9065134 61.0000932,9.4387804 61.0000932,7.62826967 C61.0000932,5.81775894 59.4555158,4.35002598 57.550186,4.35002598 Z M63.8792236,9.18622095 C60.8087782,9.18622095 58.3194915,11.5514776 58.3194915,14.4691217 C58.3194915,17.3867659 60.8087782,19.7520225 63.8792236,19.7520225 C66.949669,19.7520225 69.4387606,17.3867659 69.4387606,14.4691217 C69.4387606,11.5514776 66.949669,9.18622095 63.8792236,9.18622095 Z" transform="translate(62.594488, 11.445096) scale(-1, 1) translate(-62.594488, -11.445096) "></path>
                        </g>
                        <g transform="translate(60.582551, 55.385141)" fill="#A49F9E" id="路径">
                            <path d="M11.9143944,2.0567816 C12.1384725,1.5609041 11.8154901,1.02189182 11.2034216,0.826347463 C9.95519387,0.427551993 7.95664951,0.144357749 5.98195355,0.114911068 C4.00798393,0.144357749 2.02348228,0.427436967 0.781791719,0.826002385 C0.170933711,1.02200685 -0.150838105,1.56055902 0.0727557794,2.05574636 C1.10053709,4.33326303 4.79546537,6.10512499 5.99393828,5.97526053 C7.19216906,6.10512499 10.8858868,4.33383816 11.9143944,2.0567816 Z"></path>
                        </g>
                    </g>
                </g>
            </g>
            <path d="M19.1272816,97.5056169 C16.265766,93.1167127 15.6040807,79.5119785 17.8046557,77.3179107 C20.0052308,75.123843 31.2630273,81.1053003 32.9910207,84.7801405" id="路径-78" stroke="#979797" stroke-width="1.49439601" transform="translate(24.743197, 87.176305) rotate(-3.000000) translate(-24.743197, -87.176305) "></path>
            <path d="M7.52371853,52.3144321 C8.5955197,52.3144321 9.46438623,53.1815389 9.46438623,54.2511694 C9.46438623,55.3207998 8.5955197,56.1879066 7.52371853,56.1879066 C6.45191735,56.1879066 5.58305082,55.3207998 5.58305082,54.2511694 C5.58305082,53.1815389 6.45191735,52.3144321 7.52371853,52.3144321 Z M7.69616067,37.7889028 C9.09922529,37.7889028 10.2366339,38.9263115 10.2366339,40.3293761 C10.2366339,40.3929048 10.2342509,40.4564112 10.22949,40.5197614 L9.59770196,48.9265415 C9.52251061,49.9270622 8.68878301,50.7004844 7.68544083,50.7004844 C6.68209865,50.7004844 5.84837106,49.9270622 5.77317971,48.9265415 L5.14139164,40.5197614 C5.03624474,39.1206422 6.08521653,37.9011936 7.4843357,37.7960467 C7.54768582,37.7912858 7.61119223,37.7889028 7.674721,37.7889028 L7.69616067,37.7889028 Z" id="形状结合" fill="#979797" transform="translate(7.685382, 46.988405) rotate(-38.000000) translate(-7.685382, -46.988405) "></path>
            <path d="M14.4411444,44.2446936 C15.5129455,44.2446936 16.3818121,45.1118004 16.3818121,46.1814309 C16.3818121,47.2510613 15.5129455,48.1181681 14.4411444,48.1181681 C13.3693432,48.1181681 12.5004767,47.2510613 12.5004767,46.1814309 C12.5004767,45.1118004 13.3693432,44.2446936 14.4411444,44.2446936 Z M14.6135865,29.7191644 C16.0166511,29.7191644 17.1540597,30.856573 17.1540597,32.2596376 C17.1540597,32.3231664 17.1516768,32.3866728 17.1469159,32.4500229 L16.5151278,40.856803 C16.4399364,41.8573238 15.6062088,42.630746 14.6028667,42.630746 C13.5995245,42.630746 12.7657969,41.8573238 12.6906055,40.856803 L12.0588175,32.4500229 C11.9536706,31.0509037 13.0026424,29.8314551 14.4017615,29.7263082 C14.4651117,29.7215473 14.5286181,29.7191644 14.5921468,29.7191644 L14.6135865,29.7191644 Z" id="形状结合" fill="#979797" transform="translate(14.602807, 38.918666) rotate(-16.000000) translate(-14.602807, -38.918666) "></path>
            <line x1="12" y1="192" x2="124" y2="192" id="路径" stroke="#979797" stroke-width="1.49439601" fill="#FFFFFF"></line>
            <g id="编组-24" transform="translate(31.173896, 189.388203) scale(-1, 1) rotate(-8.000000) translate(-31.173896, -189.388203) translate(18.673896, 180.388203)" fill="#FFFFFF" stroke="#979797" stroke-linecap="round" stroke-linejoin="round" stroke-width="1.49439601">
                <path d="M1.17632386,11.758065 C1.17264724,7.20278859 4.55649093,2.988228 11.7354245,2.22624702 C19.9220252,1.51323829 23.10546,7.93752822 23.1769905,9.99467802 C23.248521,12.0518278 22.0893763,14.5939492 16.8460398,13.8888438 C14.0851291,16.0477208 11.3029117,16.2790834 8.49938767,14.5829316 C4.26432957,15.7234701 1.82330831,14.7818479 1.17632386,11.758065 Z" id="路径-32" transform="translate(12.178183, 8.936825) rotate(12.000000) translate(-12.178183, -8.936825) "></path>
                <path d="M7.24389058,13.5983138 C7.05045532,11.2203438 7.35511997,9.17601006 8.15788453,7.46531253" id="路径-33"></path>
                <path d="M15.8596476,14.7903604 C16.7221666,11.9319255 16.7221666,9.77999519 15.8596476,8.33456963" id="路径-34"></path>
            </g>
            <path d="M62.0109967,158 C61.7614904,144.08678 65.7578248,143.372039 74,155.855776" id="路径-46" stroke="#979797" stroke-width="1.49439601" stroke-linecap="round"></path>
            <g id="编组-32" transform="translate(144.641136, 107.836430) rotate(-337.000000) translate(-144.641136, -107.836430) translate(83.641136, 16.836430)">
                <rect id="矩形" stroke="#979797" stroke-width="1.49439601" fill="#D8D8D8" x="53.6918064" y="62.6211706" width="14.5550078" height="118.78655" rx="6.72478207"></rect>
                <rect id="矩形" stroke="#979797" stroke-width="1.49439601" fill="#D8D8D8" x="-1.17668466e-12" y="4.19626401" width="121.615176" height="101.678705" rx="10.7596513"></rect>
                <rect id="矩形" fill="#FFFFFF" x="1.24880589" y="5.23943615" width="114.499394" height="99.7419676" rx="9.5641345"></rect>
                <path d="M53.691759,15.4633803 L53.691759,94.2850631 C34.008243,91.8966997 18.7597878,75.1625879 18.7597878,54.8742217 C18.7597878,34.5858554 34.008243,17.8517436 53.691759,15.4633803 Z M64.0422611,15.5472703 C83.4118863,18.2198315 98.3271635,34.8087295 98.3271635,54.8742217 C98.3271635,74.9397139 83.4118863,91.5286119 64.0422611,94.201173 Z" id="形状结合" fill="#D8D8D8" transform="translate(58.543476, 54.874222) rotate(-57.000000) translate(-58.543476, -54.874222) "></path>
                <path d="M69.1942492,72.4677387 L76.4557401,76.9867922 C77.5925647,77.6942738 77.939452,79.1875129 77.2305346,80.3220351 C76.5216172,81.4565572 75.0253477,81.802742 73.8885231,81.0952604 L66.6270322,76.5762069 C65.4902076,75.8687253 65.1433203,74.3754862 65.8522377,73.240964 C66.5611551,72.1064419 68.0574246,71.7602571 69.1942492,72.4677387 Z M52.7251027,73.354979 C52.868211,74.0025204 52.9836226,74.2863114 53.2185563,74.6409116 L53.2964535,74.7546474 C53.4222364,74.9329398 53.7320782,75.360397 53.7492714,75.3845093 C54.0164006,75.7591384 54.2450973,76.1029663 54.4857383,76.5023765 C55.1761072,77.6482344 54.8049752,79.1356567 53.656792,79.8246274 C52.5086087,80.513598 51.0181677,80.1432177 50.3277988,78.9973598 C50.1913348,78.7708601 50.0607092,78.5702072 49.9117939,78.3557852 L49.2508412,77.4291779 C48.6388453,76.5338095 48.271383,75.6832414 47.9872991,74.3978084 C47.6987453,73.0921498 48.5254197,71.8002591 49.833728,71.5122897 C51.1420363,71.2243203 52.4365489,72.0493204 52.7251027,73.354979 Z M59.2229168,71.9923214 L63.632299,75.5430063 C64.6749551,76.3826122 64.8381785,77.9067752 63.9968687,78.9473196 C63.1555589,79.987864 61.6283027,80.1507569 60.5856466,79.3111509 L56.1762644,75.760466 C55.1336083,74.9208601 54.9703849,73.3966971 55.8116947,72.3561527 C56.6530045,71.3156083 58.1802607,71.1527155 59.2229168,71.9923214 Z M46.5624208,70.9590179 C47.4623787,71.9494844 47.3873775,73.4804986 46.3949009,74.3786338 L42.1145513,78.2521083 C41.1220747,79.1502435 39.5879534,79.0753942 38.6879955,78.0849277 C37.7880376,77.0944611 37.8630388,75.563447 38.8555154,74.6653118 L43.1358651,70.7918373 C44.1283417,69.8937021 45.6624629,69.9685514 46.5624208,70.9590179 Z M56.6759671,64.0136008 L57.1809273,64.0699001 C62.1105754,64.6273255 66.197071,65.2546967 73.8354402,66.5847193 L78.8474789,67.4655623 C80.1668607,67.6979132 81.049107,68.9538994 80.8180313,70.270886 C80.5869555,71.5878726 79.3300614,72.4671435 78.0106797,72.2347927 L73.0311924,71.3596372 C65.4741657,70.0436624 61.4536683,69.4262115 56.6409906,68.8820126 C49.4935231,68.0738048 43.1542722,67.8492749 37.0494391,68.2835223 C35.7134809,68.3785513 34.5519614,67.3742112 34.4551129,66.0402659 C34.3582644,64.7063206 35.3627613,63.547908 36.6987195,63.452879 C42.9811715,63.0059973 49.4556489,63.2201032 56.6759671,64.0136008 Z M45.7968721,44.9279657 C47.1362271,44.9125641 48.2358496,45.9841235 48.2529477,47.3213607 L48.2783932,49.2062928 C48.2814016,49.3827982 48.2844933,49.5359516 48.2879053,49.6699196 C49.5341927,49.8144827 50.7368449,49.9595276 51.9260187,50.1065083 L51.7302816,47.8419689 C51.6156069,46.5094111 52.6045082,45.337694 53.9390545,45.2248655 C55.2736008,45.1120369 56.4484266,46.1008229 56.5631013,47.4333807 L56.8469487,50.7346979 L57.2728233,50.7907234 C58.495525,50.9520652 59.7760197,51.124004 61.2380722,51.3230505 L61.5689487,51.3686979 L62.7370339,47.0630911 C63.087005,45.7726558 64.4188447,45.0111121 65.711781,45.3621355 C67.0047173,45.713159 67.7691417,47.0438242 67.4191705,48.3342594 L66.4139487,52.0376979 L69.8379487,52.5106979 L71.7346073,46.8083126 C72.1563351,45.5395268 73.5288391,44.8535891 74.8002268,45.2760941 C76.0715226,45.6988663 76.7602707,47.0700366 76.3385429,48.3388223 L74.7269487,53.1856979 L78.9502447,53.7695606 C80.2773915,53.9521579 81.2063384,55.174146 81.0251055,56.4989474 C80.8438727,57.8237489 79.6210893,58.7496883 78.2939425,58.567091 L73.1729487,57.8596979 L71.227864,63.7145131 C70.8061362,64.9832988 69.4336321,65.6692366 68.1622444,65.2467316 C66.8909487,64.8239594 66.2022005,63.4527891 66.6239283,62.1840033 L68.2849487,57.1836979 L65.1359487,56.7486979 L63.9637782,61.075196 C63.6138071,62.3656312 62.2819674,63.127175 60.9890311,62.7761516 C59.6960948,62.4251281 58.9316705,61.0944629 59.2816416,59.8040277 L60.2889837,56.0807605 C59.2011784,55.9329164 58.2133316,55.8000679 57.2713684,55.6749994 L57.5878001,59.3407129 C57.7024749,60.6732708 56.7135736,61.8449879 55.3790273,61.9578164 C54.044481,62.0706449 52.8696552,61.081859 52.7549804,59.7493012 L52.3499487,55.0386979 L51.9975802,54.9948397 C51.1969439,54.8949757 50.3924801,54.7962768 49.5752125,54.6977028 C49.9505954,56.0333792 50.3643108,57.5994503 50.8392026,59.5058051 C51.1625889,60.8039726 50.3710164,62.11677 49.0711758,62.43802 C47.7713353,62.7592701 46.4554499,61.9673219 46.1320636,60.6691543 L45.9521057,59.9514918 C45.4413057,57.9282825 45.0078174,56.3323428 44.6160396,54.9974614 L44.4110706,54.3138344 C44.388726,54.2406078 44.3656742,54.1653164 44.3422034,54.0888523 C43.2467139,53.9639886 42.1046482,53.8372462 40.9012237,53.7057451 C39.5695319,53.5602279 38.6067887,52.3645832 38.7508764,51.0351979 C38.8949642,49.7058126 40.0913198,48.7460978 41.4230115,48.8916149 L43.426513,49.11444 C43.4187507,48.645084 43.4116579,48.0766215 43.4027142,47.3771352 C43.3856161,46.0398979 44.4575171,44.9433674 45.7968721,44.9279657 Z M49.9607161,25.1412695 C51.1438144,25.7697875 51.5937726,27.2362265 50.9657259,28.4166525 L50.5217463,29.2462673 C49.1996072,31.7016758 48.0175753,33.7557097 46.8090255,35.6437278 C51.769999,36.7164909 56.8825366,37.3448872 66.2555858,38.2234106 L70.3378214,38.6057508 C76.4241272,39.1861895 79.6180785,39.5619638 83.4665507,40.1817997 C84.7891777,40.3948223 85.6897517,41.637786 85.4780392,42.9580367 C85.2663267,44.2782874 84.0224989,45.1758731 82.6998719,44.9628505 L81.8496829,44.828387 C78.3383707,44.2836543 75.1339898,43.9227093 69.1485448,43.3570217 L64.4094983,42.9128225 C54.5509564,41.9714889 49.4493205,41.2785543 43.8102739,39.9253492 C41.7430815,42.6322774 39.3055514,45.3859306 35.9056238,49.0244456 C34.9924603,50.0016897 33.4577908,50.0538296 32.4778436,49.1409033 C31.4978965,48.2279769 31.4437577,46.695691 32.3569212,45.7184469 L33.0546274,44.9696248 C39.8854936,37.6155559 42.3981281,34.1909836 46.6813481,26.1405875 C47.3093948,24.9601615 48.7776178,24.5127515 49.9607161,25.1412695 Z" id="形状结合" fill="#979797" fill-rule="nonzero"></path>
            </g>
        </g>
    </g>
</svg>