<?xml version="1.0" encoding="UTF-8"?>
<svg width="374px" height="700px" viewBox="0 0 374 700" version="1.1" xmlns="http://www.w3.org/2000/svg" xmlns:xlink="http://www.w3.org/1999/xlink">
    <!-- Generator: Sketch 53.2 (72643) - https://sketchapp.com -->
    <title>AI实验室切图/大</title>
    <desc>Created with Sketch.</desc>
    <defs>
        <path d="M8,0 L156,0 C160.418278,-8.11624501e-16 164,3.581722 164,8 L164,140 L0,140 L0,8 C-5.41083001e-16,3.581722 3.581722,8.11624501e-16 8,0 Z" id="path-1"></path>
        <path d="M8,0 L156,0 C160.418278,-8.11624501e-16 164,3.581722 164,8 L164,140 L0,140 L0,8 C-5.41083001e-16,3.581722 3.581722,8.11624501e-16 8,0 Z" id="path-3"></path>
        <rect id="path-5" x="0" y="0" width="170" height="170"></rect>
        <rect id="path-7" x="0" y="0" width="191" height="191"></rect>
        <linearGradient x1="50%" y1="0%" x2="54.4019875%" y2="39.8901054%" id="linearGradient-9">
            <stop stop-color="#FFC97E" stop-opacity="0" offset="0%"></stop>
            <stop stop-color="#FF9948" offset="100%"></stop>
        </linearGradient>
        <filter x="-17.6%" y="-16.6%" width="135.3%" height="133.3%" filterUnits="objectBoundingBox" id="filter-10">
            <feGaussianBlur stdDeviation="23" in="SourceGraphic"></feGaussianBlur>
        </filter>
        <linearGradient x1="92.985509%" y1="99.4334323%" x2="36.3960728%" y2="13.3748055%" id="linearGradient-11">
            <stop stop-color="#0090FF" stop-opacity="0" offset="0%"></stop>
            <stop stop-color="#007EFF" offset="56.2768241%"></stop>
            <stop stop-color="#0057FF" offset="100%"></stop>
        </linearGradient>
        <filter x="-49.4%" y="-49.7%" width="198.9%" height="199.4%" filterUnits="objectBoundingBox" id="filter-12">
            <feGaussianBlur stdDeviation="29" in="SourceGraphic"></feGaussianBlur>
        </filter>
        <filter x="-77.0%" y="-77.7%" width="254.0%" height="255.4%" filterUnits="objectBoundingBox" id="filter-13">
            <feGaussianBlur stdDeviation="29" in="SourceGraphic"></feGaussianBlur>
        </filter>
        <path d="M206,38 L206,6 C206,3.790861 207.790861,2 210,2 L311.729802,2 C313.938941,2 315.729802,3.790861 315.729802,6 L315.729802,32 L315.830947,32 C315.764426,32.3252085 315.729802,32.6592878 315.729802,33 C315.729802,35.0869708 317.028892,36.9250785 319,38 L206,38 Z" id="path-14"></path>
        <path d="M319,84 L203,84 C204.848135,82.9250785 206.066178,81.0869708 206.066178,79 C206.066178,78.6592878 206.033713,78.3252085 205.971343,78 L206.066178,78 L206.066178,52 C206.066178,49.790861 207.857039,48 210.066178,48 L311.809115,48 C314.018254,48 315.809115,49.790861 315.809115,52 L315.809115,78 L316.028657,78 C315.966287,78.3252085 315.933822,78.6592878 315.933822,79 C315.933822,81.0869708 317.151865,82.9250785 319,84 Z" id="path-15"></path>
        <path d="M319,130 L203,130 C204.848135,128.925078 206.066178,127.086971 206.066178,125 C206.066178,124.659288 206.033713,124.325208 205.971343,124 L206.066178,124 L206.066178,98 C206.066178,95.790861 207.857039,94 210.066178,94 L311.809115,94 C314.018254,94 315.809115,95.790861 315.809115,98 L315.809115,124 L316.028657,124 C315.966287,124.325208 315.933822,124.659288 315.933822,125 C315.933822,127.086971 317.151865,128.925078 319,130 Z" id="path-16"></path>
    </defs>
    <g id="ai-实验室" stroke="none" stroke-width="1" fill="none" fill-rule="evenodd">
        <g id="AI实验室切图/大">
            <rect id="矩形" stroke="#979797" fill="#D8D8D8" x="0.5" y="0.5" width="1" height="1"></rect>
            <g id="识别/数值" transform="translate(2.000000, 533.000000)">
                <g id="矩形-+-矩形-copy-4-Mask">
                    <mask id="mask-2" fill="white">
                        <use xlink:href="#path-1"></use>
                    </mask>
                    <use id="Mask" fill="#3DD1AE" xlink:href="#path-1"></use>
                    <path d="M62.860979,76.2997167 L82.360979,62.7891691 C83.0461347,62.3144599 83.9538653,62.3144599 84.639021,62.7891691 L104.139021,76.2997167 C104.678268,76.6733335 105,77.2876534 105,77.9436848 L105,208 L62,208 L62,77.9436848 C62,77.2876534 62.3217317,76.6733335 62.860979,76.2997167 Z" id="合并形状-copy-2" fill="#07A47F" mask="url(#mask-2)"></path>
                    <path d="M30.860979,106.299717 L50.360979,92.7891691 C51.0461347,92.3144599 51.9538653,92.3144599 52.639021,92.7891691 L72.139021,106.299717 C72.6782683,106.673333 73,107.287653 73,107.943685 L73,238 L30,238 L30,107.943685 C30,107.287653 30.3217317,106.673333 30.860979,106.299717 Z" id="合并形状-copy" fill="#24B895" mask="url(#mask-2)"></path>
                    <path d="M81.8855932,30 C85.4279661,30 88.0847458,30.9412844 89.7627119,32.8238532 C91.2542373,34.4587156 92,36.8366972 92,39.9577982 L92,56.306422 L87.059322,56.306422 L87.059322,52.9376147 C86.1271186,54.2256881 84.9618644,55.1669725 83.6101695,55.8605505 C82.0720339,56.6036697 80.2542373,57 78.1567797,57 C75.6398305,57 73.6822034,56.306422 72.2372881,54.9688073 C70.7457627,53.5816514 70,51.8477064 70,49.7174312 C70,46.8440367 71.0254237,44.6146789 73.1694915,43.0788991 C75.1271186,41.5926606 77.8771186,40.8 81.4194915,40.7009174 L86.6864407,40.5522936 L86.6864407,39.5614679 C86.6864407,36.1926606 84.9618644,34.5577982 81.5127119,34.5577982 C80.0211864,34.5577982 78.8559322,34.8055046 77.970339,35.4 C76.9449153,36.0440367 76.2457627,37.0348624 75.9661017,38.3724771 L70.6991525,37.9266055 C71.2118644,35.1027523 72.5169492,33.0220183 74.6144068,31.733945 C76.3855932,30.5449541 78.809322,30 81.8855932,30 Z M88,44 L82.7717842,44.1472393 C78.2406639,44.2453988 76,45.8159509 76,48.8588957 C76,49.7423313 76.3485477,50.4785276 77.1452282,51.0674847 C77.9419087,51.6564417 78.9377593,52 80.1825726,52 C82.373444,52 84.2157676,51.3619632 85.7095436,50.1349693 C87.2033195,48.8588957 88,47.2392638 88,45.2760736 L88,44 Z" id="a" fill="#07A47F" fill-rule="nonzero" mask="url(#mask-2)"></path>
                    <path d="M49,38 L64,38 L64,41 L49,41 L49,38 Z M49,45 L64,45 L64,48 L49,48 L49,45 Z" id="=" fill="#07A47F" fill-rule="nonzero" mask="url(#mask-2)"></path>
                    <rect id="矩形" fill="#7DEFD4" mask="url(#mask-2)" x="98" y="-12" width="70" height="86"></rect>
                    <path d="M149.259175,27.4032734 C147.909064,26.6265166 147,25.1694199 147,23.5 C147,21.0147186 149.014719,19 151.5,19 C153.985281,19 156,21.0147186 156,23.5 C156,25.9852814 153.985281,28 151.5,28 C151.053036,28 150.621291,27.9348358 150.213748,27.8134895 L144.368093,35.0322727 C145.364941,35.8576766 146,37.1046754 146,38.5 C146,40.9852814 143.985281,43 141.5,43 C139.540672,43 137.873813,41.7477886 137.256059,40 L130.972536,40 C130.723813,42.2499752 128.816277,44 126.5,44 C125.571913,44 124.709446,43.7190422 123.993015,43.2375406 L117.806393,51.4474657 C118.54731,52.2496028 119,53.3219356 119,54.5 C119,56.9852814 116.985281,59 114.5,59 C112.014719,59 110,56.9852814 110,54.5 C110,52.0147186 112.014719,50 114.5,50 C115.446277,50 116.324335,50.2920785 117.048939,50.7910004 L123.228735,42.5901342 C122.467024,41.7840601 122,40.6965697 122,39.5 C122,37.0147186 124.014719,35 126.5,35 C128.816277,35 130.723813,36.7500248 130.972536,39 L137.027464,39 C137.009317,38.8358331 137,38.6690045 137,38.5 C137,36.0147186 139.014719,34 141.5,34 C142.229317,34 142.918112,34.1734988 143.527362,34.481474 L149.259175,27.4032734 Z" id="合并形状" fill="#3DD1AE" mask="url(#mask-2)"></path>
                    <rect id="矩形-copy-4" fill="#14B58F" mask="url(#mask-2)" x="98" y="74" width="70" height="74"></rect>
                    <text id="3" mask="url(#mask-2)" font-family="PingFangSC-Semibold, PingFang SC" font-size="61" font-weight="500" fill="#07A47F">
                        <tspan x="9" y="60">3</tspan>
                    </text>
                    <path d="M147,123.985538 L147,124 L123,124 L123,123.988305 C122.834309,123.996073 122.667613,124 122.5,124 C116.70101,124 112,119.29899 112,113.5 C112,107.70101 116.70101,103 122.5,103 C123.316981,103 124.112169,103.093306 124.875489,103.269843 C127.154162,99.5114108 131.283795,97 136,97 C142.25114,97 147.471765,101.412156 148.717588,107.292179 C152.336625,108.267579 155,111.572757 155,115.5 C155,120.026573 151.46169,123.726729 147,123.985538 Z" id="合并形状" fill="#FFFFFF" mask="url(#mask-2)"></path>
                </g>
            </g>
            <g id="识别/图像" transform="translate(2.000000, 383.000000)">
                <g id="矩形">
                    <mask id="mask-4" fill="white">
                        <use xlink:href="#path-3"></use>
                    </mask>
                    <use id="Mask" fill="#32C2FF" xlink:href="#path-3"></use>
                    <circle id="椭圆形" fill="#30A0FC" mask="url(#mask-4)" cx="38" cy="33" r="12"></circle>
                    <path d="M41.0777088,66.1554175 L82,148 L-7,148 L33.9222912,66.1554175 C34.9102482,64.1795035 37.3129404,63.3786062 39.2888544,64.3665631 C40.062964,64.753618 40.690654,65.3813079 41.0777088,66.1554175 Z" id="三角形" fill="#2773FF" mask="url(#mask-4)"></path>
                    <path d="M115.577709,7.15541753 L183.105573,142.211146 C184.09353,144.18706 183.292632,146.589752 181.316718,147.577709 C180.761297,147.85542 180.148844,148 179.527864,148 L44.472136,148 C42.262997,148 40.472136,146.209139 40.472136,144 C40.472136,143.37902 40.6167163,142.766567 40.8944272,142.211146 L108.422291,7.15541753 C109.410248,5.17950354 111.81294,4.37860615 113.788854,5.36656315 C114.562964,5.75361795 115.190654,6.38130792 115.577709,7.15541753 Z" id="三角形-copy" fill="#30A0FC" mask="url(#mask-4)"></path>
                    <rect fill="#95E1FF" mask="url(#mask-4)" x="97" y="-12" width="70" height="165"></rect>
                    <g id="分组" mask="url(#mask-4)" fill="#35C2FF">
                        <g transform="translate(113.000000, 24.000000)">
                            <rect id="矩形" x="0" y="20" width="6" height="15" rx="1"></rect>
                            <rect id="矩形-copy-3" x="16" y="0" width="6" height="35" rx="1"></rect>
                            <rect id="矩形-copy-5" x="32" y="10" width="6" height="25" rx="1"></rect>
                        </g>
                    </g>
                    <rect id="矩形-copy-4" fill="#2773FF" mask="url(#mask-4)" x="97" y="74" width="70" height="74"></rect>
                    <path d="M139.25404,113.005724 C139.870176,111.254946 141.538534,110 143.5,110 C145.985281,110 148,112.014719 148,114.5 C148,116.985281 145.985281,119 143.5,119 C141.014719,119 139,116.985281 139,114.5 C139,114.340555 139.008293,114.183046 139.02447,114.027882 L131.793094,109.852845 C131.267263,111.523127 129.793594,112.773146 128.002762,112.972229 L128.002762,119.027771 C130.251407,119.277748 132,121.184671 132,123.5 C132,125.985281 129.985281,128 127.5,128 C125.014719,128 123,125.985281 123,123.5 C123,121.182776 124.751457,119.274626 127.002762,119.02716 L127.002762,112.97284 C124.915654,112.743423 123.258141,111.086729 123.027464,109 L113.972536,109 C113.723813,111.249975 111.816277,113 109.5,113 C107.014719,113 105,110.985281 105,108.5 C105,106.014719 107.014719,104 109.5,104 C111.816277,104 113.723813,105.750025 113.972536,108 L123.027464,108 C123.258141,105.913271 124.915654,104.256577 127.002762,104.02716 L127.002762,97.97284 C124.751457,97.7253741 123,95.8172244 123,93.5 C123,91.0147186 125.014719,89 127.5,89 C129.985281,89 132,91.0147186 132,93.5 C132,93.9812896 131.924443,94.4449319 131.784543,94.8797122 L139.021438,99.0579356 C139.243533,96.780138 141.16388,95 143.5,95 C145.985281,95 148,97.0147186 148,99.5 C148,101.985281 145.985281,104 143.5,104 C141.4969,104 139.799483,102.691214 139.216235,100.882128 L130.974718,105.64037 C131.615291,106.41783 132,107.413988 132,108.5 C132,108.604699 131.996424,108.708562 131.989389,108.811475 L139.25404,113.005724 Z M128.002762,104.027771 C128.832483,104.120009 129.594121,104.437843 130.224952,104.918548 L138.698634,100.026265 L131.371157,95.7957444 C130.667739,96.9793169 129.43696,97.8127927 128.002762,97.9722295 L128.002762,104.027771 Z" id="合并形状" fill="#FFFFFF" mask="url(#mask-4)"></path>
                </g>
            </g>
            <g id="训练/数据输入图" transform="translate(2.000000, 203.000000)">
                <g id="矩形-+-矩形-copy-4-Mask" stroke-width="1" fill-rule="evenodd">
                    <mask id="mask-6" fill="white">
                        <use xlink:href="#path-5"></use>
                    </mask>
                    <use id="Mask" fill="#3DD1AE" xlink:href="#path-5"></use>
                    <path d="M124.238186,61.4071982 L152.383534,37.0645518 C153.134755,36.4148279 154.248966,36.4148279 155.000187,37.0645518 L183.145535,61.4071982 C183.584782,61.7870983 183.837209,62.3391632 183.837209,62.9199054 L183.837209,291.47219 L123.546512,291.47219 L123.546512,62.9199054 C123.546512,62.3391632 123.798939,61.7870983 124.238186,61.4071982 Z" id="合并形状-copy-2" fill="#07A47F" mask="url(#mask-6)"></path>
                    <path d="M79.7614413,112.802547 L107.90679,88.4599006 C108.658011,87.8101768 109.772221,87.8101768 110.523442,88.4599006 L138.668791,112.802547 C139.108038,113.182447 139.360465,113.734512 139.360465,114.315254 L139.360465,342.867538 L79.0697674,342.867538 L79.0697674,114.315254 C79.0697674,113.734512 79.3221949,113.182447 79.7614413,112.802547 Z" id="合并形状-copy" fill="#24B895" mask="url(#mask-6)"></path>
                </g>
                <path d="M98.8037052,42.5 C102.623177,42.5 105.487781,43.4647962 107.297004,45.3943887 C108.905203,47.0700875 109.709302,49.5074675 109.709302,52.7065287 L109.709302,69.4635161 L104.382144,69.4635161 L104.382144,66.0105611 C103.37702,67.3308086 102.120615,68.2956049 100.663185,69.0065074 C99.00473,69.7681886 97.0447379,70.1744186 94.7832085,70.1744186 C92.0693733,70.1744186 89.9586125,69.4635161 88.4006701,68.0924899 C86.7924714,66.6706849 85.9883721,64.8934286 85.9883721,62.7099424 C85.9883721,59.7647749 87.0940087,57.4797312 89.4057942,55.9055899 C91.516555,54.3822274 94.4816713,53.5697674 98.3011431,53.4682099 L103.980095,53.3158737 L103.980095,52.3002987 C103.980095,48.8473437 102.120615,47.171645 98.4016555,47.171645 C96.7934568,47.171645 95.5370516,47.4255387 94.5821837,48.0348837 C93.4765471,48.6950075 92.722704,49.7105825 92.4211667,51.0816087 L86.7422152,50.6246 C87.2950335,47.7302112 88.7022073,45.5975037 90.9637367,44.2772562 C92.8734726,43.0585662 95.4867954,42.5 98.8037052,42.5 Z M103.77907,57.3255814 L98.6116472,57.4711086 C94.1332143,57.5681267 91.9186047,59.1204166 91.9186047,62.1279783 C91.9186047,63.0011414 92.2630995,63.7287773 93.0505163,64.310886 C93.837933,64.8929947 94.822204,65.2325581 96.0525427,65.2325581 C98.2179388,65.2325581 100.03884,64.6019404 101.515247,63.3892139 C102.991653,62.1279783 103.77907,60.5271793 103.77907,58.5868169 L103.77907,57.3255814 Z" id="a" fill="#07A47F" fill-rule="nonzero"></path>
                <path d="M61.2790698,47.4418605 L80.0581395,47.4418605 L80.0581395,51.3953488 L61.2790698,51.3953488 L61.2790698,47.4418605 Z M61.2790698,54.3604651 L80.0581395,54.3604651 L80.0581395,58.3139535 L61.2790698,58.3139535 L61.2790698,54.3604651 Z" id="=" fill="#07A47F" fill-rule="nonzero"></path>
                <path d="M35.0146275,20.6115116 C40.3415926,20.6115116 44.7067446,21.856967 47.9621122,24.4211399 C51.1434942,26.9853128 52.771178,30.5018927 52.771178,35.0441419 C52.771178,40.7585843 49.8117529,44.5682126 43.9668884,46.4730267 C47.0742847,47.4254338 49.5158104,48.8174133 51.1434942,50.7222275 C52.9191492,52.7003037 53.8069767,55.2644766 53.8069767,58.341484 C53.8069767,63.1767815 52.1053073,67.1329339 48.7019685,70.2099414 C45.1506584,73.3602109 40.4895639,74.9719767 34.718685,74.9719767 C29.2437486,74.9719767 24.804611,73.5799972 21.4752578,70.796038 C17.7759764,67.7190306 15.7043789,63.1767815 15.2604651,57.3158149 L24.0647547,57.3158149 C24.212726,60.6858707 25.2485248,63.3233056 27.3201223,65.1548577 C29.169763,66.8398856 31.6112887,67.7190306 34.6446994,67.7190306 C37.9740526,67.7190306 40.6375352,66.7666235 42.5611615,64.9350715 C44.2628309,63.2500436 45.1506584,61.1987053 45.1506584,58.7077945 C45.1506584,55.7040491 44.1888452,53.5061866 42.4131902,52.114207 C40.6375352,50.6489654 38.0480382,49.9896067 34.6446994,49.9896067 L30.945418,49.9896067 L30.945418,43.5425434 L34.6446994,43.5425434 C37.7520957,43.5425434 40.1196358,42.8831847 41.7473196,41.5644672 C43.3010177,40.2457497 44.1148596,38.2676735 44.1148596,35.7035006 C44.1148596,33.1393277 43.3750033,31.2345136 41.9692764,29.9157961 C40.4155783,28.5970786 38.1220238,27.9377199 35.0886131,27.9377199 C31.9812168,27.9377199 29.6136767,28.6703407 27.9120073,30.2088444 C26.1363523,31.7473481 25.1005535,34.0917348 24.804611,37.2420043 L16.2962639,37.2420043 C16.7401777,31.9671344 18.663804,27.8644578 22.215114,24.9339745 C25.5444673,22.0034912 29.8356336,20.6115116 35.0146275,20.6115116 Z" id="3" fill="#07A47F" fill-rule="nonzero"></path>
            </g>
            <g id="训练/训练结果" transform="translate(2.000000, 2.000000)">
                <g id="椭圆形-+-椭圆形-copy-3-Mask">
                    <mask id="mask-8" fill="white">
                        <use xlink:href="#path-7"></use>
                    </mask>
                    <use id="Mask-Copy" fill="#FFFFFF" xlink:href="#path-7"></use>
                    <path d="M118.71875,398 C219.942189,398 302,316.028605 302,214.911765 C302,147.500538 282.993056,70.1966163 244.979167,-17 C186.268004,23.7871801 144.181198,50.9113631 118.71875,64.372549 C1.15299019,126.525824 -89,-10.9205779 -89,39.9607843 C-89,141.077625 17.4953107,398 118.71875,398 Z" id="椭圆形" fill="url(#linearGradient-9)" filter="url(#filter-10)" mask="url(#mask-8)" transform="translate(106.500000, 190.500000) scale(-1, 1) translate(-106.500000, -190.500000) "></path>
                    <ellipse id="椭圆形-copy-3" fill="url(#linearGradient-11)" filter="url(#filter-12)" mask="url(#mask-8)" cx="148" cy="35.5" rx="88" ry="87.5"></ellipse>
                    <ellipse id="椭圆形-copy-67" fill="#3DD1AE" filter="url(#filter-13)" mask="url(#mask-8)" cx="186.5" cy="171" rx="56.5" ry="56"></ellipse>
                    <circle id="椭圆形" stroke="#FFFFFF" fill="#FF9948" mask="url(#mask-8)" cx="55.5" cy="165.5" r="3.5"></circle>
                    <circle id="椭圆形-copy-18" stroke="#FFFFFF" fill="#FF9948" mask="url(#mask-8)" cx="55.5" cy="187.5" r="3.5"></circle>
                    <circle id="椭圆形-copy-19" stroke="#FFFFFF" fill="#FF9948" mask="url(#mask-8)" cx="58.5" cy="187.5" r="3.5"></circle>
                    <circle id="椭圆形-copy-20" stroke="#FFFFFF" fill="#FF9948" mask="url(#mask-8)" cx="67.5" cy="178.5" r="3.5"></circle>
                    <circle id="椭圆形-copy-21" stroke="#FFFFFF" fill="#FF9948" mask="url(#mask-8)" cx="49.5" cy="156.5" r="3.5"></circle>
                    <circle id="椭圆形-copy-22" stroke="#FFFFFF" fill="#FF9948" mask="url(#mask-8)" cx="71.5" cy="146.5" r="3.5"></circle>
                    <circle id="椭圆形-copy-23" stroke="#FFFFFF" fill="#FF9948" mask="url(#mask-8)" cx="94.5" cy="173.5" r="3.5"></circle>
                    <circle id="椭圆形-copy-26" stroke="#FFFFFF" fill="#3DD1AE" mask="url(#mask-8)" transform="translate(153.315191, 168.345908) rotate(-75.000000) translate(-153.315191, -168.345908) " cx="153.315191" cy="168.345908" r="3.33139535"></circle>
                    <circle id="椭圆形-copy-17" stroke="#FFFFFF" fill="#FF9948" mask="url(#mask-8)" cx="38.5" cy="182.5" r="3.5"></circle>
                    <circle id="椭圆形-copy-15" stroke="#FFFFFF" fill="#FF9948" mask="url(#mask-8)" cx="43.5" cy="164.5" r="3.5"></circle>
                    <circle id="椭圆形-copy" stroke="#FFFFFF" fill="#FF9948" mask="url(#mask-8)" cx="70.5" cy="176.5" r="3.5"></circle>
                    <circle id="椭圆形-copy-16" stroke="#FFFFFF" fill="#FF9948" mask="url(#mask-8)" cx="47.5" cy="176.5" r="3.5"></circle>
                    <circle id="椭圆形-copy-2" stroke="#FFFFFF" fill="#FFAB69" mask="url(#mask-8)" cx="105.5" cy="160.5" r="3.5"></circle>
                    <circle id="椭圆形-copy-24" stroke="#FFFFFF" fill="#3DD1AE" mask="url(#mask-8)" cx="128.5" cy="187.5" r="3.5"></circle>
                    <circle id="椭圆形-copy-27" stroke="#FFFFFF" fill="#3DD1AE" mask="url(#mask-8)" transform="translate(175.881626, 139.903424) rotate(-75.000000) translate(-175.881626, -139.903424) " cx="175.881626" cy="139.903424" r="3.33139535"></circle>
                    <circle id="椭圆形-copy-29" stroke="#FFFFFF" fill="#3DD1AE" mask="url(#mask-8)" transform="translate(187.306854, 156.213830) rotate(-75.000000) translate(-187.306854, -156.213830) " cx="187.306854" cy="156.21383" r="3.33139535"></circle>
                    <circle id="椭圆形-copy-30" stroke="#FFFFFF" fill="#3DD1AE" mask="url(#mask-8)" transform="translate(175.091737, 176.202202) rotate(-75.000000) translate(-175.091737, -176.202202) " cx="175.091737" cy="176.202202" r="3.33139535"></circle>
                    <circle id="椭圆形-copy-35" stroke="#FFFFFF" fill="#1480FF" mask="url(#mask-8)" transform="translate(138.446388, 4.080109) rotate(-75.000000) translate(-138.446388, -4.080109) " cx="138.446388" cy="4.08010937" r="3.33139535"></circle>
                    <circle id="椭圆形-copy-36" stroke="#FFFFFF" fill="#1480FF" mask="url(#mask-8)" transform="translate(167.318481, 4.080109) rotate(-75.000000) translate(-167.318481, -4.080109) " cx="167.318481" cy="4.08010937" r="3.33139535"></circle>
                    <circle id="椭圆形-copy-37" stroke="#FFFFFF" fill="#1480FF" mask="url(#mask-8)" transform="translate(175.091737, 26.289412) rotate(-75.000000) translate(-175.091737, -26.289412) " cx="175.091737" cy="26.2894117" r="3.33139535"></circle>
                    <circle id="椭圆形-copy-38" stroke="#FFFFFF" fill="#1480FF" mask="url(#mask-8)" transform="translate(101.801040, 4.080109) rotate(-75.000000) translate(-101.801040, -4.080109) " cx="101.80104" cy="4.08010937" r="3.33139535"></circle>
                    <circle id="椭圆形-copy-45" stroke="#FFFFFF" fill="#54A3FF" mask="url(#mask-8)" transform="translate(65.155691, 14.074295) rotate(-75.000000) translate(-65.155691, -14.074295) " cx="65.1556908" cy="14.0742954" r="3.33139535"></circle>
                    <circle id="椭圆形-copy-39" stroke="#FFFFFF" fill="#1480FF" mask="url(#mask-8)" transform="translate(130.673133, 17.405691) rotate(-75.000000) translate(-130.673133, -17.405691) " cx="130.673133" cy="17.4056908" r="3.33139535"></circle>
                    <circle id="椭圆形-copy-46" stroke="#FFFFFF" fill="#54A3FF" mask="url(#mask-8)" transform="translate(94.027784, 27.399877) rotate(-75.000000) translate(-94.027784, -27.399877) " cx="94.0277838" cy="27.3998768" r="3.33139535"></circle>
                    <circle id="椭圆形-copy-49" stroke="#FFFFFF" fill="#54A3FF" mask="url(#mask-8)" transform="translate(110.684761, 45.167319) rotate(-75.000000) translate(-110.684761, -45.167319) " cx="110.684761" cy="45.1673187" r="3.33139535"></circle>
                    <circle id="椭圆形-copy-50" stroke="#FFFFFF" fill="#54A3FF" mask="url(#mask-8)" transform="translate(142.888249, 45.167319) rotate(-75.000000) translate(-142.888249, -45.167319) " cx="142.888249" cy="45.1673187" r="3.33139535"></circle>
                    <circle id="椭圆形-copy-51" stroke="#FFFFFF" fill="#54A3FF" mask="url(#mask-8)" transform="translate(149.551040, 59.603365) rotate(-75.000000) translate(-149.551040, -59.603365) " cx="149.55104" cy="59.6033652" r="3.33139535"></circle>
                    <circle id="椭圆形-copy-52" stroke="#FFFFFF" fill="#54A3FF" mask="url(#mask-8)" transform="translate(162.876621, 57.382435) rotate(-75.000000) translate(-162.876621, -57.382435) " cx="162.876621" cy="57.3824349" r="3.33139535"></circle>
                    <circle id="椭圆形-copy-53" stroke="#FFFFFF" fill="#54A3FF" mask="url(#mask-8)" transform="translate(176.202202, 71.818481) rotate(-75.000000) translate(-176.202202, -71.818481) " cx="176.202202" cy="71.8184815" r="3.33139535"></circle>
                    <circle id="椭圆形-copy-54" stroke="#FFFFFF" fill="#54A3FF" mask="url(#mask-8)" transform="translate(176.202202, 49.609179) rotate(-75.000000) translate(-176.202202, -49.609179) " cx="176.202202" cy="49.6091791" r="3.33139535"></circle>
                    <circle id="椭圆形-copy-55" stroke="#FFFFFF" fill="#54A3FF" mask="url(#mask-8)" transform="translate(167.318481, 57.382435) rotate(-75.000000) translate(-167.318481, -57.382435) " cx="167.318481" cy="57.3824349" r="3.33139535"></circle>
                    <circle id="椭圆形-copy-56" stroke="#FFFFFF" fill="#54A3FF" mask="url(#mask-8)" transform="translate(96.248714, 49.609179) rotate(-75.000000) translate(-96.248714, -49.609179) " cx="96.248714" cy="49.6091791" r="3.33139535"></circle>
                    <circle id="椭圆形-copy-57" stroke="#FFFFFF" fill="#A6CFFF" mask="url(#mask-8)" transform="translate(69.597551, 61.824295) rotate(-75.000000) translate(-69.597551, -61.824295) " cx="69.5975512" cy="61.8242954" r="3.33139535"></circle>
                    <circle id="椭圆形-copy-58" stroke="#FFFFFF" fill="#A6CFFF" mask="url(#mask-8)" transform="translate(70.708016, 64.045226) rotate(-75.000000) translate(-70.708016, -64.045226) " cx="70.7080163" cy="64.0452256" r="3.33139535"></circle>
                    <circle id="椭圆形-copy-59" stroke="#FFFFFF" fill="#A6CFFF" mask="url(#mask-8)" transform="translate(97.359179, 72.928947) rotate(-75.000000) translate(-97.359179, -72.928947) " cx="97.3591791" cy="72.9289466" r="3.33139535"></circle>
                    <circle id="椭圆形-copy-60" stroke="#FFFFFF" fill="#A6CFFF" mask="url(#mask-8)" transform="translate(118.458016, 95.138249) rotate(-75.000000) translate(-118.458016, -95.138249) " cx="118.458016" cy="95.1382489" r="3.33139535"></circle>
                    <circle id="椭圆形-copy-61" stroke="#FFFFFF" fill="#A6CFFF" mask="url(#mask-8)" transform="translate(138.446388, 77.370807) rotate(-75.000000) translate(-138.446388, -77.370807) " cx="138.446388" cy="77.370807" r="3.33139535"></circle>
                    <circle id="椭圆形-copy-62" stroke="#FFFFFF" fill="#A6CFFF" mask="url(#mask-8)" transform="translate(162.876621, 95.138249) rotate(-75.000000) translate(-162.876621, -95.138249) " cx="162.876621" cy="95.1382489" r="3.33139535"></circle>
                    <circle id="椭圆形-copy-40" stroke="#FFFFFF" fill="#1480FF" mask="url(#mask-8)" transform="translate(153.992900, 15.184761) rotate(-75.000000) translate(-153.992900, -15.184761) " cx="153.9929" cy="15.1847605" r="3.33139535"></circle>
                    <circle id="椭圆形-copy-41" stroke="#FFFFFF" fill="#1480FF" mask="url(#mask-8)" transform="translate(175.091737, 7.411505) rotate(-75.000000) translate(-175.091737, -7.411505) " cx="175.091737" cy="7.41150472" r="3.33139535"></circle>
                    <circle id="椭圆形-copy-42" stroke="#FFFFFF" fill="#1480FF" mask="url(#mask-8)" transform="translate(82.923133, 10.742900) rotate(-75.000000) translate(-82.923133, -10.742900) " cx="82.9231326" cy="10.7429001" r="3.33139535"></circle>
                    <circle id="椭圆形-copy-47" stroke="#FFFFFF" fill="#54A3FF" mask="url(#mask-8)" transform="translate(46.277784, 20.737086) rotate(-75.000000) translate(-46.277784, -20.737086) " cx="46.2777838" cy="20.7370861" r="3.33139535"></circle>
                    <circle id="椭圆形-copy-65" stroke="#FFFFFF" fill="#54A3FF" mask="url(#mask-8)" transform="translate(26.289412, 7.411505) rotate(-75.000000) translate(-26.289412, -7.411505) " cx="26.2894117" cy="7.41150472" r="3.33139535"></circle>
                    <circle id="椭圆形-copy-66" stroke="#FFFFFF" fill="#54A3FF" mask="url(#mask-8)" transform="translate(27.399877, 17.405691) rotate(-75.000000) translate(-27.399877, -17.405691) " cx="27.3998768" cy="17.4056908" r="3.33139535"></circle>
                    <circle id="椭圆形-copy-43" stroke="#FFFFFF" fill="#1480FF" mask="url(#mask-8)" transform="translate(57.382435, 2.969644) rotate(-75.000000) translate(-57.382435, -2.969644) " cx="57.3824349" cy="2.96964425" r="3.33139535"></circle>
                    <circle id="椭圆形-copy-44" stroke="#FFFFFF" fill="#1480FF" mask="url(#mask-8)" transform="translate(76.260342, 22.958016) rotate(-75.000000) translate(-76.260342, -22.958016) " cx="76.2603419" cy="22.9580163" r="3.33139535"></circle>
                    <circle id="椭圆形-copy-48" stroke="#FFFFFF" fill="#54A3FF" mask="url(#mask-8)" transform="translate(39.614993, 32.952202) rotate(-75.000000) translate(-39.614993, -32.952202) " cx="39.6149931" cy="32.9522024" r="3.33139535"></circle>
                    <circle id="椭圆形-copy-31" stroke="#FFFFFF" fill="#3DD1AE" mask="url(#mask-8)" transform="translate(151.771970, 128.452202) rotate(-75.000000) translate(-151.771970, -128.452202) " cx="151.77197" cy="128.452202" r="3.33139535"></circle>
                    <circle id="椭圆形-copy-32" stroke="#FFFFFF" fill="#3DD1AE" mask="url(#mask-8)" transform="translate(127.341737, 151.771970) rotate(-75.000000) translate(-127.341737, -151.771970) " cx="127.341737" cy="151.77197" r="3.33139535"></circle>
                    <circle id="椭圆形-copy-33" stroke="#FFFFFF" fill="#3DD1AE" mask="url(#mask-8)" transform="translate(122.899877, 175.091737) rotate(-75.000000) translate(-122.899877, -175.091737) " cx="122.899877" cy="175.091737" r="3.33139535"></circle>
                    <circle id="椭圆形-copy-34" stroke="#FFFFFF" fill="#FFAB69" mask="url(#mask-8)" transform="translate(20.737086, 117.347551) rotate(-75.000000) translate(-20.737086, -117.347551) " cx="20.7370861" cy="117.347551" r="3.33139535"></circle>
                    <circle id="椭圆形-copy-4" stroke="#FFFFFF" fill="#FFAB69" mask="url(#mask-8)" cx="70.5" cy="144.5" r="3.5"></circle>
                    <circle id="椭圆形-copy-25" stroke="#FFFFFF" fill="#FFAB69" mask="url(#mask-8)" cx="92.5" cy="171.5" r="3.5"></circle>
                    <circle id="椭圆形-copy-28" stroke="#FFFFFF" fill="#3DD1AE" mask="url(#mask-8)" transform="translate(150.595118, 169.916343) rotate(-75.000000) translate(-150.595118, -169.916343) " cx="150.595118" cy="169.916343" r="3.33139535"></circle>
                    <circle id="椭圆形-copy-5" stroke="#FFFFFF" fill="#3DD1AE" mask="url(#mask-8)" cx="131.5" cy="148.5" r="3.5"></circle>
                    <circle id="椭圆形-copy-8" stroke="#FFFFFF" fill="#FFAB69" mask="url(#mask-8)" cx="38.5" cy="122.5" r="3.5"></circle>
                    <circle id="椭圆形-copy-10" stroke="#FFFFFF" fill="#FFBE8A" mask="url(#mask-8)" cx="55.5" cy="126.5" r="3.5"></circle>
                    <circle id="椭圆形-copy-11" stroke="#FFFFFF" fill="#FFBE8A" mask="url(#mask-8)" cx="55.5" cy="106.5" r="3.5"></circle>
                    <circle id="椭圆形-copy-63" stroke="#FFFFFF" fill="#FFDDC3" mask="url(#mask-8)" cx="45.5" cy="76.5" r="3.5"></circle>
                    <circle id="椭圆形-copy-64" stroke="#FFFFFF" fill="#FFDDC3" mask="url(#mask-8)" cx="77.5" cy="84.5" r="3.5"></circle>
                    <circle id="椭圆形-copy-12" stroke="#FFFFFF" fill="#FFBE8A" mask="url(#mask-8)" cx="105.5" cy="126.5" r="3.5"></circle>
                    <circle id="椭圆形-copy-13" stroke="#FFFFFF" fill="#3DD1AE" mask="url(#mask-8)" cx="149.5" cy="124.5" r="3.5"></circle>
                    <circle id="椭圆形-copy-14" stroke="#FFFFFF" fill="#FFBE8A" mask="url(#mask-8)" cx="82.5" cy="124.5" r="3.5"></circle>
                    <circle id="椭圆形-copy-9" stroke="#FFFFFF" fill="#FFAB69" mask="url(#mask-8)" cx="26.5" cy="142.5" r="3.5"></circle>
                    <circle id="椭圆形-copy-6" stroke="#FFFFFF" fill="#3DD1AE" mask="url(#mask-8)" cx="150.5" cy="156.5" r="3.5"></circle>
                    <circle id="椭圆形-copy-7" stroke="#FFFFFF" fill="#3DD1AE" mask="url(#mask-8)" cx="126.5" cy="169.5" r="3.5"></circle>
                </g>
            </g>
            <g id="合并形状">
                <use fill="#FFF0D8" xlink:href="#path-14"></use>
                <use fill="#FF9948" xlink:href="#path-14"></use>
                <use fill="#F9BA01" xlink:href="#path-14"></use>
            </g>
            <g id="合并形状">
                <use fill="#FFF0D8" xlink:href="#path-15"></use>
                <use fill="#FF9948" xlink:href="#path-15"></use>
                <use fill="#F9BA01" xlink:href="#path-15"></use>
            </g>
            <g id="合并形状-copy">
                <use fill="#FFF0D8" xlink:href="#path-16"></use>
                <use fill="#FF9948" xlink:href="#path-16"></use>
                <use fill="#FFEBCA" xlink:href="#path-16"></use>
            </g>
        </g>
    </g>
</svg>