<?xml version="1.0" encoding="UTF-8" standalone="no"?>
<svg width="210px" height="130px" viewBox="0 0 210 130" version="1.1" xmlns="http://www.w3.org/2000/svg" xmlns:xlink="http://www.w3.org/1999/xlink">
    <!-- Generator: Sketch 50.2 (55047) - http://www.bohemiancoding.com/sketch -->
    <title>CssSprite_ide</title>
    <desc>Created with Sketch.</desc>
    <defs></defs>
    <g id="Page-1" stroke="none" stroke-width="1" fill="none" fill-rule="evenodd">
        <g id="CssSprite_ide">
            <rect id="Rectangle-21" stroke="#979797" fill="#D8D8D8" x="0.5" y="0.5" width="1" height="1"></rect>
            <g id="icn_arror_right" transform="translate(96.000000, 8.000000)" stroke="#CDC4B5" stroke-linecap="round" stroke-linejoin="round" stroke-width="1.6">
                <polyline id="Line" points="10.5 7.5 14.5 12 10.5 16.5"></polyline>
            </g>
            <g id="icn_sidebar_add" transform="translate(8.000000, 8.000000)" fill="#968771">
                <path d="M16,16 L16,5.99124431 C16,4.89151044 16.8877296,4 18,4 C19.1045695,4 20,4.89989752 20,5.99124431 L20,16 L30.0087557,16 C31.1084896,16 32,16.8877296 32,18 C32,19.1045695 31.1001025,20 30.0087557,20 L20,20 L20,30.0087557 C20,31.1084896 19.1122704,32 18,32 C16.8954305,32 16,31.1001025 16,30.0087557 L16,20 L5.99124431,20 C4.89151044,20 4,19.1122704 4,18 C4,16.8954305 4.89989752,16 5.99124431,16 L16,16 Z" id="Combined-Shape"></path>
            </g>
            <g id="icn_properties_add_horizontal" transform="translate(56.000000, 8.000000)">
                <rect id="Rectangle-35" fill="#FFD41D" x="1.75" y="6.125" width="24.5" height="17.5"></rect>
                <rect id="Rectangle-35" fill="#FFAF00" x="1.75" y="21" width="24.5" height="2.625"></rect>
                <polygon id="Rectangle-35" fill="#F98410" points="1.75 3.5 13.125 3.5 15.75 6.125 1.75 6.125"></polygon>
                <path d="M26.2502441,6.125 L15.3875631,6.125 L12.7625631,3.5 L1.75598979,3.5 C1.75312489,3.5 1.75,3.50313956 1.75,3.50961898 L1.75,23.615381 C1.75,23.6220207 1.75293615,23.625 1.74838448,23.625 L26.2516155,23.625 C26.2496696,23.625 26.25,23.6246683 26.25,23.622846 L26.25,6.12715396 C26.25,6.12621289 26.2500944,6.12551224 26.2502442,6.125 Z" id="Rectangle-123" stroke="#000000" stroke-width="1.75"></path>
                <rect id="Rectangle-128" stroke="#000000" stroke-width="0.875" x="2.1875" y="5.6875" width="14.875" height="1"></rect>
                <path d="M17.5040271,14.4375 L14.4375,14.4375 L14.4375,11.3709729 C14.4375,11.1370801 14.2383802,10.9375 14,10.9375 C13.7559791,10.9375 13.5625,11.1306023 13.5625,11.3709729 L13.5625,14.4375 L10.4959729,14.4375 C10.2620801,14.4375 10.0625,14.6366198 10.0625,14.875 C10.0625,15.1190209 10.2556023,15.3125 10.4959729,15.3125 L13.5625,15.3125 L13.5625,18.3790271 C13.5625,18.6129199 13.7616198,18.8125 14,18.8125 C14.2440209,18.8125 14.4375,18.6193977 14.4375,18.3790271 L14.4375,15.3125 L17.5040271,15.3125 C17.7379199,15.3125 17.9375,15.1133802 17.9375,14.875 C17.9375,14.6309791 17.7443977,14.4375 17.5040271,14.4375 Z" id="Combined-Shape" stroke="#000000" stroke-width="0.875"></path>
            </g>
            <g id="icn_close" transform="translate(168.000000, 8.000000)" fill="#F9E2BA">
                <g id="Combined-Shape">
                    <path d="M13.4142136,12 L19.0710678,6.34314575 C19.4615921,5.95262146 19.4615921,5.31945648 19.0710678,4.92893219 C18.6805435,4.5384079 18.0473785,4.5384079 17.6568542,4.92893219 L12,10.5857864 L6.34314575,4.92893219 C5.95262146,4.5384079 5.31945648,4.5384079 4.92893219,4.92893219 C4.5384079,5.31945648 4.5384079,5.95262146 4.92893219,6.34314575 L10.5857864,12 L4.92893219,17.6568542 C4.5384079,18.0473785 4.5384079,18.6805435 4.92893219,19.0710678 C5.31945648,19.4615921 5.95262146,19.4615921 6.34314575,19.0710678 L12,13.4142136 L17.6568542,19.0710678 C18.0473785,19.4615921 18.6805435,19.4615921 19.0710678,19.0710678 C19.4615921,18.6805435 19.4615921,18.0473785 19.0710678,17.6568542 L13.4142136,12 Z"></path>
                </g>
            </g>
            <g id="icn_edit_hov" transform="translate(8.000000, 92.000000)">
                <rect id="1" fill="#D8D8D8" opacity="0" x="0" y="0" width="24" height="24"></rect>
                <path d="M6.39881878,15.5680343 L14.1762512,7.80655558 L16.1718993,9.79560837 L8.38514144,17.5431776 L6.39881878,17.5431776 L6.39881878,15.5680343 Z M16.3071184,5.67840818 L18.312092,7.67209746 L17.1650606,8.81267319 L15.1647498,6.8236204 L16.3071184,5.67840818 Z M5.69940939,18.9341236 L8.67423065,18.9341236 C8.86073982,18.9341236 9.03792353,18.8599399 9.16847995,18.7301182 L19.7948399,8.16356505 C19.9253963,8.03374342 20,7.85292044 20,7.67209746 C20,7.48663799 19.9253963,7.3104515 19.7948399,7.18062987 L16.8013677,4.20400541 C16.6708113,4.07418379 16.4936276,4 16.3071184,4 C16.1206093,4 15.9434256,4.07418379 15.8128691,4.20400541 L5.20516009,14.7891045 C5.07460367,14.9235627 5,15.0997491 5,15.2805721 L5,18.2386506 C5,18.623479 5.31240286,18.9341236 5.69940939,18.9341236 Z" id="1" fill="#FFC400"></path>
            </g>
            <g id="icn_share_hov" transform="translate(44.000000, 92.000000)">
                <rect id="2" fill="#D8D8D8" opacity="0" x="0" y="0" width="24" height="24"></rect>
                <path d="M18.2809545,12.2329545 C18.6761364,12.2329545 18.9968636,12.5536818 18.9968636,12.9488636 C18.9968636,13.1875 18.9968636,15.8850455 18.9949545,17.1655682 C18.9925682,18.6532273 17.8175227,19.1930227 17.0271591,19.1930227 C17.0266818,19.1930227 17.0257273,19.1930227 17.0257273,19.1930227 L6.22790909,19.1930227 C5.46522727,19.1930227 5.02947727,18.8746818 4.79752273,18.6074091 C4.34125,18.0814545 4.35843182,17.4051591 4.37847727,17.1865682 L4.37847727,6.42597727 C4.37847727,5.6485 4.68727273,5.19222727 4.94643182,4.94595455 C5.48718182,4.43288636 6.18686364,4.45436364 6.26561364,4.45818182 L10.4040455,4.45722727 C10.7997045,4.45722727 11.1199545,4.77795455 11.1199545,5.17313636 C11.1199545,5.56831818 10.7997045,5.88904545 10.4040455,5.88904545 L6.22790909,5.88904545 C6.20022727,5.89 6.0265,5.89047727 5.92770455,5.98927273 C5.83034091,6.08568182 5.81029545,6.27993182 5.81029545,6.42597727 L5.81029545,17.2242727 C5.81029545,17.2581591 5.80790909,17.2920455 5.80313636,17.3254545 C5.79502273,17.3989545 5.80838636,17.5903409 5.88093182,17.6714773 C5.932,17.72875 6.05847727,17.7612045 6.22790909,17.7612045 L17.0262045,17.7612045 C17.5621818,17.7435455 17.5626591,17.3068409 17.5631364,17.1636591 C17.5650455,15.8831364 17.5650455,13.1875 17.5650455,12.9488636 C17.5650455,12.5536818 17.8852955,12.2329545 18.2809545,12.2329545 Z M18.9457955,4.91159091 C18.9777727,4.99272727 18.9968636,5.08054545 18.9968636,5.17265909 L18.9968636,10.0050455 C18.9968636,10.4002273 18.6761364,10.7209545 18.2809545,10.7209545 C17.8852955,10.7209545 17.5650455,10.4002273 17.5650455,10.0050455 L17.5650455,6.90086364 L12.5226591,11.94325 C12.3828182,12.0830909 12.2000227,12.1527727 12.01675,12.1527727 C11.8334773,12.1527727 11.6502045,12.0830909 11.5103636,11.94325 C11.2306818,11.6635682 11.2306818,11.2101591 11.5103636,10.9304773 L16.55275,5.88856818 L13.6275455,5.88856818 C13.2318864,5.88856818 12.9116364,5.56784091 12.9116364,5.17265909 C12.9116364,4.77747727 13.2318864,4.45675 13.6275455,4.45675 L18.2809545,4.45675 C18.3735455,4.45675 18.4608864,4.47584091 18.5420227,4.50734091 C18.5458409,4.50877273 18.5491818,4.50925 18.553,4.51068182 C18.7291136,4.58370455 18.8699091,4.7245 18.9424545,4.90061364 C18.9443636,4.90443182 18.9448409,4.90777273 18.9457955,4.91159091 Z" id="ic_share_hov" fill="#FFC400"></path>
            </g>
            <g id="icn_delete_hov" transform="translate(80.000000, 92.000000)">
                <rect id="3" fill="#D8D8D8" opacity="0" x="0" y="0" width="24" height="24"></rect>
                <path d="M9.49586777,7.91358025 C9.83884298,7.91358025 10.1157025,8.18930041 10.1157025,8.5308642 L10.1157025,15.9382716 C10.1157025,16.2798354 9.83884298,16.5555556 9.49586777,16.5555556 C9.15289256,16.5555556 8.87603306,16.2798354 8.87603306,15.9382716 L8.87603306,8.5308642 C8.87603306,8.18930041 9.15289256,7.91358025 9.49586777,7.91358025 Z M11.9504132,7.91358025 C12.2892562,7.91358025 12.5702479,8.18930041 12.5702479,8.5308642 L12.5702479,15.9382716 C12.5702479,16.2798354 12.2892562,16.5555556 11.9504132,16.5555556 C11.607438,16.5555556 11.3305785,16.2798354 11.3305785,15.9382716 L11.3305785,8.5308642 C11.3305785,8.18930041 11.607438,7.91358025 11.9504132,7.91358025 Z M13.7809917,8.5308642 C13.7809917,8.18930041 14.0619835,7.91358025 14.4008264,7.91358025 C14.7438017,7.91358025 15.0206612,8.18930041 15.0206612,8.5308642 L15.0206612,15.9382716 C15.0206612,16.2798354 14.7438017,16.5555556 14.4008264,16.5555556 C14.0619835,16.5555556 13.7809917,16.2798354 13.7809917,15.9382716 L13.7809917,8.5308642 Z M16.3636364,17.5596708 C16.3636364,17.6707819 16.2727273,17.7654321 16.1570248,17.7654321 L7.7892562,17.7654321 C7.67768595,17.7654321 7.58264463,17.6707819 7.58264463,17.5596708 L7.58264463,6.49794239 L16.3636364,6.49794239 L16.3636364,17.5596708 Z M10.1157025,4.44032922 C10.1157025,4.32921811 10.2107438,4.2345679 10.322314,4.2345679 L13.5743802,4.2345679 C13.6900826,4.2345679 13.7809917,4.32921811 13.7809917,4.44032922 L13.7809917,5.26337449 L10.1157025,5.26337449 L10.1157025,4.44032922 Z M18.3801653,5.26337449 L15.0206612,5.26337449 L15.0206612,4.44032922 C15.0206612,3.64609053 14.3719008,3 13.5743802,3 L10.322314,3 C9.52479339,3 8.87603306,3.64609053 8.87603306,4.44032922 L8.87603306,5.26337449 L5.61983471,5.26337449 C5.28099174,5.26337449 5,5.53909465 5,5.88065844 C5,6.22222222 5.28099174,6.49794239 5.61983471,6.49794239 L6.34297521,6.49794239 L6.34297521,17.5596708 C6.34297521,18.3539095 6.99173554,19 7.7892562,19 L16.1570248,19 C16.9545455,19 17.6033058,18.3539095 17.6033058,17.5596708 L17.6033058,6.49794239 L18.3801653,6.49794239 C18.7231405,6.49794239 19,6.22222222 19,5.88065844 C19,5.53909465 18.7231405,5.26337449 18.3801653,5.26337449 Z" id="3" fill="#FFC400"></path>
            </g>
            <g id="icn_nav_share" transform="translate(132.000000, 8.000000)" fill="#FAFAFA">
                <path d="M18.2809545,12.2329545 C18.6761364,12.2329545 18.9968636,12.5536818 18.9968636,12.9488636 C18.9968636,13.1875 18.9968636,15.8850455 18.9949545,17.1655682 C18.9925682,18.6532273 17.8175227,19.1930227 17.0271591,19.1930227 C17.0266818,19.1930227 17.0257273,19.1930227 17.0257273,19.1930227 L6.22790909,19.1930227 C5.46522727,19.1930227 5.02947727,18.8746818 4.79752273,18.6074091 C4.34125,18.0814545 4.35843182,17.4051591 4.37847727,17.1865682 L4.37847727,6.42597727 C4.37847727,5.6485 4.68727273,5.19222727 4.94643182,4.94595455 C5.48718182,4.43288636 6.18686364,4.45436364 6.26561364,4.45818182 L10.4040455,4.45722727 C10.7997045,4.45722727 11.1199545,4.77795455 11.1199545,5.17313636 C11.1199545,5.56831818 10.7997045,5.88904545 10.4040455,5.88904545 L6.22790909,5.88904545 C6.20022727,5.89 6.0265,5.89047727 5.92770455,5.98927273 C5.83034091,6.08568182 5.81029545,6.27993182 5.81029545,6.42597727 L5.81029545,17.2242727 C5.81029545,17.2581591 5.80790909,17.2920455 5.80313636,17.3254545 C5.79502273,17.3989545 5.80838636,17.5903409 5.88093182,17.6714773 C5.932,17.72875 6.05847727,17.7612045 6.22790909,17.7612045 L17.0262045,17.7612045 C17.5621818,17.7435455 17.5626591,17.3068409 17.5631364,17.1636591 C17.5650455,15.8831364 17.5650455,13.1875 17.5650455,12.9488636 C17.5650455,12.5536818 17.8852955,12.2329545 18.2809545,12.2329545 Z M18.9457955,4.91159091 C18.9777727,4.99272727 18.9968636,5.08054545 18.9968636,5.17265909 L18.9968636,10.0050455 C18.9968636,10.4002273 18.6761364,10.7209545 18.2809545,10.7209545 C17.8852955,10.7209545 17.5650455,10.4002273 17.5650455,10.0050455 L17.5650455,6.90086364 L12.5226591,11.94325 C12.3828182,12.0830909 12.2000227,12.1527727 12.01675,12.1527727 C11.8334773,12.1527727 11.6502045,12.0830909 11.5103636,11.94325 C11.2306818,11.6635682 11.2306818,11.2101591 11.5103636,10.9304773 L16.55275,5.88856818 L13.6275455,5.88856818 C13.2318864,5.88856818 12.9116364,5.56784091 12.9116364,5.17265909 C12.9116364,4.77747727 13.2318864,4.45675 13.6275455,4.45675 L18.2809545,4.45675 C18.3735455,4.45675 18.4608864,4.47584091 18.5420227,4.50734091 C18.5458409,4.50877273 18.5491818,4.50925 18.553,4.51068182 C18.7291136,4.58370455 18.8699091,4.7245 18.9424545,4.90061364 C18.9443636,4.90443182 18.9448409,4.90777273 18.9457955,4.91159091 Z"></path>
            </g>
            <g id="icn_link" transform="translate(116.000000, 56.000000)" fill="#5FA7AF">
                <path d="M7.05106496,4.32979737 C7.23592607,4.15685293 7.52589829,4.16601959 7.69884274,4.3508807 C7.87209274,4.53543626 7.86262051,4.82571404 7.6777594,4.99865848 L4.84006496,7.65790848 C4.7517594,7.74071404 4.6390094,7.78165848 4.52687051,7.78165848 C4.40464829,7.78165848 4.28242607,7.73307515 4.19228718,7.63682515 C4.01903718,7.45196404 4.0285094,7.16199181 4.21337051,6.98904737 L7.05106496,4.32979737 Z M10.5936761,1.52693626 C11.123815,2.05035293 11.4226483,2.79865848 11.4131761,3.57996404 C11.4037038,4.37593626 11.0816483,5.13065848 10.5292038,5.65040848 L8.79731496,7.27932515 C8.70839829,7.36243626 8.59564829,7.40368626 8.48320385,7.40368626 C8.36128718,7.40368626 8.23937051,7.35540848 8.14923163,7.25915848 C7.97598163,7.07490848 7.98484274,6.78493626 8.16909274,6.6113807 L9.90128718,4.98246404 C10.2731483,4.63290848 10.4900927,4.11743626 10.496815,3.56926959 C10.5032316,3.02751959 10.3088983,2.53374181 9.94956496,2.17899181 C9.16673163,1.40654737 7.84978718,1.4276307 7.01348163,2.22635293 L5.4475094,3.7816307 C5.26753718,3.95976959 4.97787051,3.95915848 4.79912051,3.77918626 C4.62098163,3.59951959 4.62189829,3.30954737 4.8012594,3.13110293 L6.37395385,1.56940848 C7.57173163,0.425714037 9.46189829,0.409214037 10.5936761,1.52693626 Z M6.49617607,8.21065848 C6.67584274,8.03251959 6.96581496,8.0331307 7.1442594,8.21279737 C7.32270385,8.39246404 7.32148163,8.68274181 7.14212051,8.86118626 L5.56942607,10.4225751 C4.96259274,11.0016029 4.17792607,11.2918807 3.40487051,11.2918807 C2.65106496,11.2918807 1.9082594,11.0165751 1.34970385,10.4653529 C0.819564959,9.94224181 0.521037181,9.1936307 0.530203848,8.41201959 C0.53967607,7.61604737 0.861731626,6.8616307 1.41387051,6.3418807 L3.14606496,4.71265848 C3.33092607,4.53940848 3.62059274,4.54796404 3.79414829,4.73282515 C3.96739829,4.91707515 3.95853718,5.20735293 3.77428718,5.38060293 L2.04209274,7.00951959 C1.67023163,7.35968626 1.45328718,7.87454737 1.44687051,8.42301959 C1.44014829,8.96476959 1.63448163,9.45854737 1.9935094,9.81299181 C2.77573163,10.5854363 4.09328718,10.5637418 4.92989829,9.76593626 L6.49617607,8.21065848 Z" id="Combined-Shape"></path>
            </g>
            <g id="icn_edit" transform="translate(8.000000, 56.000000)">
                <rect id="1" fill="#D8D8D8" opacity="0" x="0" y="0" width="24" height="24"></rect>
                <path d="M6.39881878,15.5680343 L14.1762512,7.80655558 L16.1718993,9.79560837 L8.38514144,17.5431776 L6.39881878,17.5431776 L6.39881878,15.5680343 Z M16.3071184,5.67840818 L18.312092,7.67209746 L17.1650606,8.81267319 L15.1647498,6.8236204 L16.3071184,5.67840818 Z M5.69940939,18.9341236 L8.67423065,18.9341236 C8.86073982,18.9341236 9.03792353,18.8599399 9.16847995,18.7301182 L19.7948399,8.16356505 C19.9253963,8.03374342 20,7.85292044 20,7.67209746 C20,7.48663799 19.9253963,7.3104515 19.7948399,7.18062987 L16.8013677,4.20400541 C16.6708113,4.07418379 16.4936276,4 16.3071184,4 C16.1206093,4 15.9434256,4.07418379 15.8128691,4.20400541 L5.20516009,14.7891045 C5.07460367,14.9235627 5,15.0997491 5,15.2805721 L5,18.2386506 C5,18.623479 5.31240286,18.9341236 5.69940939,18.9341236 Z" id="1" fill="#776955"></path>
            </g>
            <g id="icn_share" transform="translate(44.000000, 56.000000)">
                <rect id="2" fill="#D8D8D8" opacity="0" x="0" y="0" width="24" height="24"></rect>
                <path d="M18.2809545,12.2329545 C18.6761364,12.2329545 18.9968636,12.5536818 18.9968636,12.9488636 C18.9968636,13.1875 18.9968636,15.8850455 18.9949545,17.1655682 C18.9925682,18.6532273 17.8175227,19.1930227 17.0271591,19.1930227 C17.0266818,19.1930227 17.0257273,19.1930227 17.0257273,19.1930227 L6.22790909,19.1930227 C5.46522727,19.1930227 5.02947727,18.8746818 4.79752273,18.6074091 C4.34125,18.0814545 4.35843182,17.4051591 4.37847727,17.1865682 L4.37847727,6.42597727 C4.37847727,5.6485 4.68727273,5.19222727 4.94643182,4.94595455 C5.48718182,4.43288636 6.18686364,4.45436364 6.26561364,4.45818182 L10.4040455,4.45722727 C10.7997045,4.45722727 11.1199545,4.77795455 11.1199545,5.17313636 C11.1199545,5.56831818 10.7997045,5.88904545 10.4040455,5.88904545 L6.22790909,5.88904545 C6.20022727,5.89 6.0265,5.89047727 5.92770455,5.98927273 C5.83034091,6.08568182 5.81029545,6.27993182 5.81029545,6.42597727 L5.81029545,17.2242727 C5.81029545,17.2581591 5.80790909,17.2920455 5.80313636,17.3254545 C5.79502273,17.3989545 5.80838636,17.5903409 5.88093182,17.6714773 C5.932,17.72875 6.05847727,17.7612045 6.22790909,17.7612045 L17.0262045,17.7612045 C17.5621818,17.7435455 17.5626591,17.3068409 17.5631364,17.1636591 C17.5650455,15.8831364 17.5650455,13.1875 17.5650455,12.9488636 C17.5650455,12.5536818 17.8852955,12.2329545 18.2809545,12.2329545 Z M18.9457955,4.91159091 C18.9777727,4.99272727 18.9968636,5.08054545 18.9968636,5.17265909 L18.9968636,10.0050455 C18.9968636,10.4002273 18.6761364,10.7209545 18.2809545,10.7209545 C17.8852955,10.7209545 17.5650455,10.4002273 17.5650455,10.0050455 L17.5650455,6.90086364 L12.5226591,11.94325 C12.3828182,12.0830909 12.2000227,12.1527727 12.01675,12.1527727 C11.8334773,12.1527727 11.6502045,12.0830909 11.5103636,11.94325 C11.2306818,11.6635682 11.2306818,11.2101591 11.5103636,10.9304773 L16.55275,5.88856818 L13.6275455,5.88856818 C13.2318864,5.88856818 12.9116364,5.56784091 12.9116364,5.17265909 C12.9116364,4.77747727 13.2318864,4.45675 13.6275455,4.45675 L18.2809545,4.45675 C18.3735455,4.45675 18.4608864,4.47584091 18.5420227,4.50734091 C18.5458409,4.50877273 18.5491818,4.50925 18.553,4.51068182 C18.7291136,4.58370455 18.8699091,4.7245 18.9424545,4.90061364 C18.9443636,4.90443182 18.9448409,4.90777273 18.9457955,4.91159091 Z" id="ic_share" fill="#776955"></path>
            </g>
            <g id="icn_delete" transform="translate(80.000000, 56.000000)">
                <rect id="3" fill="#D8D8D8" opacity="0" x="0" y="0" width="24" height="24"></rect>
                <path d="M9.49586777,7.91358025 C9.83884298,7.91358025 10.1157025,8.18930041 10.1157025,8.5308642 L10.1157025,15.9382716 C10.1157025,16.2798354 9.83884298,16.5555556 9.49586777,16.5555556 C9.15289256,16.5555556 8.87603306,16.2798354 8.87603306,15.9382716 L8.87603306,8.5308642 C8.87603306,8.18930041 9.15289256,7.91358025 9.49586777,7.91358025 Z M11.9504132,7.91358025 C12.2892562,7.91358025 12.5702479,8.18930041 12.5702479,8.5308642 L12.5702479,15.9382716 C12.5702479,16.2798354 12.2892562,16.5555556 11.9504132,16.5555556 C11.607438,16.5555556 11.3305785,16.2798354 11.3305785,15.9382716 L11.3305785,8.5308642 C11.3305785,8.18930041 11.607438,7.91358025 11.9504132,7.91358025 Z M13.7809917,8.5308642 C13.7809917,8.18930041 14.0619835,7.91358025 14.4008264,7.91358025 C14.7438017,7.91358025 15.0206612,8.18930041 15.0206612,8.5308642 L15.0206612,15.9382716 C15.0206612,16.2798354 14.7438017,16.5555556 14.4008264,16.5555556 C14.0619835,16.5555556 13.7809917,16.2798354 13.7809917,15.9382716 L13.7809917,8.5308642 Z M16.3636364,17.5596708 C16.3636364,17.6707819 16.2727273,17.7654321 16.1570248,17.7654321 L7.7892562,17.7654321 C7.67768595,17.7654321 7.58264463,17.6707819 7.58264463,17.5596708 L7.58264463,6.49794239 L16.3636364,6.49794239 L16.3636364,17.5596708 Z M10.1157025,4.44032922 C10.1157025,4.32921811 10.2107438,4.2345679 10.322314,4.2345679 L13.5743802,4.2345679 C13.6900826,4.2345679 13.7809917,4.32921811 13.7809917,4.44032922 L13.7809917,5.26337449 L10.1157025,5.26337449 L10.1157025,4.44032922 Z M18.3801653,5.26337449 L15.0206612,5.26337449 L15.0206612,4.44032922 C15.0206612,3.64609053 14.3719008,3 13.5743802,3 L10.322314,3 C9.52479339,3 8.87603306,3.64609053 8.87603306,4.44032922 L8.87603306,5.26337449 L5.61983471,5.26337449 C5.28099174,5.26337449 5,5.53909465 5,5.88065844 C5,6.22222222 5.28099174,6.49794239 5.61983471,6.49794239 L6.34297521,6.49794239 L6.34297521,17.5596708 C6.34297521,18.3539095 6.99173554,19 7.7892562,19 L16.1570248,19 C16.9545455,19 17.6033058,18.3539095 17.6033058,17.5596708 L17.6033058,6.49794239 L18.3801653,6.49794239 C18.7231405,6.49794239 19,6.22222222 19,5.88065844 C19,5.53909465 18.7231405,5.26337449 18.3801653,5.26337449 Z" id="3" fill="#776955"></path>
            </g>
            <g id="icn_warning_circle" transform="translate(140.000000, 53.000000)" fill="#FF9948">
                <path d="M11.5,23 C5.149,23 0,17.851 0,11.5 C0,5.149 5.149,0 11.5,0 C17.851,0 23,5.149 23,11.5 C23,17.851 17.851,23 11.5,23 L11.5,23 Z M13,6.5 C13,5.672 12.328,5 11.5,5 C10.672,5 10,5.672 10,6.5 L10,12.5 C10,13.328 10.672,14 11.5,14 C12.328,14 13,13.328 13,12.5 L13,6.5 L13,6.5 Z M11.5,15 C10.672,15 10,15.672 10,16.5 C10,17.328 10.672,18 11.5,18 C12.328,18 13,17.328 13,16.5 C13,15.672 12.328,15 11.5,15 L11.5,15 Z" id="Warning-Circle-Icon"></path>
            </g>
        </g>
    </g>
</svg>