<?xml version="1.0" encoding="UTF-8"?>
<svg width="140px" height="30px" viewBox="0 0 140 30" version="1.1" xmlns="http://www.w3.org/2000/svg" xmlns:xlink="http://www.w3.org/1999/xlink">
    <!-- Generator: Sketch 55.2 (78181) - https://sketchapp.com -->
    <title>空间站/白色</title>
    <desc>Created with Sketch.</desc>
    <defs>
        <polygon id="path-1" points="0 28.5606061 139.71125 28.5606061 139.71125 0.371287879 0 0.371287879"></polygon>
    </defs>
    <g id="空间站/白色" stroke="none" stroke-width="1" fill="none" fill-rule="evenodd">
        <g id="编组">
            <polygon id="Fill-1" fill="#FFFFFF" points="117.235519 0.488254545 116.360081 2.9998303 120.079269 2.9998303 120.954269 0.488254545"></polygon>
            <polygon id="Fill-2" fill="#FFFFFF" points="128.055375 15.450497 131.774125 15.450497 131.774125 0.488254545 128.055375 0.488254545"></polygon>
            <polygon id="Fill-3" fill="#FFFFFF" points="129.988687 4.75244091 129.988687 8.48728939 137.963875 8.48728939 139.71125 4.75244091"></polygon>
            <polygon id="Fill-4" fill="#FFFFFF" points="124.891156 6.17405606 110.945406 6.17405606 111.820406 2.43920758 125.766156 2.43920758"></polygon>
            <g transform="translate(0.000000, 0.068194)">
                <path d="M122.90915,24.1630636 L111.209525,24.1630636 C110.654775,25.7097303 109.795525,26.9431091 108.70965,27.8979121 L125.062088,27.8979121 C123.9539,26.9633212 123.174275,25.6534879 122.90915,24.1630636" id="Fill-5" fill="#FFFFFF"></path>
                <path d="M131.7162,24.7938136 C129.759263,24.7938136 128.173325,23.2005712 128.173325,21.2351621 C128.173325,19.2701924 129.759263,17.6773894 131.7162,17.6773894 C133.6727,17.6773894 135.259075,19.2701924 135.259075,21.2351621 C135.259075,23.2005712 133.6727,24.7938136 131.7162,24.7938136 M131.7162,13.9100258 C127.6877,13.9100258 124.422638,17.1896621 124.422638,21.2351621 C124.422638,25.2806621 127.6877,28.5602985 131.7162,28.5602985 C135.744262,28.5602985 139.009762,25.2806621 139.009762,21.2351621 C139.009762,17.1896621 135.744262,13.9100258 131.7162,13.9100258" id="Fill-7" fill="#FFFFFF"></path>
                <polygon id="Fill-9" fill="#FFFFFF" points="7.1502375 0.618139394 1.1661125 0.618139394 0.1458625 4.42812424 7.1502375 4.42812424"></polygon>
                <polygon id="Fill-11" fill="#FFFFFF" points="7.1502375 7.72485303 1.020425 7.72485303 0.000175 11.5348379 7.1502375 11.5348379"></polygon>
                <path d="M3.43214375,9.32451061 L3.43214375,23.2796621 C3.43214375,23.851753 2.96883125,24.3166318 2.39920625,24.3166318 L1.37064375,24.3166318 L0.08920625,28.0514803 L2.39920625,28.0514803 C5.01939375,28.0514803 7.15089375,25.910753 7.15089375,23.2796621 L7.15089375,9.32451061 L3.43214375,9.32451061 Z" id="Fill-13" fill="#FFFFFF"></path>
                <path d="M17.31275,28.0527985 L16.1520625,28.0527985 L16.1520625,24.31795 L17.31275,24.31795 C18.2175,24.31795 18.953375,23.57845 18.953375,22.6702227 L18.953375,17.5143742 L22.672125,17.5143742 L22.672125,22.6702227 C22.672125,25.6383288 20.2680625,28.0527985 17.31275,28.0527985" id="Fill-15" fill="#FFFFFF"></path>
                <path d="M61.8887938,13.5579394 L56.8794188,13.5579394 L56.8794188,9.82309091 L61.8887938,9.82309091 C62.6181063,9.82309091 63.2109188,9.22771212 63.2109188,8.49524242 L63.2109188,6.84619697 L66.9296688,6.84619697 L66.9296688,8.49524242 C66.9296688,11.2867121 64.6682313,13.5579394 61.8887938,13.5579394" id="Fill-17" fill="#FFFFFF"></path>
                <path d="M80.2843125,13.5579394 L75.2749375,13.5579394 C72.4955,13.5579394 70.2340625,11.2867121 70.2340625,8.49524242 L70.2340625,6.84619697 L73.9528125,6.84619697 L73.9528125,8.49524242 C73.9528125,9.22771212 74.5460625,9.82309091 75.2749375,9.82309091 L80.2843125,9.82309091 L80.2843125,13.5579394 Z" id="Fill-19" fill="#FFFFFF"></path>
                <path d="M84.6294312,7.16014394 L84.6294312,21.9035682 C84.6294312,23.03325 83.8309938,23.9788258 82.7709313,24.2033561 L81.4719937,27.990053 L82.2874937,27.990053 C85.6295563,27.990053 88.3481812,25.2596591 88.3481812,21.9035682 L88.3481812,7.16014394 L84.6294312,7.16014394 Z" id="Fill-21" fill="#FFFFFF"></path>
                <path d="M71.4221812,24.2106939 C71.1487437,25.7674667 70.2431187,27.1058606 68.9769937,27.9455424 L80.0037437,27.9455424 L81.2851812,24.2106939 L71.4221812,24.2106939 Z" id="Fill-23" fill="#FFFFFF"></path>
                <path d="M65.886975,24.5368121 C66.214225,24.5368121 66.509975,24.4111455 66.7387875,24.2107818 L65.23335,24.2107818 L65.23335,24.5368121 L65.886975,24.5368121 Z" id="Fill-25" fill="#FFFFFF"></path>
                <mask id="mask-2" fill="white">
                    <use xlink:href="#path-1"></use>
                </mask>
                <g id="Clip-28"></g>
                <path d="M94.0008125,18.0990758 L99.6979375,18.0990758 L99.6979375,10.7871212 L94.0008125,10.7871212 L94.0008125,18.0990758 Z M99.932875,21.8339242 L90.2820625,21.8339242 L90.2820625,7.05227273 L103.416688,7.05227273 L103.416688,18.3350303 C103.416688,20.2644091 101.853938,21.8339242 99.932875,21.8339242 L99.932875,21.8339242 Z" id="Fill-27" fill="#FFFFFF" mask="url(#mask-2)"></path>
                <polygon id="Fill-29" fill="#FFFFFF" mask="url(#mask-2)" points="92.362375 16.0220606 99.8029375 16.0220606 99.8029375 12.5069091 92.362375 12.5069091"></polygon>
                <path d="M66.8824625,16.1016348 L66.8824625,23.0906348 C66.8824625,24.1530894 66.756025,24.2159227 65.762025,24.2159227 L56.3999625,24.2159227 C56.0224,25.6602106 55.2572125,26.9454379 54.2164,27.9507712 L65.762025,27.9507712 C68.83765,27.9507712 70.6012125,26.1795742 70.6012125,23.0906348 L70.6012125,16.1016348 L66.8824625,16.1016348 Z" id="Fill-30" fill="#FFFFFF" mask="url(#mask-2)"></path>
                <polygon id="Fill-31" fill="#FFFFFF" mask="url(#mask-2)" points="76.5064125 7.07002424 76.5072875 7.07046364 80.5196 7.07046364 82.739475 1.57716061 57.5880375 1.57716061 55.386975 7.07046364 59.3957875 7.07046364 60.1001625 5.31200909 77.2169125 5.31200909"></polygon>
                <polygon id="Fill-32" fill="#FFFFFF" mask="url(#mask-2)" points="67.3370688 0.371419697 66.0193188 2.97087424 69.3329438 4.66561667 71.5103813 0.371419697"></polygon>
                <path d="M49.4732438,19.9956758 L49.4732438,18.3167515 L41.0456813,18.3167515 L41.0456813,22.0516 L47.5469313,22.0516 C48.6196813,21.9808576 49.4732438,21.0906455 49.4732438,19.9956758" id="Fill-33" fill="#FFFFFF" mask="url(#mask-2)"></path>
                <path d="M35.3096187,9.92696364 L35.3056812,10.3654788 C35.2934312,11.6050091 34.8624937,12.7461152 34.1550563,13.6618121 L35.8788062,13.6618121 L35.8788062,22.8662364 C35.8788062,23.6435242 35.2496813,24.2753727 34.4757437,24.2753727 L33.8208062,24.2753727 L33.8208062,14.0555091 C32.8775562,15.0656758 31.5633062,15.7181758 30.1020562,15.7884788 L30.1020562,28.0102212 L34.4757437,28.0102212 C37.2998063,28.0102212 39.5975562,25.7025242 39.5975562,22.8662364 L39.5975562,9.92696364 L35.3096187,9.92696364 Z" id="Fill-34" fill="#FFFFFF" mask="url(#mask-2)"></path>
                <path d="M29.9274063,14.9975697 L28.5510313,14.9975697 L28.5510313,11.2627212 L29.9274063,11.2627212 C30.4550313,11.2627212 30.8881563,10.8321152 30.8929687,10.3022061 L30.9520313,4.17529697 L34.6707813,4.21132727 L34.6117188,10.3382364 C34.5867813,12.9073727 32.4854687,14.9975697 29.9274063,14.9975697" id="Fill-35" fill="#FFFFFF" mask="url(#mask-2)"></path>
                <polygon id="Fill-36" fill="#FFFFFF" mask="url(#mask-2)" points="39.1661375 0.773904545 39.1661375 0.643404545 29.7682 0.643404545 28.528325 4.2574197 28.528325 4.37825303 37.9297625 4.37825303"></polygon>
                <path d="M47.8270625,28.0961667 L43.71675,28.0961667 L43.71675,24.3613182 L47.8270625,24.3613182 C49.6265,24.3613182 51.090375,22.8911061 51.090375,21.0838788 L51.090375,15.8388333 L40.7911875,15.8388333 L40.7911875,5.64533333 L44.5099375,5.64533333 L44.5099375,12.1039848 L54.809125,12.1039848 L54.809125,21.0838788 C54.809125,24.9505455 51.6770625,28.0961667 47.8270625,28.0961667" id="Fill-37" fill="#FFFFFF" mask="url(#mask-2)"></path>
                <polygon id="Fill-38" fill="#FFFFFF" mask="url(#mask-2)" points="54.3041188 12.5186848 50.5853688 12.5186848 50.5853688 4.34903333 40.8107438 4.34903333 40.8107438 0.614184848 54.3041188 0.614184848"></polygon>
                <polygon id="Fill-39" fill="#FFFFFF" mask="url(#mask-2)" points="8.55246875 4.39077576 8.55028125 0.655927273 26.9217812 0.64450303 26.9239687 4.37935152"></polygon>
                <polygon id="Fill-40" fill="#FFFFFF" mask="url(#mask-2)" points="21.1831375 9.47513485 21.1568875 5.95998333 26.8863875 5.91692273 26.9126375 9.43207424"></polygon>
                <path d="M21.644175,18.5659318 L13.5876125,18.5659318 L13.5876125,13.5076288 L17.0876125,13.5076288 L17.0876125,15.0507803 L21.644175,15.0507803 C22.6093,15.0507803 23.394175,14.2625076 23.394175,13.2932045 L23.394175,7.19881061 L26.894175,7.19881061 L26.894175,13.2932045 C26.894175,16.2006742 24.5391125,18.5659318 21.644175,18.5659318" id="Fill-41" fill="#FFFFFF" mask="url(#mask-2)"></path>
                <polygon id="Fill-42" fill="#FFFFFF" mask="url(#mask-2)" points="17.4417687 28.0622455 13.4312062 28.0622455 13.4557062 21.2226394 17.4658313 21.2226394"></polygon>
                <polygon id="Fill-43" fill="#FFFFFF" mask="url(#mask-2)" points="23.2431063 27.9854394 27.2536688 27.9854394 27.2672313 21.1106818 23.2566688 21.1106818"></polygon>
                <polygon id="Fill-44" fill="#FFFFFF" mask="url(#mask-2)" points="12.1541438 28.0274894 8.43539375 28.0085955 8.55614375 3.89685303 12.2748938 3.91574697"></polygon>
                <polygon id="Fill-45" fill="#FFFFFF" mask="url(#mask-2)" points="79.2491 18.7744682 56.610225 18.7744682 57.9091625 15.0396197 80.5480375 15.0396197"></polygon>
                <polygon id="Fill-46" fill="#FFFFFF" mask="url(#mask-2)" points="88.388125 0.739148485 84.049875 0.739148485 82.768875 4.47399697 88.388125 4.47399697"></polygon>
                <path d="M90.270775,0.739148485 L90.270775,4.47399697 L105.665087,4.47399697 L105.665087,20.2095727 C105.665087,22.4522394 103.84815,24.276603 101.614712,24.276603 L99.2898375,24.276603 L99.2898375,28.0114515 L101.614712,28.0114515 C105.898275,28.0114515 109.383837,24.5116788 109.383837,20.2095727 L109.383837,0.739148485 L90.270775,0.739148485 Z" id="Fill-47" fill="#FFFFFF" mask="url(#mask-2)"></path>
                <path d="M14.4760438,11.3275318 L14.9866063,10.1692894 C15.2429813,9.58797121 15.2136688,8.92009242 14.9069813,8.3638197 L14.1129188,6.92348636 C13.8924188,6.5223197 14.3391063,6.08512273 14.7319813,6.31712273 L15.9858563,7.05530455 C16.5322938,7.3778197 17.1981688,7.42395606 17.7835438,7.18009242 L19.1537938,6.6093197 C19.5269813,6.45377424 19.8988563,6.83472879 19.7356688,7.20645606 L19.2093563,8.40600152 C18.9542938,8.9873197 18.9849188,9.65563788 19.2924813,10.2110318 L20.1053562,11.6794864 C20.3249813,12.0766985 19.8870438,12.5134561 19.4932937,12.2902439 L18.0779813,11.48835 C17.5267313,11.1759409 16.8617313,11.1407894 16.2807313,11.3934409 L15.0640438,11.9224712 C14.6895438,12.0859258 14.3106688,11.7023348 14.4760438,11.3275318" id="Fill-48" fill="#FFFFFF" mask="url(#mask-2)"></path>
                <polygon id="Fill-49" fill="#FFFFFF" mask="url(#mask-2)" points="115.76005 5.99043333 115.7233 5.67099394 112.983238 5.99043333"></polygon>
                <polygon id="Fill-50" fill="#FFFFFF" mask="url(#mask-2)" points="112.263244 8.12905152 113.882431 22.1439606 117.626119 22.1439606 116.006931 8.12905152"></polygon>
                <polygon id="Fill-51" fill="#FFFFFF" mask="url(#mask-2)" points="123.09395 5.99043333 120.352137 5.67143333 120.315387 5.99043333"></polygon>
                <polygon id="Fill-52" fill="#FFFFFF" mask="url(#mask-2)" points="120.068856 8.12905152 118.453169 22.1439606 122.196419 22.1439606 123.812544 8.12905152"></polygon>
            </g>
        </g>
    </g>
</svg>