<?xml version="1.0" encoding="UTF-8"?>
<svg width="234px" height="251px" viewBox="0 0 234 251" version="1.1" xmlns="http://www.w3.org/2000/svg" xmlns:xlink="http://www.w3.org/1999/xlink">
    <!-- Generator: Sketch 59 (86127) - https://sketch.com -->
    <title>启动页/底纹</title>
    <desc>Created with Sketch.</desc>
    <g id="启动页/底纹" stroke="none" stroke-width="1" fill="none" fill-rule="evenodd" opacity="0.0299999993">
        <g id="底纹" style="mix-blend-mode: multiply;" fill="#000000">
            <path d="M126.631728,161.593669 L142.017849,161.598475 L147.148169,166.634647 L160.824721,166.63892 L165.951815,161.605952 L211.647632,161.620228 C223.235263,161.623848 232.628015,171.016525 232.631727,182.604156 C232.635436,194.182311 223.252493,203.571267 211.674338,203.574977 C211.669916,203.574978 211.665495,203.574978 211.661073,203.574977 L165.965256,203.560701 L165.965256,203.560701 L160.838162,208.593669 L147.16161,208.589396 L142.03129,203.553224 L126.645169,203.548417 L126.631728,161.593669 Z" id="Rectangle-14" transform="translate(179.631728, 185.093669) rotate(-315.000000) translate(-179.631728, -185.093669) "></path>
            <path d="M180.973403,28.3607613 C190.401675,37.7890342 190.401675,53.0752848 180.973403,62.5035577 C180.836039,62.640921 180.697023,62.7766215 180.556384,62.9106293 L132.90217,108.318001 L132.842762,116.771907 L121.491676,128.122993 L113.03777,128.182401 L100.267798,140.952373 L99.8893774,141.324796 C87.3267902,153.492022 67.4197429,153.50866 55.1802979,141.269215 C42.8172221,128.90614 42.9590774,108.719778 55.4971406,96.1817149 C63.4326897,88.2461658 74.432021,85.2763331 84.5725313,87.299782 L145.718934,28.0788974 C155.576404,18.531732 171.269844,18.6572031 180.973403,28.3607613 Z M60.9395737,101.394086 C51.5361696,110.721844 51.4909682,125.80006 60.8386161,135.072508 C70.1865454,144.344674 85.3875066,144.299838 94.7911972,134.972365 C104.194601,125.644607 104.239803,110.566391 94.8921548,101.293943 C85.5442255,92.0217772 70.3432643,92.0666136 60.9395737,101.394086 Z M85.8321226,112.87578 C85.8902894,113.20274 85.8898179,113.537442 85.83073,113.864237 L83.1781489,128.534776 C82.90305,130.056256 81.4466348,131.066648 79.9251546,130.791549 C79.3676907,130.690754 78.853922,130.423208 78.4517233,130.024257 L66.3143396,117.98488 C65.2166231,116.896028 65.2094375,115.123463 66.2982901,114.025747 C66.7045893,113.61614 67.2275163,113.342064 67.795535,113.241013 L82.5854998,110.609851 C84.1077491,110.33904 85.5613116,111.353531 85.8321226,112.87578 Z" id="合并形状"></path>
            <path d="M94.2552973,208.399657 C100.557041,213.323118 103.253035,220.726609 101.102279,226.115931 C103.903134,230.965034 104.166122,236.351328 101.27689,240.049377 C97.0706885,245.433069 87.7764388,245.199978 80.5176025,239.528754 C78.1234542,237.65824 76.2497526,235.429764 74.9645499,233.089773 C72.3840349,232.409535 69.7684648,231.130607 67.3743165,229.260093 C60.1154802,223.588869 57.6408307,214.627088 61.8470323,209.243395 C64.7364305,205.545134 70.0267936,204.49734 75.4090203,206.042101 C80.117758,202.65135 87.9535536,203.476195 94.2552973,208.399657 Z M112.404115,218.674551 C115.552,214.59733 120.289255,213.019738 122.985112,215.150847 C125.680884,217.282065 125.314409,222.314955 122.166524,226.392176 C119.018639,230.469398 114.281384,232.04699 111.585527,229.915881 C108.889755,227.784663 109.25623,222.751772 112.404115,218.674551 Z M109.520459,195.260006 C112.668344,191.182785 117.405599,189.605193 120.101456,191.736302 C122.797228,193.86752 122.430753,198.90041 119.282868,202.977632 C116.134983,207.054853 111.397728,208.632445 108.701871,206.501336 C106.006099,204.370118 106.372574,199.337227 109.520459,195.260006 Z M70.1003442,185.231507 C73.2482292,181.154286 77.9854838,179.576694 80.6813413,181.707803 C83.3771132,183.839021 83.0106378,188.871911 79.8627528,192.949133 C76.7148678,197.026354 71.9776132,198.603946 69.2817557,196.472837 C66.5859838,194.341619 66.9524592,189.308728 70.1003442,185.231507 Z M93.249778,182.397297 C96.397663,178.320075 101.134918,176.742484 103.830775,178.873592 C106.526547,181.004811 106.160072,186.037701 103.012187,190.114922 C99.8643016,194.192144 95.127047,195.769735 92.4311895,193.638627 C89.7354176,191.507409 90.101893,186.474518 93.249778,182.397297 Z" id="合并形状" transform="translate(92.293521, 210.931872) rotate(-75.000000) translate(-92.293521, -210.931872) "></path>
            <path d="M14.8578644,130.319805 L42.7867966,130.319805 C45.5482203,130.319805 47.7867966,132.558381 47.7867966,135.319805 C47.7867966,136.645888 47.2600124,137.917657 46.3223305,138.855339 L18.3933983,166.784271 C16.4407768,168.736893 13.2749519,168.736893 11.3223305,166.784271 C10.3846486,165.846589 9.85786438,164.57482 9.85786438,163.248737 L9.85786438,135.319805 C9.85786438,132.558381 12.0964406,130.319805 14.8578644,130.319805 Z" id="矩形" transform="translate(32.357864, 152.819805) rotate(-45.000000) translate(-32.357864, -152.819805) "></path>
            <path d="M79.1092084,30.3549692 C84.4509073,42.4132591 86.6869673,51.1614654 85.8173884,61.9680092 C84.0782307,72.4518897 78.02621,74.2529803 70.2,67.3712811 C68.2628267,65.2029819 57.0333333,55.7696331 54.4,55.7696331 L39.0069697,55.7696331 C36.3736364,55.7696331 24.7371733,65.2029819 22.8,67.3712811 C14.97379,74.2529803 8.92176935,72.4518897 7.18261157,61.9680092 C6.31303268,51.1614654 8.54909268,42.4132591 13.8907916,30.3549692 C18.1144605,21.7007168 23.7046105,18.7244086 30.6612416,21.4260446 C37.1353912,23.6475861 42.4005567,26.3465562 46.5,26.3465562 C50.5994433,26.3465562 55.8646088,23.6475861 62.3387584,21.4260446 C69.2953895,18.7244086 74.8855395,21.7007168 79.1092084,30.3549692 Z M30.223405,30.0979797 C28.1317305,30.0979797 26.4360932,31.793617 26.4360932,33.8852916 L26.4360932,33.8852916 L26.4360932,35.7979797 L24.536544,35.7979797 C22.437862,35.7979797 20.736544,37.4992977 20.736544,39.5979797 C20.736544,41.6966618 22.437862,43.3979797 24.536544,43.3979797 L24.536544,43.3979797 L26.4360932,43.3979797 L26.4360932,45.3106679 C26.4360932,47.4023425 28.1317305,49.0979797 30.223405,49.0979797 C32.3150796,49.0979797 34.0107169,47.4023425 34.0107169,45.3106679 L34.0107169,45.3106679 L34.0107169,43.3979797 L35.936544,43.3979797 C38.0352261,43.3979797 39.736544,41.6966618 39.736544,39.5979797 C39.736544,37.4992977 38.0352261,35.7979797 35.936544,35.7979797 L35.936544,35.7979797 L34.0107169,35.7979797 L34.0107169,33.8852916 C34.0107169,31.793617 32.3150796,30.0979797 30.223405,30.0979797 Z M69.127417,41.0477272 C66.6421356,41.0477272 64.627417,42.6147306 64.627417,44.5477272 C64.627417,46.4807238 66.6421356,48.0477272 69.127417,48.0477272 C71.6126984,48.0477272 73.627417,46.4807238 73.627417,44.5477272 C73.627417,42.6147306 71.6126984,41.0477272 69.127417,41.0477272 Z M62.0563492,31.1482323 C59.5710678,31.1482323 57.5563492,32.7152357 57.5563492,34.6482323 C57.5563492,36.5812289 59.5710678,38.1482323 62.0563492,38.1482323 C64.5416306,38.1482323 66.5563492,36.5812289 66.5563492,34.6482323 C66.5563492,32.7152357 64.5416306,31.1482323 62.0563492,31.1482323 Z" id="合并形状-copy-16" fill-rule="nonzero" transform="translate(46.500000, 45.961941) rotate(-225.000000) translate(-46.500000, -45.961941) "></path>
            <path d="M180.421162,119 L193.538059,132.117341 L178.491875,136.893732 C178.045534,137.035423 177.566269,137.035423 177.119928,136.893732 C175.926457,136.514867 175.266079,135.240204 175.644932,134.046693 L180.421162,119 L180.421162,119 Z M182.538059,113.534669 L186.452648,101.202852 C186.89939,99.7955185 187.677511,98.5160223 188.721582,97.471952 L198.192913,88.0005813 C200.860356,85.3331396 205.185137,85.3331396 207.852581,88.0005813 L224.537477,104.685481 C227.20492,107.352923 227.20492,111.6777 224.537477,114.345142 L215.06613,123.816482 C214.022059,124.860552 212.742562,125.638673 211.335227,126.085414 L199.003402,130 L182.538059,113.534669 Z" id="形状-copy-3" transform="translate(201.038059, 111.500000) rotate(-180.000000) translate(-201.038059, -111.500000) "></path>
        </g>
    </g>
</svg>